<svg xmlns="http://www.w3.org/2000/svg" width="107.103" height="94" viewBox="0 0 107.103 94"><defs><style>.a{fill:#1aa6b7;}</style></defs><g transform="translate(0 -31.318)"><g transform="translate(0 31.318)"><path class="a" d="M429.253,68.112a2.536,2.536,0,1,0,2.536,2.536A2.536,2.536,0,0,0,429.253,68.112Z" transform="translate(-337.454 -60.415)"/><circle class="a" cx="2.536" cy="2.536" r="2.536" transform="translate(80.599 7.697)"/><circle class="a" cx="2.536" cy="2.536" r="2.536" transform="translate(71.935 7.697)"/><path class="a" d="M107.1,37.113a5.8,5.8,0,0,0-5.8-5.8H5.8a5.8,5.8,0,0,0-5.8,5.8V105.86a1.569,1.569,0,0,0,3.138,0V51.784H103.965v8.294a1.569,1.569,0,1,0,3.138,0ZM3.138,48.646V37.113A2.66,2.66,0,0,1,5.8,34.456h95.513a2.66,2.66,0,0,1,2.657,2.657V48.646H3.138Z" transform="translate(0 -31.318)"/><path class="a" d="M105.534,196.3a1.569,1.569,0,0,0-1.569,1.569V250a2.66,2.66,0,0,1-2.657,2.657H5.794A2.66,2.66,0,0,1,3.138,250v-6.342a1.569,1.569,0,1,0-3.138,0V250a5.8,5.8,0,0,0,5.794,5.794h95.514A5.8,5.8,0,0,0,107.1,250V197.871A1.569,1.569,0,0,0,105.534,196.3Z" transform="translate(0 -161.79)"/><path class="a" d="M183.5,256.367H164.209a1.569,1.569,0,0,0-1.569,1.569v30.006a1.569,1.569,0,0,0,1.569,1.569h54.1a1.569,1.569,0,0,0,1.569-1.569V269.534a11.077,11.077,0,1,0-12.427-13.167H190.824a1.569,1.569,0,1,0,0,3.138h16.445a11.1,11.1,0,0,0,9.467,10.029v16.839H165.778V259.5H183.5a1.569,1.569,0,1,0,0-3.138Zm26.861,2.2a7.94,7.94,0,1,1,7.953,7.94h-.024A7.949,7.949,0,0,1,210.364,258.569Z" transform="translate(-128.618 -202.271)"/><path class="a" d="M204.606,326.354a1.922,1.922,0,0,0-1.784-1.2h0a1.921,1.921,0,0,0-1.783,1.2l-.014.036-5.96,15.649A1.569,1.569,0,1,0,198,343.159l1.1-2.887h7.411l1.088,2.883a1.569,1.569,0,1,0,2.936-1.108l-5.906-15.65Zm-4.316,10.78,2.527-6.635,2.5,6.635Z" transform="translate(-154.177 -263.692)"/><path class="a" d="M363.106,363.377a3.126,3.126,0,0,1-2.3-.957,1.569,1.569,0,1,0-2.325,2.107,6.223,6.223,0,0,0,4.624,1.988,4.422,4.422,0,0,0,4.5-3.446c.271-1.516-.4-3.489-3.1-4.483-1.162-.429-2.248-.894-2.64-1.065a.363.363,0,0,1-.1-.321.708.708,0,0,1,.561-.529,2.982,2.982,0,0,1,2.433.573,1.569,1.569,0,0,0,2.009-2.411,6.029,6.029,0,0,0-5.347-1.166,3.818,3.818,0,0,0-2.761,3.088,3.481,3.481,0,0,0,1.553,3.446,1.579,1.579,0,0,0,.218.118c.058.026,1.435.639,2.986,1.211.576.213,1.166.584,1.094.988A1.364,1.364,0,0,1,363.106,363.377Z" transform="translate(-283.171 -286.061)"/><path class="a" d="M289.559,346.617a1.568,1.568,0,0,0,3.042-.536V331.16a1.569,1.569,0,1,0-3.138,0v4.317a6.573,6.573,0,1,0,.1,11.14Zm-6.965-5.539a3.434,3.434,0,1,1,3.434,3.434A3.438,3.438,0,0,1,282.595,341.078Z" transform="translate(-220.999 -267.197)"/><path class="a" d="M415.463,289.393l.833.833a1.569,1.569,0,0,0,2.219-2.219l-.833-.833.833-.833a1.569,1.569,0,0,0-2.219-2.219l-.833.833-.833-.833a1.569,1.569,0,1,0-2.219,2.219l.833.833-.833.833a1.569,1.569,0,1,0,2.219,2.219Z" transform="translate(-325.778 -230.876)"/><path class="a" d="M162.525,146.476H99.554a1.569,1.569,0,0,0-1.569,1.569v6.762a1.569,1.569,0,0,0,1.569,1.569h62.971a1.569,1.569,0,0,0,1.569-1.569v-6.762A1.569,1.569,0,0,0,162.525,146.476Zm-1.569,6.762H101.123v-3.624h59.833v3.624Z" transform="translate(-77.488 -122.387)"/><path class="a" d="M32.325,259.163a1.569,1.569,0,0,0,1.569,1.569H88.835a1.569,1.569,0,0,0,0-3.138H33.894a1.569,1.569,0,0,0-1.569,1.569Z" transform="translate(-25.563 -210.26)"/><path class="a" d="M104.6,225.269a1.569,1.569,0,1,0,0,3.138h40.149a1.569,1.569,0,1,0,0-3.138Z" transform="translate(-81.482 -184.697)"/><path class="a" d="M33.894,293.057h20.5a1.569,1.569,0,0,0,0-3.138h-20.5a1.569,1.569,0,0,0,0,3.138Z" transform="translate(-25.563 -235.823)"/><path class="a" d="M33.894,325.382h20.5a1.569,1.569,0,0,0,0-3.138h-20.5a1.569,1.569,0,0,0,0,3.138Z" transform="translate(-25.563 -261.387)"/><path class="a" d="M33.894,357.707h9.932a1.569,1.569,0,1,0,0-3.138H33.894a1.569,1.569,0,0,0,0,3.138Z" transform="translate(-25.563 -286.95)"/></g></g></svg>