<svg xmlns="http://www.w3.org/2000/svg" width="82" height="78.069" viewBox="0 0 82 78.069"><defs><style>.a{fill:#2c4250;}</style></defs><path class="a" d="M351.27,44.647c.036,0,.071.005.108.005a1.329,1.329,0,0,0,.184-.014A2.969,2.969,0,0,1,354.47,47.6a1.329,1.329,0,1,0,2.657,0,5.633,5.633,0,0,0-4.421-5.494V40.833a1.329,1.329,0,0,0-2.657,0v1.337A5.625,5.625,0,0,0,351.5,53.228a2.968,2.968,0,1,1-2.968,2.968,1.329,1.329,0,1,0-2.657,0,5.634,5.634,0,0,0,4.172,5.433v1.456a1.329,1.329,0,0,0,2.657,0V61.691a5.624,5.624,0,0,0-1.2-11.119,2.967,2.967,0,0,1-.232-5.924Zm0,0" transform="translate(-288.439 -33.009)"/><path class="a" d="M63.139.39a19.061,19.061,0,0,0-17.76,12.474H12.4a1.389,1.389,0,0,0-1.329,1.388l-.314,46.6h-9.4A1.307,1.307,0,0,0,0,62.123v5.914A10.436,10.436,0,0,0,9.964,78.431v.029H50.982v-.039c.332.012.469.039.679.039h.029A10.435,10.435,0,0,0,62.108,68.025v-29.9c.332.018.684.028,1.028.028a18.88,18.88,0,0,0,0-37.76ZM10.469,75.8h-.008a7.814,7.814,0,0,1-7.8-7.779v-4.51H41.184V68a10.422,10.422,0,0,0,3.076,7.385c.139.139.313.247.459.413Zm48.982-7.779A7.778,7.778,0,0,1,51.688,75.8h-.025a7.836,7.836,0,0,1-7.822-7.8V62.123a1.226,1.226,0,0,0-1.268-1.266H13.419l.3-45.336H44.641a19.962,19.962,0,0,0-.364,3.69,18.734,18.734,0,0,0,1.6,7.6H33.332a1.329,1.329,0,0,0,0,2.657h13.99a18.748,18.748,0,0,0,12.129,8.32Zm3.688-32.529a16.2,16.2,0,1,1,16.2-16.2A16.2,16.2,0,0,1,63.139,35.494Zm0,0" transform="translate(0 -0.39)"/><path class="a" d="M128.014,212.746a4.119,4.119,0,1,0,4.253,4.117A4.191,4.191,0,0,0,128.014,212.746Zm0,5.577a1.466,1.466,0,1,1,1.6-1.46A1.534,1.534,0,0,1,128.014,218.323Zm0,0" transform="translate(-103.209 -177.481)"/><path class="a" d="M192.719,230.833a1.328,1.328,0,0,0,1.329,1.329h17.712a1.329,1.329,0,1,0,0-2.657H194.048A1.328,1.328,0,0,0,192.719,230.833Zm0,0" transform="translate(-160.715 -191.456)"/><path class="a" d="M128.014,143.2a4.12,4.12,0,1,0,4.253,4.118A4.191,4.191,0,0,0,128.014,143.2Zm0,5.578a1.466,1.466,0,1,1,1.6-1.46,1.534,1.534,0,0,1-1.6,1.46Zm0,0" transform="translate(-103.209 -119.487)"/><path class="a" d="M128.014,282.281a4.119,4.119,0,1,0,4.253,4.117A4.191,4.191,0,0,0,128.014,282.281Zm0,5.577a1.466,1.466,0,1,1,1.6-1.46A1.533,1.533,0,0,1,128.014,287.858Zm0,0" transform="translate(-103.209 -235.469)"/><path class="a" d="M211.759,299.5H194.048a1.329,1.329,0,1,0,0,2.657h17.712a1.329,1.329,0,0,0,0-2.657Zm0,0" transform="translate(-160.715 -249.832)"/></svg>