<svg xmlns="http://www.w3.org/2000/svg" width="390.223" height="215.822" viewBox="0 0 390.223 215.822">
  <g id="Character" transform="translate(-68.78 -32.7)">
    <rect id="Rectangle_143" data-name="Rectangle 143" width="390.223" height="95.268" rx="47.634" transform="translate(68.78 153.254)" fill="#1aa6b7"/>
    <g id="Group_128" data-name="Group 128" transform="translate(68.78 153.254)" opacity="0.3">
      <rect id="Rectangle_144" data-name="Rectangle 144" width="390.223" height="95.268" rx="47.634" transform="translate(0 0)"/>
    </g>
    <rect id="Rectangle_145" data-name="Rectangle 145" width="390.223" height="95.268" rx="47.634" transform="translate(68.78 145.446)" fill="#1aa6b7"/>
    <g id="Group_129" data-name="Group 129" transform="translate(334.401 145.446)" opacity="0.3">
      <path id="Path_652" data-name="Path 652" d="M445.4,184.75s-2.143.052-3.233.037c-3.708-.037-10.381-.037-10.381-.037L427,193.6c1.1,2.328,2.543,4.938,5.072,5.45a7.5,7.5,0,0,0,3.759-.467,25.79,25.79,0,0,0,8.283-4.323,8.9,8.9,0,0,0,3.277-4.449C447.851,187.953,447.1,185.551,445.4,184.75Z" transform="translate(-427 -184.75)"/>
    </g>
    <g id="Group_130" data-name="Group 130" transform="translate(162.862 145.446)" opacity="0.3">
      <path id="Path_663" data-name="Path 663" d="M215.933,194.271c-1.12-2.751-2.907-7.689-5.242-9.521,0,0-14.956.26-15.03,0l6.926,24.877a12.909,12.909,0,0,1,4.071,6.533c.719,2.314,1.312,4.8,2.966,6.54s4.931,2.225,6.377.3c1.616-2.173-.148-5.191-.2-7.9s1.661-5.094,2.358-7.712C219.381,203.021,217.646,198.46,215.933,194.271Z" transform="translate(-195.66 -184.75)"/>
    </g>
    <path id="Path_665" data-name="Path 665" d="M348.707,68.552c1.031-2.632,2.084-5.346,2.1-8.157s-1.238-5.88-3.708-7.089c-2.3-1.12-5.064-.475-7.5-1.261-2.966-.964-4.961-3.893-6.37-6.792S330.673,39.21,328.382,37a10.181,10.181,0,0,0-11.6-1.565A17.307,17.307,0,0,0,307.8,32.7c-4,0-8.535.46-11.234,3.4-2.091,2.284-3.381,5.153-5.984,6.837-3.581,2.313-8.3.586-12.554.875a2.468,2.468,0,0,0-2.225,1.112,2.64,2.64,0,0,0,.43,2.084l3.507,6.77a6.548,6.548,0,0,1-5.71,0,19.376,19.376,0,0,0,5.435,12.035,1.628,1.628,0,0,0-2.224.934,4.122,4.122,0,0,0,.119,2.721,19.947,19.947,0,0,0,27.45,12.391l23.543,1.046a6,6,0,0,0,4.167,3.633c2.573-2.024,2.966-3.137,2.966-3.137,1.654,1.157.363.586,1.654,1.157,2.966,1.3,7.207-.482,7.763-3.745a6.867,6.867,0,0,1,1.483-3.626,12.162,12.162,0,0,1,3.374-2,9.639,9.639,0,0,0,4.167-4.538A6.97,6.97,0,0,1,348.707,68.552Z" transform="translate(-53.056)" fill="#263238"/>
    <path id="Path_666" data-name="Path 666" d="M296.439,61.162a22.616,22.616,0,0,1,20.97-22.393l1.172-.089c12.65-.185,19.88,10.448,19.717,23.105l1.876,58.26-28.882,2.061-1.1-18.916s-12.25-.994-13.288-13.088C296.409,84.252,296.357,72.143,296.439,61.162Z" transform="translate(-58.841 -1.545)" fill="#ffbe9d"/>
    <path id="Path_671" data-name="Path 671" d="M351.3,81.92c.2-.1,8.157-3.07,8.483,5.191s-8.06,6.926-8.082,6.674S351.3,81.92,351.3,81.92Z" transform="translate(-73.03 -12.568)" fill="#ffbe9d"/>
    <path id="Path_672" data-name="Path 672" d="M354.1,91.59a2.669,2.669,0,0,0,.4.2,1.483,1.483,0,0,0,1.083,0c.86-.356,1.542-1.78,1.52-3.277a4.782,4.782,0,0,0-.489-2.054,1.668,1.668,0,0,0-1.1-1.09.741.741,0,0,0-.838.43c-.1.237-.044.4-.089.415s-.185-.133-.133-.475a.927.927,0,0,1,.3-.534,1.09,1.09,0,0,1,.756-.208,2.032,2.032,0,0,1,1.565,1.223,4.91,4.91,0,0,1,.593,2.291c0,1.676-.742,3.277-1.958,3.67a1.55,1.55,0,0,1-1.335-.163C354.12,91.79,354.068,91.6,354.1,91.59Z" transform="translate(-73.752 -13.517)" fill="#eb996e"/>
    <path id="Path_673" data-name="Path 673" d="M337.344,51.315a19.471,19.471,0,0,0-3.226-6.674c-4.345-6.028-14.252-8.846-19.872-8.342s-11.464,4.671-16.706,6.763c-3.433,1.372-6.036,4.523-4.731,6.963a20.08,20.08,0,0,1-6.362,1.394s-.2,3.1,1.52,3.915l5.413,3.544c7.215.957,19.88-6.147,22.327-8.379a38.271,38.271,0,0,1,7.482-5.383c-2.3,6.028,5.191,4.694,4.99,7.029-2.291,8.475,4.62,11.6,4.62,11.6l.171,7.415c-.156,1.9.66,3.366,2.566,3.233h0a15.062,15.062,0,0,0,2.41-5.139C338.6,64.8,338.182,55.75,337.344,51.315Z" transform="translate(-56.265 -0.916)" fill="#263238"/>
    <path id="Path_674" data-name="Path 674" d="M314.86,123.636a29.445,29.445,0,0,0,15.527-5.806s-3.092,8.987-15.253,8.779Z" transform="translate(-63.611 -22.006)" fill="#eb996e"/>
    <path id="Path_684" data-name="Path 684" d="M298.3,133.45l-23.81,6.533L248.81,158.52l6.851,11.716,121.095.208s-4.449-16.187-5.865-21.155c-2.187-7.5-5.191-9.64-7.867-12.353a12.776,12.776,0,0,0-4.323-2.543c-4.783-1.046-26.954-6.021-31.269-5.932,0,0-4.975,10.285-15.4,10.181S298.3,133.45,298.3,133.45Z" transform="translate(-46.537 -24.753)" fill="#455a64"/>
    <path id="Path_686" data-name="Path 686" d="M283.754,172.206a13.258,13.258,0,0,0,.082-2.521c0-1.557-.1-3.708-.282-6.065s-.423-4.5-.645-6.043a13.274,13.274,0,0,0-.46-2.477,15.572,15.572,0,0,0,.156,2.514l.512,6.036.408,6.043A15.572,15.572,0,0,0,283.754,172.206Z" transform="translate(-55.232 -31.64)" fill="#263238"/>
    <g id="Group_131" data-name="Group 131" transform="translate(215.642 135.294)" opacity="0.3">
      <path id="Path_687" data-name="Path 687" d="M272.579,179.409a12.52,12.52,0,0,0,5.406-2.758,5.132,5.132,0,0,0,1.364-5.591,17.581,17.581,0,0,0,16.217,10.084l-28.726.356A24.81,24.81,0,0,1,272.579,179.409Z" transform="translate(-266.84 -171.06)"/>
    </g>
    <path id="Path_688" data-name="Path 688" d="M447.41,183.236s-2.914-3.96-4.345-4.709-3.411-.741-4.278.052l-.868.742s-4.516-2.032-6.674-.467c0,0-4.3-2.032-6.355.3,0,0-3.315-2.15-4.716-.274s-1.253,5.057-.578,6.674,1.95,7.215,2.966,7.311c0,0,2.64.282,2.966-1.149s.5-2.113.5-2.113,1.008,5.057,2.225,5.3,3.537.119,3.619-2.1c0,0,1.127,1.676,2.224,1.186s2.462-1.3,2.343-2.669-.141-2.744-.141-2.744.6,1.995,1.6,1.565,2-.341,2.558-2.039,1.95-4.924,1.95-4.924Z" transform="translate(-90.556 -37.553)" fill="#ffbe9d"/>
    <path id="Path_689" data-name="Path 689" d="M442,188.948c.059,0-.2-.549-.43-1.431a7.86,7.86,0,0,1,1.246-6.718,14.205,14.205,0,0,0,.912-1.179,3.144,3.144,0,0,0-1.157.986,7.178,7.178,0,0,0-1.3,7,3.144,3.144,0,0,0,.727,1.342Z" transform="translate(-96.184 -37.978)" fill="#eb996e"/>
    <path id="Path_690" data-name="Path 690" d="M434.758,179.24a6.947,6.947,0,0,0-.578,1.987,19.694,19.694,0,0,0,.667,9.907,6.948,6.948,0,0,0,.838,1.891,35.355,35.355,0,0,1-1.372-6.837A39.345,39.345,0,0,1,434.758,179.24Z" transform="translate(-94.365 -37.88)" fill="#eb996e"/>
    <path id="Path_691" data-name="Path 691" d="M426.669,179.69a21.222,21.222,0,0,0,1.209,10.537c.126-.037-.512-2.336-.838-5.242S426.8,179.7,426.669,179.69Z" transform="translate(-92.461 -37.996)" fill="#eb996e"/>
    <path id="Path_692" data-name="Path 692" d="M402.728,180.87a1.69,1.69,0,0,1,1.134-.919,3.708,3.708,0,0,1,3.277.875,12.65,12.65,0,0,1,2.4,2.966l-6.407-.044C403.195,182.761,402.364,181.782,402.728,180.87Z" transform="translate(-86.301 -38.042)" fill="#ffbe9d"/>
    <path id="Path_693" data-name="Path 693" d="M183.654,182.737a12.858,12.858,0,0,1,6-9.64h0a10.648,10.648,0,0,1,8.9-.882l12.376,4.293c.667.742,21.066-7.148,21.066-7.148l6.851,11.7-38.988-.052a92.782,92.782,0,0,0,6.807,6.978l2.647,8.794-.3,7.956c-1.4.645-3.492-1.809-3.492-1.809l-1.223,2.225.408,2.165s3.6,8.75,3.478,10.692a1.1,1.1,0,0,1-1.135,1.1,2.61,2.61,0,0,1-2.506-1.483l-5.094-9.906s-3.967-.971-5.354-2.276-3.515-3.841-3.515-3.841l-2.514-.356a1.372,1.372,0,0,1-.868-.171,4.7,4.7,0,0,1-2.551-3.411L183.372,191C183.06,189.484,183.327,185.955,183.654,182.737Z" transform="translate(-29.586 -35.326)" fill="#ffbe9d"/>
    <path id="Path_694" data-name="Path 694" d="M199.45,210.77a17.4,17.4,0,0,0,4.212,7.7c.1-.074-1.083-1.654-2.225-3.774S199.569,210.725,199.45,210.77Z" transform="translate(-33.778 -46.03)" fill="#eb996e"/>
    <path id="Path_695" data-name="Path 695" d="M191.423,209.78a4.916,4.916,0,0,0,1.134,2.165,6.785,6.785,0,0,0,1.616,1.824,7.913,7.913,0,0,0-1.283-2.061,15.112,15.112,0,0,0-1.468-1.928Z" transform="translate(-31.697 -45.775)" fill="#eb996e"/>
    <path id="Path_696" data-name="Path 696" d="M212.027,217.524a21.645,21.645,0,0,0-.7-2.432c-.452-1.483-1.038-3.567-1.609-5.873-.289-1.157-.549-2.225-.742-3.263a8.415,8.415,0,0,1-.267-2.662,4.145,4.145,0,0,1,.942-2.225,1.588,1.588,0,0,0-.519.452,3.707,3.707,0,0,0-.741,1.743,8.075,8.075,0,0,0,.185,2.781c.208,1.016.452,2.128.742,3.285.578,2.313,1.209,4.39,1.735,5.865a11.938,11.938,0,0,0,.971,2.328Z" transform="translate(-36.078 -43.523)" fill="#eb996e"/>
    <path id="Path_697" data-name="Path 697" d="M209.688,203.33c-.052.044.371.519.86,1.4a8.9,8.9,0,0,1,1.1,3.708,11.487,11.487,0,0,0,.185,2.225,3.278,3.278,0,0,0,.934,1.609,3.6,3.6,0,0,0,1.387.949c.044-.059-.5-.408-1.172-1.149a3.166,3.166,0,0,1-.742-1.483,13.41,13.41,0,0,1-.141-2.165,8.067,8.067,0,0,0-1.268-3.841,3.774,3.774,0,0,0-1.149-1.253Z" transform="translate(-36.423 -44.107)" fill="#eb996e"/>
    <path id="Path_698" data-name="Path 698" d="M203.911,182.982c.074-.1-1.372-1.3-2.833-3.085s-2.4-3.433-2.529-3.329a4.643,4.643,0,0,0,.512,1.12,16.568,16.568,0,0,0,1.7,2.469A10.543,10.543,0,0,0,203.911,182.982Z" transform="translate(-33.545 -37.188)" fill="#eb996e"/>
    <g id="Group_132" data-name="Group 132" transform="translate(291.261 134.516)" opacity="0.3">
      <path id="Path_699" data-name="Path 699" d="M376.183,181.177l.482-11.167-7.845,11.152Z" transform="translate(-368.82 -170.01)"/>
    </g>
    <ellipse id="Ellipse_132" data-name="Ellipse 132" cx="6.614" cy="0.193" rx="6.614" ry="0.193" transform="matrix(0.055, -0.998, 0.998, 0.055, 298.447, 145.681)" fill="#263238"/>
    <path id="Path_1425" data-name="Path 1425" d="M-206.119-14.632a1.942,1.942,0,0,1,1.426.589,1.942,1.942,0,0,1,.589,1.426,1.942,1.942,0,0,1-.589,1.426,1.942,1.942,0,0,1-1.426.589,1.907,1.907,0,0,1-1.4-.589,1.942,1.942,0,0,1-.589-1.426,1.942,1.942,0,0,1,.589-1.426A1.907,1.907,0,0,1-206.119-14.632Zm10.54.372V-.744a7.619,7.619,0,0,1-2.387,5.983,9.175,9.175,0,0,1-6.417,2.17h-3.069a9.01,9.01,0,0,1-6.665-2.387,7.792,7.792,0,0,1-2.139-5.766V-6.293l1.922-1.55h1.86v6.758q0,2.914,1.488,4.123t5.084,1.209q3.472,0,4.929-1.116,1.612-1.24,1.612-4.216V-14.26Zm3.131-6.944q1.147-2.139,2.79-2.139a5.046,5.046,0,0,1,2.046.589q.465.217.682.31a3.151,3.151,0,0,0,1.209.31,2.1,2.1,0,0,0,1.55-.961l1.054.806a3.61,3.61,0,0,1-2.914,1.953,5.353,5.353,0,0,1-2.418-.713,3.134,3.134,0,0,0-1.24-.434,3.125,3.125,0,0,0-1.767,1.023Zm17.422-.992V-3.41a3.2,3.2,0,0,1-.9,2.263A3.087,3.087,0,0,1-178.4,0h-12.431l-1.55-1.922v-1.24h7.533l-5.115-15.221h3.565l5.115,15.221h1.674a.841.841,0,0,0,.62-.248,1.08,1.08,0,0,0,.186-.527V-22.2Zm8.06,0V-.775l-1.922,1.55h-1.86V-22.2Zm13.764,0V-3.937a.67.67,0,0,0,.186.5.657.657,0,0,0,.589.279h.806V0h-2.015a3.167,3.167,0,0,1-2.232-.9,3.274,3.274,0,0,1-1.116-2.511V-22.2Zm8.8,1.116a1.942,1.942,0,0,1,1.426.589,1.942,1.942,0,0,1,.589,1.426,1.907,1.907,0,0,1-.589,1.395,1.942,1.942,0,0,1-1.426.589,1.907,1.907,0,0,1-1.4-.589,1.907,1.907,0,0,1-.589-1.395,1.942,1.942,0,0,1,.589-1.426A1.907,1.907,0,0,1-144.4-21.08Zm1.891,6.82v11.1h1.581V0h-1.085l-1.147-1.271h-.062A3.286,3.286,0,0,1-145.855,0h-5.983V-3.162h4.681a.725.725,0,0,0,.62-.248.8.8,0,0,0,.279-.62V-14.26Zm5.673,5.456a8.25,8.25,0,0,1,3.844-4.619,8.96,8.96,0,0,1,4.5-1.178,8,8,0,0,1,4.433,1.3,8.436,8.436,0,0,1,3.6,4.5l-.372.868a9.111,9.111,0,0,0-2.6,1.922,7.217,7.217,0,0,0-1.705,2.852h4.991V0h-6.82a2.088,2.088,0,0,1-1.581-.806h-.155A2.143,2.143,0,0,1-130.355,0h-10.788V-3.162h8.99a7.613,7.613,0,0,0-1.581-2.7,7.765,7.765,0,0,0-2.759-2.077Zm12.4-.248a4.629,4.629,0,0,0-2.015-1.922,4.846,4.846,0,0,0-2.139-.465,5.451,5.451,0,0,0-2.356.527,4.395,4.395,0,0,0-1.922,1.86,6.634,6.634,0,0,1,2.232,1.86,9.706,9.706,0,0,1,1.922,3.162h.124a9.549,9.549,0,0,1,2.015-3.317A6.685,6.685,0,0,1-124.434-9.052Zm9.61.155a5.211,5.211,0,0,1,2.046-4.464,7.051,7.051,0,0,1,4.4-1.24,6.877,6.877,0,0,1,4.619,1.612,7.219,7.219,0,0,1,2.387,5.8,8.984,8.984,0,0,1-1.891,5.859A5.816,5.816,0,0,1-108,.93a4.859,4.859,0,0,1-4.061-1.922A3.29,3.29,0,0,1-114.483,0H-120.4V-3.162h4.774a.8.8,0,0,0,.589-.248.717.717,0,0,0,.217-.527Zm3.751,5.394a3.5,3.5,0,0,0,2.635,1.24,2.83,2.83,0,0,0,2.387-1.286,5.554,5.554,0,0,0,.93-3.333,5.44,5.44,0,0,0-1.023-3.5,3.034,3.034,0,0,0-2.418-1.085,2.274,2.274,0,0,0-1.767.713,2.4,2.4,0,0,0-.744,1.86ZM-65.968-22.2V-3.41A3.317,3.317,0,0,1-67.053-.9a3.276,3.276,0,0,1-2.263.9h-17.36a5.019,5.019,0,0,1-3.813-1.612A5.393,5.393,0,0,1-92.1-5.58v-4.9l1.922-1.55h1.86V-5.58a2.363,2.363,0,0,0,.713,1.736,2.276,2.276,0,0,0,1.674.682h15.407a.688.688,0,0,0,.589-.248.713.713,0,0,0,.186-.527V-22.2ZM-81.313-12.028a5.372,5.372,0,0,1-.558-1.3,4.382,4.382,0,0,1-.155-1.178,3.7,3.7,0,0,1,1.162-2.774,4.442,4.442,0,0,1,3.053-.977,6.773,6.773,0,0,1,1.643.186v1.767a4.615,4.615,0,0,0-1.271-.186,1.99,1.99,0,0,0-2.232,2.108,3.009,3.009,0,0,0,.372,1.519,1.862,1.862,0,0,0,1.705.837h3.1v.806l-.9,1.116h-8.215v-1.922Zm28.3-2.232v11.1h1.581V0h-1.612a7.3,7.3,0,0,1-2.945,5.7,9,9,0,0,1-5.487,1.643q-.558,0-1.209-.031L-64.2,5.425V4.092a12.448,12.448,0,0,0,1.922.155q5.487,0,5.487-5.332V-14.26Zm2.232-6.82a1.942,1.942,0,0,1,1.426.589,1.942,1.942,0,0,1,.589,1.426,1.907,1.907,0,0,1-.589,1.395,1.942,1.942,0,0,1-1.426.589A1.942,1.942,0,0,1-52.2-17.67a1.907,1.907,0,0,1-.589-1.395,1.942,1.942,0,0,1,.589-1.426A1.942,1.942,0,0,1-50.778-21.08Zm4.712,0a1.942,1.942,0,0,1,1.426.589,1.942,1.942,0,0,1,.589,1.426,1.907,1.907,0,0,1-.589,1.395,1.942,1.942,0,0,1-1.426.589,1.907,1.907,0,0,1-1.4-.589,1.907,1.907,0,0,1-.589-1.395,1.942,1.942,0,0,1,.589-1.426A1.907,1.907,0,0,1-46.066-21.08Zm1.612,6.82v11.1h1.581V0h-1.085L-45.1-1.271h-.062A3.286,3.286,0,0,1-47.8,0h-5.983V-3.162H-49.1a.725.725,0,0,0,.62-.248.8.8,0,0,0,.279-.62V-14.26ZM-22.413-24.8a1.794,1.794,0,0,1,1.317.542,1.794,1.794,0,0,1,.542,1.318,1.743,1.743,0,0,1-.542,1.3,1.821,1.821,0,0,1-1.317.527,1.769,1.769,0,0,1-1.3-.527,1.769,1.769,0,0,1-.527-1.3,1.821,1.821,0,0,1,.527-1.318A1.743,1.743,0,0,1-22.413-24.8Zm-2.356,3.72a1.942,1.942,0,0,1,1.426.589,1.942,1.942,0,0,1,.589,1.426,1.907,1.907,0,0,1-.589,1.395,1.942,1.942,0,0,1-1.426.589,1.907,1.907,0,0,1-1.395-.589,1.907,1.907,0,0,1-.589-1.395,1.942,1.942,0,0,1,.589-1.426A1.907,1.907,0,0,1-24.769-21.08Zm4.712,0a1.942,1.942,0,0,1,1.426.589,1.942,1.942,0,0,1,.589,1.426,1.907,1.907,0,0,1-.589,1.395,1.942,1.942,0,0,1-1.426.589,1.942,1.942,0,0,1-1.426-.589,1.907,1.907,0,0,1-.589-1.395,1.942,1.942,0,0,1,.589-1.426A1.942,1.942,0,0,1-20.057-21.08Zm9.858,6.82V-3.41a3.332,3.332,0,0,1-.977,2.4A3.179,3.179,0,0,1-13.547,0h-6.51L-21.2-1.271H-21.3A3.2,3.2,0,0,1-23.9,0h-6.51l-1.178-1.271h-.093A3.2,3.2,0,0,1-34.286,0h-8.8V-3.162h7.595a.685.685,0,0,0,.775-.775V-10.7h3.782v6.2q0,.9-.031,1.333h5.859a.685.685,0,0,0,.775-.775v-8.556h3.782v8.277q0,.186-.031.558v.5h5.828a.685.685,0,0,0,.775-.775V-14.26Zm8.06-7.936V-.775L-4.061.775h-1.86V-22.2Z" transform="translate(372.78 211.215)" fill="#fff"/>
  </g>
</svg>
