<svg xmlns="http://www.w3.org/2000/svg" xmlns:xlink="http://www.w3.org/1999/xlink" width="162" height="162" viewBox="0 0 162 162"><defs><style>.a{fill:#1aa6b7;}.b{fill:#ecf8f9;}.c{filter:url(#a);}</style><filter id="a" x="0" y="0" width="162" height="162" filterUnits="userSpaceOnUse"><feOffset dy="3" input="SourceAlpha"/><feGaussianBlur stdDeviation="3" result="b"/><feFlood flood-opacity="0.161"/><feComposite operator="in" in2="b"/><feComposite in="SourceGraphic"/></filter></defs><g transform="translate(9.384 6)"><g class="c" transform="matrix(1, 0, 0, 1, -9.38, -6)"><circle class="a" cx="72" cy="72" r="72" transform="translate(9 6)"/></g><g transform="translate(28.978 29.547)"><path class="b" d="M73.955,12.689A43.326,43.326,0,0,0,5.8,64.99L0,86.644l21.654-5.8a43.325,43.325,0,0,0,52.3-68.153ZM43.322,81.567a38.16,38.16,0,0,1-19.963-5.618l-.93-.57L7.18,79.464l4.086-15.249-.57-.93A38.248,38.248,0,1,1,43.322,81.567Z"/><rect class="b" width="5.077" height="5.077" transform="translate(40.783 59.821)"/><path class="b" d="M193.692,128.5A12.706,12.706,0,0,0,181,141.192h5.077a7.615,7.615,0,1,1,13.29,5.076l-8.213,9.185V161.5h5.077v-4.107l6.92-7.739a12.69,12.69,0,0,0-9.458-21.153Z" transform="translate(-150.37 -106.755)"/></g></g></svg>