<svg xmlns="http://www.w3.org/2000/svg" xmlns:xlink="http://www.w3.org/1999/xlink" width="164" height="164" viewBox="0 0 164 164"><defs><style>.a{fill:#1aa6b7;}.b{fill:#ecf8f9;}.c{filter:url(#a);}</style><filter id="a" x="0" y="0" width="164" height="164" filterUnits="userSpaceOnUse"><feOffset dy="3" input="SourceAlpha"/><feGaussianBlur stdDeviation="3" result="b"/><feFlood flood-opacity="0.161"/><feComposite operator="in" in2="b"/><feComposite in="SourceGraphic"/></filter></defs><g transform="translate(8.672 6)"><g class="c" transform="matrix(1, 0, 0, 1, -8.67, -6)"><circle class="a" cx="73" cy="73" r="73" transform="translate(9 6)"/></g><g transform="translate(21.694 20.949)"><g transform="translate(0 35.628)"><path class="b" d="M65.911,186.721h-1.96a1.753,1.753,0,0,1-1.65-1.151c-.217-.57-.451-1.128-.7-1.68a1.757,1.757,0,0,1,.356-1.988l1.4-1.4a5.357,5.357,0,0,0-.009-7.551l-5.034-5.034a5.357,5.357,0,0,0-7.553,0l-1.4,1.395a1.764,1.764,0,0,1-1.988.356c-.552-.251-1.11-.485-1.682-.713a1.751,1.751,0,0,1-1.156-1.653v-1.96A5.344,5.344,0,0,0,39.19,160H32.065a5.344,5.344,0,0,0-5.344,5.344v1.96a1.753,1.753,0,0,1-1.151,1.65c-.57.217-1.128.451-1.68.7A1.761,1.761,0,0,1,21.9,169.3l-1.4-1.4a5.357,5.357,0,0,0-7.551,0l-5.034,5.05a5.357,5.357,0,0,0,0,7.553l1.395,1.4a1.757,1.757,0,0,1,.356,1.988c-.251.552-.485,1.11-.7,1.682A1.751,1.751,0,0,1,7.3,186.721H5.344A5.344,5.344,0,0,0,0,192.065v7.126a5.344,5.344,0,0,0,5.344,5.344H7.3a1.753,1.753,0,0,1,1.65,1.151c.217.57.451,1.128.7,1.68a1.756,1.756,0,0,1-.356,1.988l-1.4,1.4a5.357,5.357,0,0,0,0,7.551l5.034,5.034a5.356,5.356,0,0,0,7.553,0l1.4-1.395a1.764,1.764,0,0,1,1.988-.356c.552.251,1.11.484,1.682.713a1.751,1.751,0,0,1,1.165,1.653v1.96a5.344,5.344,0,0,0,5.344,5.344H39.19a5.344,5.344,0,0,0,5.344-5.344v-1.96a1.753,1.753,0,0,1,1.151-1.65c.57-.217,1.128-.451,1.68-.7a1.762,1.762,0,0,1,1.988.356l1.4,1.4a5.358,5.358,0,0,0,7.551-.009l5.034-5.034a5.357,5.357,0,0,0,0-7.553l-1.395-1.4a1.757,1.757,0,0,1-.356-1.988c.251-.552.485-1.11.713-1.682a1.751,1.751,0,0,1,1.653-1.156h1.96a5.344,5.344,0,0,0,5.344-5.344v-7.126A5.344,5.344,0,0,0,65.911,186.721Zm1.781,12.47a1.781,1.781,0,0,1-1.781,1.781h-1.96a5.362,5.362,0,0,0-4.988,3.445q-.283.748-.613,1.473a5.36,5.36,0,0,0,1.069,5.978l1.393,1.395a1.781,1.781,0,0,1,0,2.519h0l-5.034,5.034a1.781,1.781,0,0,1-2.519,0l-1.4-1.395a5.355,5.355,0,0,0-5.978-1.069c-.483.219-.974.424-1.47.613a5.36,5.36,0,0,0-3.443,4.984v1.96a1.781,1.781,0,0,1-1.781,1.781H32.065a1.781,1.781,0,0,1-1.781-1.781v-1.96a5.362,5.362,0,0,0-3.445-4.988q-.748-.283-1.473-.613a5.362,5.362,0,0,0-5.978,1.069l-1.395,1.393a1.781,1.781,0,0,1-2.519,0h0l-5.034-5.029a1.781,1.781,0,0,1,0-2.519l1.395-1.4A5.36,5.36,0,0,0,12.9,205.89c-.219-.483-.424-.974-.613-1.47A5.36,5.36,0,0,0,7.3,200.972H5.344a1.781,1.781,0,0,1-1.781-1.781v-7.126a1.781,1.781,0,0,1,1.781-1.781H7.3a5.362,5.362,0,0,0,4.988-3.445q.283-.748.613-1.473a5.36,5.36,0,0,0-1.069-5.978l-1.4-1.395a1.781,1.781,0,0,1,0-2.519h0l5.034-5.034a1.781,1.781,0,0,1,2.519,0l1.4,1.395a5.355,5.355,0,0,0,5.978,1.069c.483-.219.974-.424,1.47-.613a5.36,5.36,0,0,0,3.451-4.984v-1.96a1.781,1.781,0,0,1,1.781-1.781H39.19a1.781,1.781,0,0,1,1.781,1.781v1.96a5.362,5.362,0,0,0,3.445,4.988q.748.283,1.473.613a5.355,5.355,0,0,0,5.978-1.069l1.395-1.393a1.792,1.792,0,0,1,2.521,0l5.034,5.034a1.781,1.781,0,0,1,0,2.519l-1.395,1.4a5.36,5.36,0,0,0-1.069,5.978c.219.483.424.974.613,1.47a5.36,5.36,0,0,0,4.984,3.443h1.96a1.781,1.781,0,0,1,1.781,1.781Z" transform="translate(0 -160)"/></g><g transform="translate(19.586 55.223)"><path class="b" d="M120,263.32c-.018-.427-.048-.853-.1-1.277-.057-.456-.125-.908-.219-1.352-.062-.29-.144-.577-.223-.866q-.15-.55-.337-1.085c-.087-.248-.178-.493-.271-.737a15.871,15.871,0,0,0-.786-1.667c-.023-.041-.037-.086-.061-.126a15.805,15.805,0,0,0-1.6-2.335c-.052-.064-.11-.125-.164-.187-.246-.29-.5-.572-.764-.841-.139-.144-.285-.28-.431-.419-.178-.166-.356-.33-.534-.486q-.324-.282-.661-.545l-.292-.217A15.919,15.919,0,0,0,104,248c-.178,0-.356.027-.534.034-.379.011-.761.032-1.144.071-.2.021-.4.045-.606.073a16.336,16.336,0,0,0-1.726.322A16.041,16.041,0,0,0,100,279.566a.411.411,0,0,1,.089.016,16.974,16.974,0,0,0,1.867.356c.415.052.83.062,1.247.082.278.014.534.055.825.055.508,0,1.035-.034,1.573-.087a1.744,1.744,0,0,0,.178-.023c.433-.048.871-.112,1.318-.2.178-.034.344-.078.515-.118.314-.073.625-.15.946-.244.249-.075.492-.162.736-.248s.5-.178.75-.274.465-.207.695-.314c.3-.137.6-.272.891-.433h.011a21.085,21.085,0,0,0,4.566-3.3,5.612,5.612,0,0,0,.955-1.169,19.017,19.017,0,0,0,2.683-7.321c.05-.344.094-.688.121-1.039.025-.322.043-.643.05-.964,0-.1.014-.2.014-.3C120.033,263.794,120.008,263.562,120,263.32Zm-3.55,1.167c0,.148-.012.3-.021.442-.032.431-.087.862-.16,1.3a12.5,12.5,0,0,1-6.26,8.729c-.221.116-.438.224-.656.324l-.148.071a12.864,12.864,0,0,1-3.249.983c-.078.012-.159.027-.239.037-.223.032-.442.059-.659.078-.287.025-.575.039-.869.044h-.372a12.5,12.5,0,0,1-1.261-.078l-.214-.025a13.194,13.194,0,0,1-1.455-.274,12.47,12.47,0,0,1-.012-24.157v0a12.9,12.9,0,0,1,3.13-.392,12.3,12.3,0,0,1,1.523.1c.135.016.269.041.4.061.385.061.766.137,1.142.233.123.032.246.061.367.094a12.581,12.581,0,0,1,2.717,1.144c.137.08.271.164.406.248.281.178.554.356.823.559.144.105.29.208.429.321a12.864,12.864,0,0,1,1,.891c.126.128.242.269.365.4.2.223.4.451.595.691.132.166.258.337.383.509.178.257.356.524.517.795.089.148.178.292.269.443a12.242,12.242,0,0,1,.613,1.306c.071.178.132.356.2.534.116.328.216.659.3.994.045.178.094.337.132.51a12.558,12.558,0,0,1,.226,1.459c.011.13.011.262.02.392C116.456,263.662,116.463,264.073,116.447,264.487Z" transform="translate(-87.959 -248)"/></g><g transform="translate(19.431)"><path class="b" d="M169.369,37.409h-5.6a1.739,1.739,0,0,1-1.66-1.169,37.09,37.09,0,0,0-2-4.829,1.744,1.744,0,0,1,.342-2.011l3.973-3.978a5.344,5.344,0,0,0,0-7.555l-7.574-7.562a5.344,5.344,0,0,0-7.555,0l-3.971,3.969a1.744,1.744,0,0,1-2.009.344,37.011,37.011,0,0,0-4.831-2.011,1.739,1.739,0,0,1-1.176-1.66v-5.6A5.344,5.344,0,0,0,131.96,0H121.272a5.344,5.344,0,0,0-5.344,5.344v5.6a1.739,1.739,0,0,1-1.169,1.66,37.125,37.125,0,0,0-4.829,2.009,1.74,1.74,0,0,1-2.011-.342L103.941,10.3a5.355,5.355,0,0,0-7.555,0l-7.56,7.56a5.344,5.344,0,0,0,0,7.557l5.841,5.852a1.781,1.781,0,0,0,2.522-2.515l-5.845-5.85a1.781,1.781,0,0,1,0-2.519l7.56-7.56a1.781,1.781,0,0,1,2.519,0L105.4,16.8a5.3,5.3,0,0,0,6.121,1,33.7,33.7,0,0,1,4.366-1.815,5.3,5.3,0,0,0,3.6-5.041v-5.6a1.781,1.781,0,0,1,1.781-1.781H131.96a1.781,1.781,0,0,1,1.781,1.781v5.6a5.3,5.3,0,0,0,3.6,5.04A33.6,33.6,0,0,1,141.71,17.8a5.309,5.309,0,0,0,6.119-1.006l3.98-3.971a1.781,1.781,0,0,1,2.519,0l7.56,7.562a1.781,1.781,0,0,1,0,2.517l-3.973,3.98a5.3,5.3,0,0,0-1,6.121,33.7,33.7,0,0,1,1.815,4.366,5.3,5.3,0,0,0,5.041,3.6h5.6a1.782,1.782,0,0,1,1.781,1.781V53.441a1.782,1.782,0,0,1-1.781,1.781h-5.6a5.3,5.3,0,0,0-5.04,3.6,33.557,33.557,0,0,1-1.817,4.368,5.3,5.3,0,0,0,1.006,6.119l3.973,3.98a1.781,1.781,0,0,1,0,2.519l-7.564,7.56a1.781,1.781,0,0,1-2.517,0l-5.854-5.841a1.781,1.781,0,1,0-2.559,2.479l.044.044,5.852,5.841a5.344,5.344,0,0,0,7.555,0l7.56-7.558a5.344,5.344,0,0,0,0-7.557L160.439,66.8a1.746,1.746,0,0,1-.344-2.009,37.012,37.012,0,0,0,2.011-4.831,1.739,1.739,0,0,1,1.66-1.176h5.6a5.344,5.344,0,0,0,5.344-5.344V42.753A5.344,5.344,0,0,0,169.369,37.409Z" transform="translate(-87.261)"/></g><g transform="translate(41.911 24.95)"><path class="b" d="M221.468,118.822a23.181,23.181,0,0,0-32.749,0,1.781,1.781,0,0,0,2.519,2.519,19.6,19.6,0,1,1,27.9,27.525l-.186.186a1.781,1.781,0,1,0,2.475,2.563l.044-.044A23.181,23.181,0,0,0,221.468,118.822Z" transform="translate(-188.219 -112.049)"/></g></g></g></svg>