<svg xmlns="http://www.w3.org/2000/svg" xmlns:xlink="http://www.w3.org/1999/xlink" width="1920" height="232" viewBox="0 0 1920 232">
  <defs>
    <clipPath id="clip-path">
      <rect id="Rectangle_136" data-name="Rectangle 136" width="1920" height="232" transform="translate(0 4366)" fill="#fff"/>
    </clipPath>
  </defs>
  <g id="footer" transform="translate(0 -3642)">
    <g id="Mask_Group_1" data-name="Mask Group 1" transform="translate(0 -724)" clip-path="url(#clip-path)">
      <g id="Group_126" data-name="Group 126">
        <path id="Path_2" data-name="Path 2" d="M2265.46,768.584-20.853,760.171v-611S197.42,3.676,540.493,3.676s823.309,95.357,845.556,100.45c65.84,15.074,218.821,42.659,385.615,21.332,222.391-28.436,493.8-135.414,493.8-135.414Z" transform="matrix(0.998, -0.07, 0.07, 0.998, -91.626, 4438.141)" fill="#1aa6b7" opacity="0.43"/>
        <path id="Path_3" data-name="Path 3" d="M2316.5,798.629-20.853,789.891V155.316S202.293,4.2,553.025,4.2s841.488,98.976,863.912,104.205c67,15.624,223.773,44.486,394.745,22.277C2039.039,101.151,2316.5-9.955,2316.5-9.955Z" transform="matrix(0.998, -0.07, 0.07, 0.998, -143.044, 4421.688)" fill="#1aa6b7" opacity="0.09"/>
      </g>
    </g>
  </g>
</svg>
