<svg xmlns="http://www.w3.org/2000/svg" xmlns:xlink="http://www.w3.org/1999/xlink" width="203" height="198" viewBox="0 0 203 198"><defs><style>.a{fill:#fff;}.b,.c,.d{fill:#a2a2a2;}.c{opacity:0.88;}.d{opacity:0.45;}.e{filter:url(#a);}</style><filter id="a" x="0" y="0" width="203" height="198" filterUnits="userSpaceOnUse"><feOffset dy="3" input="SourceAlpha"/><feGaussianBlur stdDeviation="3" result="b"/><feFlood flood-opacity="0.161"/><feComposite operator="in" in2="b"/><feComposite in="SourceGraphic"/></filter></defs><g transform="translate(9.435 5.536)"><g class="e" transform="matrix(1, 0, 0, 1, -9.44, -5.54)"><rect class="a" width="185" height="180" rx="6" transform="translate(9 6)"/></g><g transform="translate(94.263 20.015)"><rect class="b" width="42.08" height="41.72" rx="3" transform="translate(40.2)"/><rect class="c" width="17.433" height="4.068" rx="1" transform="translate(18.358 10.725)"/><rect class="d" width="35.792" height="4.068" rx="1" transform="translate(0 16.536)"/><rect class="d" width="35.792" height="4.068" rx="1" transform="translate(0 22.348)"/><rect class="d" width="35.792" height="4.068" rx="1" transform="translate(0 28.159)"/><path class="a" d="M29.75,13.8V12H31.5v1.8a7.885,7.885,0,0,1,6.948,6.949h1.8V22.5H21v-1.75h1.8A7.885,7.885,0,0,1,29.75,13.8Zm.875,1.7a6.13,6.13,0,0,0-6.055,5.251H36.679A6.13,6.13,0,0,0,30.625,15.5Z" transform="translate(30.409 0.405)"/><path class="a" d="M21.875,28h17.5a.875.875,0,0,1,.875.875v3.5a.875.875,0,0,1-.875.875h-17.5A.875.875,0,0,1,21,32.376v-3.5A.875.875,0,0,1,21.875,28Zm.875,3.5H38.5V29.75H22.75Z" transform="translate(30.409 -4.631)"/></g><g transform="translate(5.84 20.015)"><rect class="b" width="42.08" height="41.72" rx="3" transform="translate(40.2)"/><rect class="c" width="17.433" height="4.068" rx="1" transform="translate(18.358 10.725)"/><rect class="d" width="35.792" height="4.068" rx="1" transform="translate(0 16.536)"/><rect class="d" width="35.792" height="4.068" rx="1" transform="translate(0 22.348)"/><rect class="d" width="35.792" height="4.068" rx="1" transform="translate(0 28.159)"/><path class="a" d="M29.75,13.8V12H31.5v1.8a7.885,7.885,0,0,1,6.948,6.949h1.8V22.5H21v-1.75h1.8A7.885,7.885,0,0,1,29.75,13.8Zm.875,1.7a6.13,6.13,0,0,0-6.055,5.251H36.679A6.13,6.13,0,0,0,30.625,15.5Z" transform="translate(30.409 0.405)"/><path class="a" d="M21.875,28h17.5a.875.875,0,0,1,.875.875v3.5a.875.875,0,0,1-.875.875h-17.5A.875.875,0,0,1,21,32.376v-3.5A.875.875,0,0,1,21.875,28Zm.875,3.5H38.5V29.75H22.75Z" transform="translate(30.409 -4.631)"/></g><g transform="translate(94.263 69.798)"><rect class="b" width="42.08" height="41.72" rx="3" transform="translate(40.2)"/><rect class="c" width="17.433" height="4.068" rx="1" transform="translate(18.358 10.725)"/><rect class="d" width="35.792" height="4.068" rx="1" transform="translate(0 16.536)"/><rect class="d" width="35.792" height="4.068" rx="1" transform="translate(0 22.348)"/><rect class="d" width="35.792" height="4.068" rx="1" transform="translate(0 28.159)"/><path class="a" d="M29.75,13.8V12H31.5v1.8a7.885,7.885,0,0,1,6.948,6.949h1.8V22.5H21v-1.75h1.8A7.885,7.885,0,0,1,29.75,13.8Zm.875,1.7a6.13,6.13,0,0,0-6.055,5.251H36.679A6.13,6.13,0,0,0,30.625,15.5Z" transform="translate(30.409 0.405)"/><path class="a" d="M21.875,28h17.5a.875.875,0,0,1,.875.875v3.5a.875.875,0,0,1-.875.875h-17.5A.875.875,0,0,1,21,32.376v-3.5A.875.875,0,0,1,21.875,28Zm.875,3.5H38.5V29.75H22.75Z" transform="translate(30.409 -4.631)"/></g><g transform="translate(5.84 69.798)"><rect class="b" width="42.08" height="41.72" rx="3" transform="translate(40.2)"/><rect class="c" width="17.433" height="4.068" rx="1" transform="translate(18.358 10.725)"/><rect class="d" width="35.792" height="4.068" rx="1" transform="translate(0 16.536)"/><rect class="d" width="35.792" height="4.068" rx="1" transform="translate(0 22.348)"/><rect class="d" width="35.792" height="4.068" rx="1" transform="translate(0 28.159)"/><path class="a" d="M29.75,13.8V12H31.5v1.8a7.885,7.885,0,0,1,6.948,6.949h1.8V22.5H21v-1.75h1.8A7.885,7.885,0,0,1,29.75,13.8Zm.875,1.7a6.13,6.13,0,0,0-6.055,5.251H36.679A6.13,6.13,0,0,0,30.625,15.5Z" transform="translate(30.409 0.405)"/><path class="a" d="M21.875,28h17.5a.875.875,0,0,1,.875.875v3.5a.875.875,0,0,1-.875.875h-17.5A.875.875,0,0,1,21,32.376v-3.5A.875.875,0,0,1,21.875,28Zm.875,3.5H38.5V29.75H22.75Z" transform="translate(30.409 -4.631)"/></g><g transform="translate(94.263 119.581)"><rect class="b" width="42.08" height="41.72" rx="3" transform="translate(40.2)"/><rect class="c" width="17.433" height="4.068" rx="1" transform="translate(18.358 10.725)"/><rect class="d" width="35.792" height="4.068" rx="1" transform="translate(0 16.536)"/><rect class="d" width="35.792" height="4.068" rx="1" transform="translate(0 22.348)"/><rect class="d" width="35.792" height="4.068" rx="1" transform="translate(0 28.159)"/><path class="a" d="M29.75,13.8V12H31.5v1.8a7.885,7.885,0,0,1,6.948,6.949h1.8V22.5H21v-1.75h1.8A7.885,7.885,0,0,1,29.75,13.8Zm.875,1.7a6.13,6.13,0,0,0-6.055,5.251H36.679A6.13,6.13,0,0,0,30.625,15.5Z" transform="translate(30.409 0.405)"/><path class="a" d="M21.875,28h17.5a.875.875,0,0,1,.875.875v3.5a.875.875,0,0,1-.875.875h-17.5A.875.875,0,0,1,21,32.376v-3.5A.875.875,0,0,1,21.875,28Zm.875,3.5H38.5V29.75H22.75Z" transform="translate(30.409 -4.631)"/></g><g transform="translate(5.84 119.581)"><rect class="b" width="42.08" height="41.72" rx="3" transform="translate(40.2)"/><rect class="c" width="17.433" height="4.068" rx="1" transform="translate(18.358 10.725)"/><rect class="d" width="35.792" height="4.068" rx="1" transform="translate(0 16.536)"/><rect class="d" width="35.792" height="4.068" rx="1" transform="translate(0 22.348)"/><rect class="d" width="35.792" height="4.068" rx="1" transform="translate(0 28.159)"/><path class="a" d="M29.75,13.8V12H31.5v1.8a7.885,7.885,0,0,1,6.948,6.949h1.8V22.5H21v-1.75h1.8A7.885,7.885,0,0,1,29.75,13.8Zm.875,1.7a6.13,6.13,0,0,0-6.055,5.251H36.679A6.13,6.13,0,0,0,30.625,15.5Z" transform="translate(30.409 0.405)"/><path class="a" d="M21.875,28h17.5a.875.875,0,0,1,.875.875v3.5a.875.875,0,0,1-.875.875h-17.5A.875.875,0,0,1,21,32.376v-3.5A.875.875,0,0,1,21.875,28Zm.875,3.5H38.5V29.75H22.75Z" transform="translate(30.409 -4.631)"/></g></g></svg>