<svg xmlns="http://www.w3.org/2000/svg" xmlns:xlink="http://www.w3.org/1999/xlink" width="202" height="198" viewBox="0 0 202 198"><defs><style>.a{fill:#fff;}.b,.c,.d{fill:#a2a2a2;}.c{opacity:0.88;}.d{opacity:0.45;}.e{filter:url(#a);}</style><filter id="a" x="0" y="0" width="202" height="198" filterUnits="userSpaceOnUse"><feOffset dy="3" input="SourceAlpha"/><feGaussianBlur stdDeviation="3" result="b"/><feFlood flood-opacity="0.161"/><feComposite operator="in" in2="b"/><feComposite in="SourceGraphic"/></filter></defs><g transform="translate(8.802 5.536)"><g class="e" transform="matrix(1, 0, 0, 1, -8.8, -5.54)"><rect class="a" width="184" height="180" rx="6" transform="translate(9 6)"/></g><g transform="translate(126.629 13.304)"><rect class="b" width="45.031" height="44.646" rx="3" transform="translate(0)"/><rect class="c" width="24.874" height="4.353" rx="1" transform="translate(20.157 48.789)"/><rect class="d" width="43.53" height="4.353" rx="1" transform="translate(1.501 55.008)"/><rect class="d" width="43.53" height="4.353" rx="1" transform="translate(1.501 61.226)"/><rect class="d" width="43.53" height="4.353" rx="1" transform="translate(1.501 67.445)"/><path class="a" d="M30.363,13.928V12h1.873v1.928a8.438,8.438,0,0,1,7.435,7.437H41.6v1.873H21V21.365h1.928a8.438,8.438,0,0,1,7.435-7.437Zm.936,1.818a6.56,6.56,0,0,0-6.479,5.619H37.779A6.56,6.56,0,0,0,31.3,15.746Z" transform="translate(-9.005 1.275)"/><path class="a" d="M21.936,28H40.663a.936.936,0,0,1,.936.937v3.746a.936.936,0,0,1-.936.936H21.936A.936.936,0,0,1,21,32.682V28.937A.936.936,0,0,1,21.936,28Zm.936,3.746H39.726V29.873H22.873Z" transform="translate(-9.005 -2.992)"/></g><g transform="translate(126.629 99.18)"><rect class="b" width="45.031" height="44.646" rx="3" transform="translate(0)"/><rect class="c" width="24.874" height="4.353" rx="1" transform="translate(20.157 48.789)"/><rect class="d" width="43.53" height="4.353" rx="1" transform="translate(1.501 55.008)"/><rect class="d" width="43.53" height="4.353" rx="1" transform="translate(1.501 61.226)"/><rect class="d" width="43.53" height="4.353" rx="1" transform="translate(1.501 67.445)"/><path class="a" d="M30.363,13.928V12h1.873v1.928a8.438,8.438,0,0,1,7.435,7.437H41.6v1.873H21V21.365h1.928a8.438,8.438,0,0,1,7.435-7.437Zm.936,1.818a6.56,6.56,0,0,0-6.479,5.619H37.779A6.56,6.56,0,0,0,31.3,15.746Z" transform="translate(-9.005 1.275)"/><path class="a" d="M21.936,28H40.663a.936.936,0,0,1,.936.937v3.746a.936.936,0,0,1-.936.936H21.936A.936.936,0,0,1,21,32.682V28.937A.936.936,0,0,1,21.936,28Zm.936,3.746H39.726V29.873H22.873Z" transform="translate(-9.005 -2.992)"/></g><g transform="translate(69.378 13.304)"><rect class="b" width="45.031" height="44.646" rx="3" transform="translate(0)"/><rect class="c" width="24.874" height="4.353" rx="1" transform="translate(20.157 48.789)"/><rect class="d" width="43.53" height="4.353" rx="1" transform="translate(1.501 55.008)"/><rect class="d" width="43.53" height="4.353" rx="1" transform="translate(1.501 61.226)"/><rect class="d" width="43.53" height="4.353" rx="1" transform="translate(1.501 67.445)"/><path class="a" d="M30.363,13.928V12h1.873v1.928a8.438,8.438,0,0,1,7.435,7.437H41.6v1.873H21V21.365h1.928a8.438,8.438,0,0,1,7.435-7.437Zm.936,1.818a6.56,6.56,0,0,0-6.479,5.619H37.779A6.56,6.56,0,0,0,31.3,15.746Z" transform="translate(-9.005 1.275)"/><path class="a" d="M21.936,28H40.663a.936.936,0,0,1,.936.937v3.746a.936.936,0,0,1-.936.936H21.936A.936.936,0,0,1,21,32.682V28.937A.936.936,0,0,1,21.936,28Zm.936,3.746H39.726V29.873H22.873Z" transform="translate(-9.005 -2.992)"/></g><g transform="translate(69.378 99.18)"><rect class="b" width="45.031" height="44.646" rx="3" transform="translate(0)"/><rect class="c" width="24.874" height="4.353" rx="1" transform="translate(20.157 48.789)"/><rect class="d" width="43.53" height="4.353" rx="1" transform="translate(1.501 55.008)"/><rect class="d" width="43.53" height="4.353" rx="1" transform="translate(1.501 61.226)"/><rect class="d" width="43.53" height="4.353" rx="1" transform="translate(1.501 67.445)"/><path class="a" d="M30.363,13.928V12h1.873v1.928a8.438,8.438,0,0,1,7.435,7.437H41.6v1.873H21V21.365h1.928a8.438,8.438,0,0,1,7.435-7.437Zm.936,1.818a6.56,6.56,0,0,0-6.479,5.619H37.779A6.56,6.56,0,0,0,31.3,15.746Z" transform="translate(-9.005 1.275)"/><path class="a" d="M21.936,28H40.663a.936.936,0,0,1,.936.937v3.746a.936.936,0,0,1-.936.936H21.936A.936.936,0,0,1,21,32.682V28.937A.936.936,0,0,1,21.936,28Zm.936,3.746H39.726V29.873H22.873Z" transform="translate(-9.005 -2.992)"/></g><g transform="translate(12.127 13.304)"><rect class="b" width="45.031" height="44.646" rx="3" transform="translate(0)"/><rect class="c" width="24.874" height="4.353" rx="1" transform="translate(20.157 48.789)"/><rect class="d" width="43.53" height="4.353" rx="1" transform="translate(1.501 55.008)"/><rect class="d" width="43.53" height="4.353" rx="1" transform="translate(1.501 61.226)"/><rect class="d" width="43.53" height="4.353" rx="1" transform="translate(1.501 67.445)"/><path class="a" d="M30.363,13.928V12h1.873v1.928a8.438,8.438,0,0,1,7.435,7.437H41.6v1.873H21V21.365h1.928a8.438,8.438,0,0,1,7.435-7.437Zm.936,1.818a6.56,6.56,0,0,0-6.479,5.619H37.779A6.56,6.56,0,0,0,31.3,15.746Z" transform="translate(-9.005 1.275)"/><path class="a" d="M21.936,28H40.663a.936.936,0,0,1,.936.937v3.746a.936.936,0,0,1-.936.936H21.936A.936.936,0,0,1,21,32.682V28.937A.936.936,0,0,1,21.936,28Zm.936,3.746H39.726V29.873H22.873Z" transform="translate(-9.005 -2.992)"/></g><g transform="translate(12.127 99.18)"><rect class="b" width="45.031" height="44.646" rx="3" transform="translate(0)"/><rect class="c" width="24.874" height="4.353" rx="1" transform="translate(20.157 48.789)"/><rect class="d" width="43.53" height="4.353" rx="1" transform="translate(1.501 55.008)"/><rect class="d" width="43.53" height="4.353" rx="1" transform="translate(1.501 61.226)"/><rect class="d" width="43.53" height="4.353" rx="1" transform="translate(1.501 67.445)"/><path class="a" d="M30.363,13.928V12h1.873v1.928a8.438,8.438,0,0,1,7.435,7.437H41.6v1.873H21V21.365h1.928a8.438,8.438,0,0,1,7.435-7.437Zm.936,1.818a6.56,6.56,0,0,0-6.479,5.619H37.779A6.56,6.56,0,0,0,31.3,15.746Z" transform="translate(-9.005 1.275)"/><path class="a" d="M21.936,28H40.663a.936.936,0,0,1,.936.937v3.746a.936.936,0,0,1-.936.936H21.936A.936.936,0,0,1,21,32.682V28.937A.936.936,0,0,1,21.936,28Zm.936,3.746H39.726V29.873H22.873Z" transform="translate(-9.005 -2.992)"/></g></g></svg>