<svg xmlns="http://www.w3.org/2000/svg" xmlns:xlink="http://www.w3.org/1999/xlink" width="167" height="168" viewBox="0 0 167 168"><defs><style>.a{fill:#1aa6b7;}.b{fill:#ecf8f9;}.c{filter:url(#a);}</style><filter id="a" x="0" y="0" width="167" height="168" filterUnits="userSpaceOnUse"><feOffset dy="3" input="SourceAlpha"/><feGaussianBlur stdDeviation="3" result="b"/><feFlood flood-opacity="0.161"/><feComposite operator="in" in2="b"/><feComposite in="SourceGraphic"/></filter></defs><g transform="translate(9.19 5.946)"><g class="c" transform="matrix(1, 0, 0, 1, -9.19, -5.95)"><ellipse class="a" cx="74.5" cy="75" rx="74.5" ry="75" transform="translate(9 6)"/></g><g transform="translate(28.319 22.094)"><path class="b" d="M99.777,0H20.319a1.476,1.476,0,0,0-1.476,1.476v12.67H14.61A4.855,4.855,0,0,0,9.76,19v2.336a4.855,4.855,0,0,0,4.85,4.85h4.233V36.688H14.61a4.855,4.855,0,0,0-4.85,4.85v2.335a4.855,4.855,0,0,0,4.85,4.85h4.233V59.235H14.61a4.855,4.855,0,0,0-4.85,4.85v2.336a4.855,4.855,0,0,0,4.85,4.85h4.233V81.78H14.61a4.855,4.855,0,0,0-4.85,4.85v2.335a4.855,4.855,0,0,0,4.85,4.85h4.233V106.48a1.476,1.476,0,0,0,1.476,1.476H99.777a1.476,1.476,0,0,0,1.476-1.476v-105A1.476,1.476,0,0,0,99.777,0ZM14.61,23.229a1.9,1.9,0,0,1-1.9-1.9V19a1.9,1.9,0,0,1,1.9-1.9h4.233v6.132Zm0,22.544a1.9,1.9,0,0,1-1.9-1.9V41.54a1.9,1.9,0,0,1,1.9-1.9h4.233v6.131Zm0,22.543a1.9,1.9,0,0,1-1.9-1.9V64.082a1.9,1.9,0,0,1,1.9-1.9h4.233v6.132Zm0,22.544a1.9,1.9,0,0,1-1.9-1.9V86.627a1.9,1.9,0,0,1,1.9-1.9h4.233V90.86ZM98.3,105H21.795V2.952H98.3Z" transform="translate(-9.76)"/><path class="b" d="M32,68.682H94.6a1.476,1.476,0,0,0,1.476-1.476V60.722A1.477,1.477,0,0,0,94.6,59.246H90.79v-1.13A27.538,27.538,0,0,0,71.469,31.862c.009-.159.029-.318.029-.475a8.2,8.2,0,1,0-16.394,0c0,.157.019.316.029.475A27.539,27.539,0,0,0,35.81,58.116v1.13H32a1.477,1.477,0,0,0-1.476,1.476v6.484A1.476,1.476,0,0,0,32,68.682Zm31.3-42.54a5.248,5.248,0,0,1,5.229,4.986,27.341,27.341,0,0,0-10.463,0A5.247,5.247,0,0,1,63.3,26.142ZM38.762,58.116a24.538,24.538,0,0,1,49.076,0v1.13H38.762ZM33.481,62.2H93.119V65.73H33.481Z" transform="translate(-13.012 -3.631)"/><path class="b" d="M32,86.267H94.6a1.476,1.476,0,0,0,0-2.952H32a1.476,1.476,0,0,0,0,2.952Z" transform="translate(-13.012 -13.046)"/><path class="b" d="M32,95.267H94.6a1.476,1.476,0,0,0,0-2.952H32a1.476,1.476,0,0,0,0,2.952Z" transform="translate(-13.012 -14.456)"/><path class="b" d="M88.249,101.315h-47a1.476,1.476,0,0,0,0,2.952h47a1.476,1.476,0,0,0,0-2.952Z" transform="translate(-14.459 -15.865)"/></g></g></svg>