<svg xmlns="http://www.w3.org/2000/svg" width="97.611" height="97.611" viewBox="0 0 97.611 97.611"><defs><style>.a{fill:#1aa6b7;}</style></defs><g transform="translate(-16 -16)"><path class="a" d="M111.984,16H17.627A1.627,1.627,0,0,0,16,17.627v95.984h3.254V48.537H107.1V45.283H90.835v-3.3a7.327,7.327,0,0,0,6.507-7.272v-3.26a7.326,7.326,0,0,0-7.318-7.318H88.392a7.326,7.326,0,0,0-7.318,7.318v3.26a7.327,7.327,0,0,0,6.507,7.272v3.3H71.313V42.03h1.5a5.013,5.013,0,0,0,5.007-5.007V27.388H74.567v9.634a1.756,1.756,0,0,1-1.754,1.754h-1.5V27.388H68.059V38.776h-1.5a1.756,1.756,0,0,1-1.754-1.754V27.388H61.552v9.634a5.013,5.013,0,0,0,5.007,5.007h1.5v3.254H51.791V38.652A13.019,13.019,0,0,0,58.3,27.388a1.627,1.627,0,0,0-1.627-1.627H33.9a1.627,1.627,0,0,0-1.627,1.627,13.019,13.019,0,0,0,6.507,11.264v6.631H19.254V19.254h91.1v91.685H16v2.672h97.611V17.627A1.627,1.627,0,0,0,111.984,16ZM84.328,34.712v-3.26a4.069,4.069,0,0,1,4.064-4.064h1.633a4.069,4.069,0,0,1,4.064,4.064v3.26a4.069,4.069,0,0,1-4.064,4.064H88.392A4.069,4.069,0,0,1,84.328,34.712Zm-48.67-5.7H54.909a9.762,9.762,0,0,1-19.251,0ZM42.03,39.991a13.06,13.06,0,0,0,6.507,0v5.292H42.03Z"/><path class="a" d="M60.762,216.269h6.745a4.767,4.767,0,0,0,4.762-4.762v-6.745A4.768,4.768,0,0,0,67.507,200H60.762A4.767,4.767,0,0,0,56,204.762v6.745A4.767,4.767,0,0,0,60.762,216.269Zm-1.508-11.507a1.51,1.51,0,0,1,1.508-1.508h6.745a1.51,1.51,0,0,1,1.508,1.508v6.745a1.51,1.51,0,0,1-1.508,1.508H60.762a1.51,1.51,0,0,1-1.508-1.508Z" transform="translate(-19.664 -146.582)"/><path class="a" d="M152,232h3.254v3.254H152Z" transform="translate(-96.142 -172.075)"/><path class="a" d="M184,232h17.9v3.254H184Z" transform="translate(-121.635 -172.075)"/><path class="a" d="M289.627,225.761h6.507a1.627,1.627,0,0,0,1.627-1.627v-6.507A1.627,1.627,0,0,0,296.134,216h-6.507A1.627,1.627,0,0,0,288,217.627v6.507A1.627,1.627,0,0,0,289.627,225.761Zm1.627-6.507h3.254v3.254h-3.254Z" transform="translate(-204.486 -159.329)"/><path class="a" d="M56,307.507a4.767,4.767,0,0,0,4.762,4.762h6.745a4.767,4.767,0,0,0,4.762-4.762v-6.745A4.768,4.768,0,0,0,67.507,296H60.762A4.768,4.768,0,0,0,56,300.762Zm3.254-6.745a1.51,1.51,0,0,1,1.508-1.508h6.745a1.51,1.51,0,0,1,1.508,1.508v6.745a1.51,1.51,0,0,1-1.508,1.508H60.762a1.51,1.51,0,0,1-1.508-1.508Z" transform="translate(-19.664 -223.06)"/><path class="a" d="M152,328h3.254v3.254H152Z" transform="translate(-96.142 -248.553)"/><path class="a" d="M184,328h17.9v3.254H184Z" transform="translate(-121.635 -248.553)"/><path class="a" d="M288,320.134a1.627,1.627,0,0,0,1.627,1.627h6.507a1.627,1.627,0,0,0,1.627-1.627v-6.507A1.627,1.627,0,0,0,296.134,312h-6.507A1.627,1.627,0,0,0,288,313.627Zm3.254-4.881h3.254v3.254h-3.254Z" transform="translate(-204.486 -235.806)"/><path class="a" d="M72.269,403.507v-6.745A4.768,4.768,0,0,0,67.507,392H60.762A4.768,4.768,0,0,0,56,396.762v6.745a4.768,4.768,0,0,0,4.762,4.762h6.745A4.768,4.768,0,0,0,72.269,403.507Zm-13.015,0v-6.745a1.51,1.51,0,0,1,1.508-1.508h6.745a1.51,1.51,0,0,1,1.508,1.508v6.745a1.51,1.51,0,0,1-1.508,1.508H60.762A1.51,1.51,0,0,1,59.254,403.507Z" transform="translate(-19.664 -299.538)"/><path class="a" d="M152,424h3.254v3.254H152Z" transform="translate(-96.142 -325.03)"/><path class="a" d="M184,424h17.9v3.254H184Z" transform="translate(-121.635 -325.03)"/><path class="a" d="M288,416.134a1.627,1.627,0,0,0,1.627,1.627h6.507a1.627,1.627,0,0,0,1.627-1.627v-6.507A1.627,1.627,0,0,0,296.134,408h-6.507A1.627,1.627,0,0,0,288,409.627Zm3.254-4.881h3.254v3.254h-3.254Z" transform="translate(-204.486 -312.284)"/></g></svg>