<svg xmlns="http://www.w3.org/2000/svg" width="97.611" height="97.611" viewBox="0 0 97.611 97.611"><defs><style>.a{fill:#1aa6b7;}</style></defs><g transform="translate(-16 -16)"><path class="a" d="M111.984,16H17.627A1.627,1.627,0,0,0,16,17.627v95.984h3.254V48.537h0V45.283h0V19.254h91.1v91.685H16v2.672h97.611V17.627A1.627,1.627,0,0,0,111.984,16Z"/><path class="a" d="M60.762,216.269h6.745a4.767,4.767,0,0,0,4.762-4.762v-6.745A4.768,4.768,0,0,0,67.507,200H60.762A4.767,4.767,0,0,0,56,204.762v6.745A4.767,4.767,0,0,0,60.762,216.269Zm-1.508-11.507a1.51,1.51,0,0,1,1.508-1.508h6.745a1.51,1.51,0,0,1,1.508,1.508v6.745a1.51,1.51,0,0,1-1.508,1.508H60.762a1.51,1.51,0,0,1-1.508-1.508Z" transform="translate(-31 -170.389)"/><path class="a" d="M60.762,216.269h6.745a4.767,4.767,0,0,0,4.762-4.762v-6.745A4.768,4.768,0,0,0,67.507,200H60.762A4.767,4.767,0,0,0,56,204.762v6.745A4.767,4.767,0,0,0,60.762,216.269Zm-1.508-11.507a1.51,1.51,0,0,1,1.508-1.508h6.745a1.51,1.51,0,0,1,1.508,1.508v6.745a1.51,1.51,0,0,1-1.508,1.508H60.762a1.51,1.51,0,0,1-1.508-1.508Z" transform="translate(15 -170.389)"/><path class="a" d="M184,232h11.6v3.254H184Z" transform="translate(-137.971 -195.881)"/><path class="a" d="M184,232h11.6v3.254H184Z" transform="translate(-91.971 -195.881)"/><path class="a" d="M56,307.507a4.767,4.767,0,0,0,4.762,4.762h6.745a4.767,4.767,0,0,0,4.762-4.762v-6.745A4.768,4.768,0,0,0,67.507,296H60.762A4.768,4.768,0,0,0,56,300.762Zm3.254-6.745a1.51,1.51,0,0,1,1.508-1.508h6.745a1.51,1.51,0,0,1,1.508,1.508v6.745a1.51,1.51,0,0,1-1.508,1.508H60.762a1.51,1.51,0,0,1-1.508-1.508Z" transform="translate(-31 -239.388)"/><path class="a" d="M56,307.507a4.767,4.767,0,0,0,4.762,4.762h6.745a4.767,4.767,0,0,0,4.762-4.762v-6.745A4.768,4.768,0,0,0,67.507,296H60.762A4.768,4.768,0,0,0,56,300.762Zm3.254-6.745a1.51,1.51,0,0,1,1.508-1.508h6.745a1.51,1.51,0,0,1,1.508,1.508v6.745a1.51,1.51,0,0,1-1.508,1.508H60.762a1.51,1.51,0,0,1-1.508-1.508Z" transform="translate(15 -239.388)"/><path class="a" d="M184,328h11.6v3.254H184Z" transform="translate(-137.971 -264.881)"/><path class="a" d="M184,328h11.6v3.254H184Z" transform="translate(-91.971 -264.881)"/><path class="a" d="M72.269,403.507v-6.745A4.768,4.768,0,0,0,67.507,392H60.762A4.768,4.768,0,0,0,56,396.762v6.745a4.768,4.768,0,0,0,4.762,4.762h6.745A4.768,4.768,0,0,0,72.269,403.507Zm-13.015,0v-6.745a1.51,1.51,0,0,1,1.508-1.508h6.745a1.51,1.51,0,0,1,1.508,1.508v6.745a1.51,1.51,0,0,1-1.508,1.508H60.762A1.51,1.51,0,0,1,59.254,403.507Z" transform="translate(-31 -308.389)"/><path class="a" d="M72.269,403.507v-6.745A4.768,4.768,0,0,0,67.507,392H60.762A4.768,4.768,0,0,0,56,396.762v6.745a4.768,4.768,0,0,0,4.762,4.762h6.745A4.768,4.768,0,0,0,72.269,403.507Zm-13.015,0v-6.745a1.51,1.51,0,0,1,1.508-1.508h6.745a1.51,1.51,0,0,1,1.508,1.508v6.745a1.51,1.51,0,0,1-1.508,1.508H60.762A1.51,1.51,0,0,1,59.254,403.507Z" transform="translate(15 -308.389)"/><path class="a" d="M184,424h11.6v3.254H184Z" transform="translate(-137.971 -333.883)"/><path class="a" d="M184,424h11.6v3.254H184Z" transform="translate(-91.971 -333.883)"/></g></svg>