<svg xmlns="http://www.w3.org/2000/svg" width="75.184" height="84.959" viewBox="0 0 75.184 84.959"><defs><style>.a{fill:#1aa6b7;}</style></defs><g transform="translate(-11 -2)"><path class="a" d="M69.441,2H22.259C18.25,2,15,4.536,15,7.664V81.3c0,3.128,3.25,5.664,7.259,5.664H69.441c4.009,0,7.259-2.536,7.259-5.664V7.664C76.7,4.536,73.45,2,69.441,2ZM73.07,81.3c0,1.564-1.625,2.832-3.629,2.832H22.259c-2,0-3.629-1.268-3.629-2.832V7.664c0-1.564,1.625-2.832,3.629-2.832H69.441c2,0,3.629,1.268,3.629,2.832Z" transform="translate(2.742 0)"/><path class="a" d="M33,6h3.371V8.915H33Z" transform="translate(17.497 1.83)"/><path class="a" d="M31,56h3.371v2.915H31Z" transform="translate(15.906 22.213)"/><path class="a" d="M29,6h3.371V8.915H29Z" transform="translate(14.316 1.83)"/><path class="a" d="M43.622,15V12h-3.77v3c-7.87.688-14.08,5.49-14.97,11.575H21v2.915H62.474V26.576H58.593C57.7,20.491,51.492,15.69,43.622,15ZM41.737,17.83c6.552.01,12.1,3.732,13.046,8.746H28.692C29.632,21.562,35.185,17.84,41.737,17.83Z" transform="translate(6.855 4.056)"/><path class="a" d="M60.589,28h-37.7A1.713,1.713,0,0,0,21,29.458v5.83a1.713,1.713,0,0,0,1.885,1.458h37.7a1.713,1.713,0,0,0,1.885-1.458v-5.83A1.713,1.713,0,0,0,60.589,28ZM58.7,33.83H24.77V30.915H58.7Z" transform="translate(6.855 10.695)"/><path class="a" d="M21,38h3.371v2.915H21Z" transform="translate(7.953 14.924)"/><path class="a" d="M25,38H55.338v2.915H25Z" transform="translate(12.16 14.924)"/><path class="a" d="M21,42h3.371v2.915H21Z" transform="translate(7.953 16.582)"/><path class="a" d="M25,42H55.338v2.915H25Z" transform="translate(12.16 16.582)"/><path class="a" d="M21,46h3.371v2.915H21Z" transform="translate(7.953 18.24)"/><path class="a" d="M25,46H55.338v2.915H25Z" transform="translate(12.16 18.24)"/><path class="a" d="M21,50h3.371v2.915H21Z" transform="translate(7.953 19.898)"/><path class="a" d="M25,50H55.338v2.915H25Z" transform="translate(12.16 19.898)"/><path class="a" d="M11,7h3.371V41.982H11Z" transform="translate(0 2.288)"/><path class="a" d="M11,33h3.371v2.915H11Z" transform="translate(0 12.851)"/><path class="a" d="M51,33h3.371V67.982H51Z" transform="translate(31.813 11.689)"/></g></svg>