<svg xmlns="http://www.w3.org/2000/svg" width="722" height="672.462" viewBox="0 0 722 672.462">
  <g id="no_result_found" data-name="no result found" transform="translate(0 503.682)">
    <g id="g12" transform="translate(0 -600.22)">
      <path id="path14" d="M295.761-229.412,161.087-139.335,28.455-337.636l134.673-90.077,132.632,198.3" transform="translate(-2.838 582.98)" fill="#f3f2f1"/>
      <path id="path16" d="M240.521-218.938l-1.529,9.459-66.948-9.646,1.529-9.457,66.948,9.644" transform="translate(-17.173 563.103)" fill="#dadbd8"/>
      <path id="path18" d="M209.478-255.353l9.606,1.39-10.65,65.919-9.606-1.39,10.65-65.919" transform="translate(-19.846 565.774)" fill="#dadbd8"/>
      <path id="path20" d="M135.436-348.416c.1.145-13.4,9.332-30.14,20.536S74.9-307.719,74.8-307.87s13.4-9.332,30.142-20.538,30.392-20.159,30.488-20.016" transform="translate(-7.47 575.062)" fill="#dadbd8"/>
      <path id="path22" d="M186.02-362.231c.1.145-22.347,15.324-50.12,33.9s-50.378,33.527-50.474,33.384,22.343-15.32,50.126-33.9,50.372-33.525,50.468-33.38" transform="translate(-8.527 576.444)" fill="#dadbd8"/>
      <path id="path24" d="M197.049-345.744c.1.145-22.347,15.324-50.12,33.9s-50.384,33.529-50.474,33.386,22.343-15.32,50.126-33.9,50.372-33.523,50.468-33.38" transform="translate(-9.629 574.798)" fill="#dadbd8"/>
      <path id="path26" d="M208.077-329.255c.1.145-22.347,15.324-50.12,33.9s-50.378,33.525-50.474,33.382,22.341-15.32,50.126-33.9,50.372-33.523,50.468-33.38" transform="translate(-10.729 573.151)" fill="#dadbd8"/>
      <path id="path28" d="M219.106-312.765c.1.145-22.347,15.324-50.12,33.9s-50.376,33.527-50.474,33.382,22.343-15.318,50.126-33.9,50.372-33.523,50.468-33.38" transform="translate(-11.829 571.505)" fill="#dadbd8"/>
      <path id="path30" d="M777.167-113.539l-113.1,75.648L552.677-204.428l113.1-75.648L777.165-113.537" transform="translate(-55.167 568.241)" fill="#f3f2f1"/>
      <path id="path32" d="M730.774-104.74,729.492-96.8l-56.224-8.1,1.285-7.942,56.222,8.1" transform="translate(-67.206 551.548)" fill="#dadbd8"/>
      <path id="path34" d="M704.706-135.321l8.067,1.162L703.828-78.8l-8.067-1.162,8.947-55.356" transform="translate(-69.451 553.793)" fill="#dadbd8"/>
      <path id="path36" d="M642.519-213.482c.1.143-11.224,7.882-25.284,17.288S591.7-179.28,591.6-179.424s11.224-7.882,25.289-17.29,25.536-16.913,25.631-16.768" transform="translate(-59.054 561.596)" fill="#dadbd8"/>
      <path id="path38" d="M685-225.082c.1.143-18.739,12.906-42.065,28.512s-42.321,28.139-42.416,28,18.735-12.906,42.069-28.512,42.317-28.137,42.412-28" transform="translate(-59.944 562.752)" fill="#dadbd8"/>
      <path id="path40" d="M694.267-211.233c.1.143-18.741,12.906-42.065,28.512s-42.321,28.137-42.419,28,18.735-12.906,42.071-28.514,42.317-28.137,42.413-28" transform="translate(-60.87 561.37)" fill="#dadbd8"/>
      <path id="path42" d="M703.533-197.385c.1.143-18.739,12.906-42.065,28.512s-42.321,28.137-42.417,28,18.735-12.906,42.069-28.514,42.317-28.137,42.412-28" transform="translate(-61.789 559.987)" fill="#dadbd8"/>
      <path id="path44" d="M712.791-183.537c.1.145-18.739,12.906-42.065,28.512s-42.321,28.139-42.416,28,18.735-12.906,42.069-28.516,42.317-28.137,42.412-28" transform="translate(-62.718 558.604)" fill="#dadbd8"/>
      <path id="path46" d="M357.9-245.25,234.5-311.245l97.181-181.712,123.408,66L357.9-245.25" transform="translate(-23.402 589.494)" fill="#f3f2f1"/>
      <path id="path48" d="M366.741-243.99l-13.962,4.781-35.435-97.965,13.96-4.781,35.437,97.965" transform="translate(-52.404 540.996)" fill="#dadbd8"/>
      <path id="path50" d="M398.131-324.707l5.085,14.057-97.29,33.321-5.085-14.059,97.29-33.319" transform="translate(-62.389 551.434)" fill="#dadbd8"/>
      <path id="path52" d="M398.356-418.051c-.1.181-12.614-6.326-27.954-14.528s-27.7-15-27.6-15.183,12.61,6.324,27.956,14.53,27.7,15,27.6,15.183" transform="translate(-34.217 584.984)" fill="#dadbd8"/>
      <path id="path54" d="M427.2-383.912c-.1.181-20.812-10.708-46.262-24.321s-46.014-24.8-45.917-24.978,20.808,10.708,46.262,24.323,46.008,24.8,45.913,24.974" transform="translate(-33.443 583.529)" fill="#dadbd8"/>
      <path id="path56" d="M419.116-368.8c-.1.181-20.81-10.708-46.262-24.32s-46.014-24.8-45.917-24.978,20.808,10.708,46.262,24.325,46.008,24.8,45.911,24.974" transform="translate(-32.636 582.021)" fill="#dadbd8"/>
      <path id="path58" d="M411.034-353.695c-.1.181-20.81-10.708-46.262-24.321s-46.014-24.8-45.917-24.978,20.808,10.708,46.262,24.325,46.01,24.8,45.911,24.974" transform="translate(-31.83 580.511)" fill="#dadbd8"/>
      <path id="path60" d="M402.954-338.585c-.1.181-20.81-10.71-46.262-24.32s-46.014-24.8-45.917-24.978,20.808,10.708,46.262,24.323,46.008,24.8,45.911,24.976" transform="translate(-31.023 579.004)" fill="#dadbd8"/>
      <path id="path68" d="M692.944-4.345c0,.173-155.132.314-346.452.314C155.1-4.032,0-4.173,0-4.345s155.1-.312,346.484-.312c191.32,0,346.452.141,346.452.312" transform="translate(0 540.751)" fill="#17282f"/>
      <path id="path70" d="M42.118-87.812a15.124,15.124,0,0,1,10.545,5.4A26.7,26.7,0,0,1,58.024-71.6c2.031,7.591.782,16.547-1.39,24.1C48.418-50.437,43.351-59.2,41.06-63.805,37.438-71.086,35.315-86.44,42.1-87.812" transform="translate(-3.768 549.05)" fill="#f3f2f1"/>
      <path id="path72" d="M71.651-35.217a12.906,12.906,0,0,1-.6-12.946,17.139,17.139,0,0,1,10.325-8.3,7.225,7.225,0,0,1,6.076.29,5.522,5.522,0,0,1,2.125,5.176,11.188,11.188,0,0,1-2.363,5.309c-3.995,5.411-8.853,9.912-15.557,10.466" transform="translate(-6.949 545.968)" fill="#f3f2f1"/>
      <path id="path74" d="M72.59-8.848a9.166,9.166,0,0,1-.367-1.576c-.22-1.126-.5-2.581-.846-4.326a45.3,45.3,0,0,1-.9-14.526A27.737,27.737,0,0,1,75.866-42.74a18.848,18.848,0,0,1,3.117-3.151,11.528,11.528,0,0,1,.979-.7c.23-.151.355-.222.367-.2a29.312,29.312,0,0,0-4.142,4.3,28.623,28.623,0,0,0-5.144,13.3A48.782,48.782,0,0,0,71.774-14.8c.294,1.835.532,3.324.667,4.368a8.511,8.511,0,0,1,.149,1.612" transform="translate(-6.984 544.959)" fill="#17282f"/>
      <path id="path76" d="M45.545-74.979a3.2,3.2,0,0,1,.332.621l.846,1.829c.727,1.588,1.747,3.911,2.978,6.786,2.476,5.748,5.784,13.736,9.239,22.635s6.4,17.04,8.442,22.955c1.025,2.958,1.833,5.361,2.371,7.023l.608,1.922a3.232,3.232,0,0,1,.175.683,3.411,3.411,0,0,1-.284-.645l-.709-1.888L67-20.008c-2.142-5.877-5.144-13.982-8.6-22.883s-6.7-16.9-9.078-22.69L46.52-72.44l-.749-1.87a3.376,3.376,0,0,1-.226-.667" transform="translate(-4.546 547.769)" fill="#17282f"/>
      <path id="path78" d="M58.692-24.894A30.192,30.192,0,0,0,35.263-39.452c-2.428-.179-5.351.232-6.433,2.414s.365,4.765,2.021,6.552a25.794,25.794,0,0,0,27.932,6.244" transform="translate(-2.839 544.228)" fill="#f3f2f1"/>
      <path id="path80" d="M40.127-32.23a7.849,7.849,0,0,1,1.521.058,14.458,14.458,0,0,1,1.775.2,23.623,23.623,0,0,1,2.327.437,26.7,26.7,0,0,1,2.77.768A29.864,29.864,0,0,1,51.605-29.6a33.555,33.555,0,0,1,6.5,3.856,32.887,32.887,0,0,1,5.375,5.317,28.391,28.391,0,0,1,1.894,2.706,24.314,24.314,0,0,1,1.408,2.506,22.329,22.329,0,0,1,.967,2.162,13.617,13.617,0,0,1,.6,1.682,7.745,7.745,0,0,1,.4,1.469c-.121.042-.7-2.055-2.323-5.129a26.411,26.411,0,0,0-1.447-2.438,30.348,30.348,0,0,0-1.9-2.633,34.139,34.139,0,0,0-5.313-5.194,34.9,34.9,0,0,0-6.366-3.818,31.036,31.036,0,0,0-3.02-1.2,28.276,28.276,0,0,0-2.712-.826c-3.375-.852-5.54-.967-5.528-1.09" transform="translate(-4.005 543.507)" fill="#17282f"/>
      <path id="path96" d="M672.386-4.369a2.042,2.042,0,0,1-.361.04l-1.036.068-3.812.177c-3.221.125-7.672.244-12.59.266s-9.374-.058-12.592-.157l-3.814-.145-1.036-.058a2.261,2.261,0,0,1-.361-.036,1.728,1.728,0,0,1,.363-.014h1.036L642-4.167c3.221.054,7.67.1,12.588.083s9.364-.109,12.584-.2l3.814-.1,1.036-.02a1.8,1.8,0,0,1,.363.012" transform="translate(-63.564 540.713)" fill="#17282f"/>
      <path id="path98" d="M644.71-3.992a8.628,8.628,0,0,0-.719-1.817,8.576,8.576,0,0,0-1.3-1.455,2.824,2.824,0,0,1,1.521,1.32,2.829,2.829,0,0,1,.5,1.95" transform="translate(-64.152 541.013)" fill="#17282f"/>
      <path id="path100" d="M651.675-7.338c-.06.038-.357-.322-.663-.794s-.51-.9-.451-.939.357.322.663.794.508.9.451.939" transform="translate(-64.938 541.195)" fill="#17282f"/>
      <path id="path102" d="M653.537-8.275c-.048.052-.379-.167-.741-.49s-.619-.627-.572-.679.377.167.741.49.62.627.572.681" transform="translate(-65.105 541.23)" fill="#17282f"/>
      <path id="path104" d="M654.625-10.352a2.462,2.462,0,0,1-1.094.143,2.466,2.466,0,0,1-1.1-.111,2.5,2.5,0,0,1,1.094-.143,2.487,2.487,0,0,1,1.1.111" transform="translate(-65.126 541.321)" fill="#17282f"/>
      <path id="path106" d="M655-11.913a2.131,2.131,0,0,1-1.219.359,2.12,2.12,0,0,1-1.261-.165,6.893,6.893,0,0,1,1.241-.089A6.68,6.68,0,0,1,655-11.913" transform="translate(-65.134 541.484)" fill="#17282f"/>
      <path id="path108" d="M650.564-9.384a3.929,3.929,0,0,1-1.348,0A7.756,7.756,0,0,1,647.78-9.7a3.935,3.935,0,0,1-.824-.336.73.73,0,0,1-.335-.419.528.528,0,0,1,.2-.538,2.472,2.472,0,0,1,3.062.711,2.418,2.418,0,0,1,.443.9c.056.228.052.361.036.363a3.748,3.748,0,0,0-.617-1.148,2.433,2.433,0,0,0-1.156-.745,2.1,2.1,0,0,0-1.606.115c-.214.159-.129.411.109.552a4.04,4.04,0,0,0,.758.322,9.593,9.593,0,0,0,1.39.355c.808.139,1.322.139,1.322.181" transform="translate(-64.544 541.417)" fill="#17282f"/>
      <path id="path110" d="M650.6-9.379a1.333,1.333,0,0,1-.159-.937,2.206,2.206,0,0,1,.365-.993,1.35,1.35,0,0,1,1.12-.691.536.536,0,0,1,.417.619,1.446,1.446,0,0,1-.227.6,4.04,4.04,0,0,1-.635.818,1.936,1.936,0,0,1-.771.548c-.024-.032.268-.242.64-.671a4.788,4.788,0,0,0,.562-.81c.183-.288.308-.794-.032-.858s-.679.306-.883.576a2.208,2.208,0,0,0-.377.88,4.931,4.931,0,0,0-.02.909" transform="translate(-64.932 541.48)" fill="#17282f"/>
      <path id="path112" d="M675.012-10.769c0,.048-.6-.054-1.549.062A6.773,6.773,0,0,0,670.088-9.3a6.761,6.761,0,0,0-2.1,2.994c-.318.9-.346,1.505-.4,1.5a1.227,1.227,0,0,1,0-.423,5.679,5.679,0,0,1,.224-1.132A6.491,6.491,0,0,1,669.927-9.5a6.491,6.491,0,0,1,3.518-1.39,5.56,5.56,0,0,1,1.153.026,1.286,1.286,0,0,1,.413.093" transform="translate(-66.641 541.371)" fill="#17282f"/>
      <path id="path114" d="M663.933-6.236a11.85,11.85,0,0,1-3.064.29A11.853,11.853,0,0,1,657.8-6.2c0-.073,1.376.016,3.066,0s3.058-.109,3.066-.038" transform="translate(-65.663 540.906)" fill="#17282f"/>
      <path id="path116" d="M669.116-6.284c.052.05-.111.29-.25.6s-.214.6-.286.6-.111-.33.054-.693.439-.554.482-.5" transform="translate(-66.733 540.913)" fill="#17282f"/>
      <path id="path118" d="M670.808-8.435c.05.052-.085.268-.3.488s-.433.361-.482.312.083-.268.3-.49.433-.359.482-.312" transform="translate(-66.881 541.126)" fill="#17282f"/>
      <path id="path120" d="M673.219-9.438c-.014.071-.294.069-.6.181s-.53.274-.586.226.119-.338.5-.467.7,0,.683.06" transform="translate(-67.08 541.239)" fill="#17282f"/>
      <path id="path122" d="M675.036-9.893c.026.066-.1.173-.268.24s-.336.071-.361,0,.1-.175.268-.24.336-.071.361,0" transform="translate(-67.32 541.276)" fill="#17282f"/>
      <path id="path126" d="M727.646-16.651a1.965,1.965,0,0,1-.312.185l-.917.484-3.405,1.725c-2.885,1.436-6.9,3.375-11.375,5.4S703.063-5.07,700.083-3.84l-3.536,1.432-.969.371a1.874,1.874,0,0,1-.346.113,2.033,2.033,0,0,1,.326-.161l.949-.415,3.506-1.505c2.96-1.271,7.043-3.05,11.516-5.081s8.5-3.937,11.4-5.329l3.439-1.652.939-.441a2.086,2.086,0,0,1,.336-.139" transform="translate(-69.398 541.948)" fill="#17282f"/>
      <path id="path128" d="M702.554-3.353a8.711,8.711,0,0,0-1.4-1.364,8.572,8.572,0,0,0-1.787-.794,2.821,2.821,0,0,1,1.932.582,2.833,2.833,0,0,1,1.259,1.575" transform="translate(-69.811 540.847)" fill="#17282f"/>
      <path id="path130" d="M707.537-9.245c-.038.06-.457-.147-.933-.459s-.836-.616-.794-.673.457.147.935.459.834.616.794.673" transform="translate(-70.453 541.323)" fill="#17282f"/>
      <path id="path132" d="M708.848-10.869c-.02.068-.413,0-.876-.143s-.824-.32-.794-.387.415,0,.876.143.822.32.794.387" transform="translate(-70.589 541.425)" fill="#17282f"/>
      <path id="path134" d="M709-13.313c.03.066-.4.324-.939.582a2.5,2.5,0,0,1-1.048.347c-.028-.064.4-.324.939-.58a2.488,2.488,0,0,1,1.046-.349" transform="translate(-70.575 541.622)" fill="#17282f"/>
      <path id="path136" d="M708.706-14.887c.048.048-.338.486-.967.828a2.133,2.133,0,0,1-1.217.367,6.59,6.59,0,0,1,1.1-.6,6.591,6.591,0,0,1,1.088-.6" transform="translate(-70.525 541.774)" fill="#17282f"/>
      <path id="path138" d="M705.713-10.737a3.87,3.87,0,0,1-1.231.548,7.883,7.883,0,0,1-1.439.306,3.869,3.869,0,0,1-.888.032.726.726,0,0,1-.476-.244.528.528,0,0,1-.038-.576,2.474,2.474,0,0,1,3.083-.6,2.418,2.418,0,0,1,.772.639c.145.189.2.308.183.318a3.819,3.819,0,0,0-1.034-.794,2.431,2.431,0,0,0-1.358-.2,2.093,2.093,0,0,0-1.42.762c-.129.232.05.427.326.459a4.047,4.047,0,0,0,.824-.018,9.131,9.131,0,0,0,1.414-.244c.794-.2,1.263-.415,1.281-.375" transform="translate(-70.033 541.441)" fill="#17282f"/>
      <path id="path140" d="M705.78-10.741a1.326,1.326,0,0,1-.53-.794,2.212,2.212,0,0,1-.071-1.048,1.354,1.354,0,0,1,.739-1.088c.3-.093,1,.512,1.054.739s-.357.109-.377.3a4.14,4.14,0,0,1-.244,1.007,1.942,1.942,0,0,1-.476.816c-.036-.022.145-.332.308-.876a4.776,4.776,0,0,0,.181-.969c.05-.338-.046-.854-.377-.77s-.5.558-.574.888a2.244,2.244,0,0,0,.016.957,4.815,4.815,0,0,0,.355.836" transform="translate(-70.39 541.646)" fill="#17282f"/>
      <path id="path142" d="M727.641-22.259c.016.044-.572.2-1.39.689a6.771,6.771,0,0,0-2.506,2.665,6.749,6.749,0,0,0-.691,3.594c.079.951.3,1.515.256,1.529a1.165,1.165,0,0,1-.177-.385,5.653,5.653,0,0,1-.26-1.126,6.485,6.485,0,0,1,.645-3.725,6.488,6.488,0,0,1,2.643-2.716,5.485,5.485,0,0,1,1.062-.451,1.161,1.161,0,0,1,.415-.083" transform="translate(-72.154 542.505)" fill="#17282f"/>
      <path id="path144" d="M719.17-13.545a11.984,11.984,0,0,1-2.674,1.521A11.913,11.913,0,0,1,713.59-11c-.024-.071,1.263-.55,2.8-1.253s2.744-1.354,2.78-1.289" transform="translate(-71.233 541.639)" fill="#17282f"/>
      <path id="path146" d="M723.909-15.46c.067.026.018.312.022.653s.048.629-.022.655-.234-.256-.234-.655.171-.681.234-.653" transform="translate(-72.238 541.829)" fill="#17282f"/>
      <path id="path148" d="M724.572-18.123c.066.026.032.278-.073.57s-.248.506-.312.48-.034-.278.073-.568.248-.506.314-.482" transform="translate(-72.285 542.094)" fill="#17282f"/>
      <path id="path150" d="M726.355-20.036c.016.071-.238.185-.475.411s-.369.469-.441.447-.03-.357.266-.631.641-.294.649-.226" transform="translate(-72.413 542.289)" fill="#17282f"/>
      <path id="path152" d="M727.811-21.179c.05.05-.016.2-.147.33s-.276.2-.326.153.016-.2.145-.33.278-.2.33-.153" transform="translate(-72.602 542.401)" fill="#17282f"/>
      <path id="path236" d="M278.179-279.662,235.736-61.455l-5.559,28.564,283.333-1.39c12.707-.064,23.985-11.353,28.075-28.127l50.234-206c3.105-12.733-3.709-25.978-13.361-25.969l-286.766.3c-6.332,0-11.867,5.915-13.523,14.431" transform="translate(-22.979 569.678)" fill="#f03d5f"/>
      <path id="path238" d="M548.952-5.982a42.231,42.231,0,0,0,5.254-1.6,22.773,22.773,0,0,1-5.254,1.6" transform="translate(-54.798 541.041)" fill="#7d7d7d"/>
      <path id="path240" d="M545.435-41.039c-30.732,0-33.7-35.173-33.7-35.2L484.68-294.263l119.19-.125h.01c8.043,0,14.115,9.209,14.109,19.657a26.784,26.784,0,0,1-.76,6.32L595.6-179.729,586.986-144.4l-20,82a42.76,42.76,0,0,1-11.266,20.786,3.3,3.3,0,0,0,.34-.653,49.237,49.237,0,0,1-10.626,1.245" transform="translate(-48.381 569.671)" fill="rgba(26,166,183,0.85)"/>
      <path id="path242" d="M474.834-80.767l-30-241.736A19.027,19.027,0,0,0,426.4-339.767l-65.78.215a17.927,17.927,0,0,0-13,5.758l-31.234,33.2-182.949.955c-11.178.058-19.768,10.636-18.287,22.522L143.007-53.682A19.027,19.027,0,0,0,161.419-36.43l318.838-.629c35.511.735,38.9-9.753,38.9-9.753-40.7,9.018-44.321-33.926-44.325-33.952" transform="translate(-11.479 574.202)" fill="#1aa6b7"/>
    </g>
    <text id="Data" transform="translate(399 73.779)" fill="#1aa6b7" font-size="39" font-family="Montserrat-SemiBoldItalic, Montserrat" font-weight="600" font-style="italic"><tspan x="0" y="0">Data</tspan></text>
    <text id="Found" transform="translate(385 113.779)" fill="#1aa6b7" font-size="39" font-family="Montserrat-SemiBoldItalic, Montserrat" font-weight="600" font-style="italic"><tspan x="0" y="0">Found</tspan></text>
    <text id="_" data-name="!" transform="translate(535 118.779)" fill="#1aa6b7" font-size="121" font-family="Montserrat-SemiBoldItalic, Montserrat" font-weight="600" font-style="italic"><tspan x="0" y="0">!</tspan></text>
    <text id="No" transform="translate(110 125.779)" fill="#1aa6b7" font-size="173" font-family="Montserrat-SemiBoldItalic, Montserrat" font-weight="600" font-style="italic"><tspan x="0" y="0">No</tspan></text>
  </g>
</svg>
