<svg xmlns="http://www.w3.org/2000/svg" width="112.568" height="143.863" viewBox="0 0 112.568 143.863"><defs><style>.a{fill:#f3fbfc;}.b{fill:#fff;}.c{fill:#2c4250;}.d{fill:#1aa6b7;}</style></defs><path class="a" d="M43.847,149.129a2.582,2.582,0,0,1-2.582-2.582V22.314H35.934A2.582,2.582,0,0,0,33.352,24.9V154.459a2.582,2.582,0,0,0,2.582,2.582h98.24a2.583,2.583,0,0,0,2.582-2.582v-5.331H43.847Z" transform="translate(-33.352 -13.178)"/><path class="b" d="M147.488,143.728a2.583,2.583,0,0,0,2.582-2.582V34.73L124.341,9H49.248a2.583,2.583,0,0,0-2.582,2.582V141.145a2.583,2.583,0,0,0,2.582,2.582h98.24Z" transform="translate(-38.753 -7.777)"/><path class="a" d="M177.358,9V32.147a2.583,2.583,0,0,0,2.582,2.582h23.147Z" transform="translate(-91.77 -7.777)"/><g transform="translate(6.724 0)"><path class="c" d="M150.77,208.781c-.117-.169-5.454-5.129-5.605-5.271a1.189,1.189,0,0,0-1.622,1.738l3.235,3.02H74.8l3.235-3.02a1.189,1.189,0,0,0-1.622-1.738c-5.51,5.143-5.674,5.133-5.792,5.7-.216,1.038.664,1.4,5.792,6.188a1.189,1.189,0,0,0,1.622-1.738l-3.235-3.02h71.979l-3.235,3.02a1.19,1.19,0,0,0,.811,2.058c.594,0,.59.031,6.263-5.411A1.182,1.182,0,0,0,150.77,208.781Z" transform="translate(-55.183 -86.546)"/><path class="c" d="M67.258,118.451l-3.02,3.236V25.814c3.227,3.457,3.2,3.612,3.889,3.612a1.19,1.19,0,0,0,.868-2c-.22-.235-4.869-5.218-5.091-5.451a1.185,1.185,0,0,0-1.724.012L57.1,27.427a1.189,1.189,0,0,0,1.738,1.622l3.02-3.235v95.873l-3.02-3.236a1.189,1.189,0,0,0-1.738,1.622c5.114,5.479,5.139,5.681,5.7,5.792.879.182.778,0,6.188-5.792a1.188,1.188,0,0,0-1.737-1.621Z" transform="translate(-49.575 -12.893)"/><path class="c" d="M146.677,144.083H48.437a3.775,3.775,0,0,1-3.771-3.771V10.748a3.775,3.775,0,0,1,3.771-3.771c80.26,0,75.391-.194,75.933.348,27.8,27.8,26.078,25.855,26.078,26.57V140.312A3.776,3.776,0,0,1,146.677,144.083ZM48.437,9.354a1.4,1.4,0,0,0-1.394,1.394V140.312a1.4,1.4,0,0,0,1.394,1.394h98.24a1.4,1.4,0,0,0,1.394-1.394V34.387L123.037,9.354Z" transform="translate(-44.666 -6.943)"/><path class="c" d="M179.129,35.106a3.776,3.776,0,0,1-3.772-3.771V8.188a1.19,1.19,0,0,1,2.029-.84c27.7,27.7,26.424,25.969,25.987,27.025C202.954,35.385,204.122,35.106,179.129,35.106Zm-1.394-24.048V31.335a1.4,1.4,0,0,0,1.394,1.394h20.277Z" transform="translate(-97.682 -6.965)"/></g><path class="d" d="M-43.907-27.859h13.49L-45.291-68.676H-60.049L-74.981-27.859h13.433l2.018-6.169h13.606Zm-5.131-15.8h-7.379l3.69-11.357Z" transform="translate(105.304 118.199)"/><path class="d" d="M-20.766-27.047v9.566h3.628A1.776,1.776,0,0,1-15.268-18.8c1.341,0,2.067.77,2.067,2.221,0,1.385-.616,2.419-2.045,2.419a1.9,1.9,0,0,1-2.023-1.583h-3.672c.132,2.771,2.221,4.772,5.827,4.772,3.562,0,5.542-2.2,5.542-5.586,0-2.595-1.341-5.256-4.838-5.256a4.028,4.028,0,0,0-2.947,1.1v-3.035H-10.5v-3.3Z" transform="translate(98.241 102.5)"/></svg>