<svg xmlns="http://www.w3.org/2000/svg" width="578" height="382.122" viewBox="0 0 578 382.122"><defs><style>.a{fill:#f2f2f2;}.b,.e{fill:#1aa6b7;}.b{opacity:0.4;}.c{fill:#2f2e41;}.d{fill:#2c4250;}</style></defs><g transform="translate(-671 -640.963)"><g transform="translate(0 -513)"><path class="a" d="M627.51,434.063l-56.74,26.853,50.215-37.548a283.366,283.366,0,0,0-27.418-36.079L347.5,448.449l222.265-84.786a283.317,283.317,0,0,0-32.276-24.6L162.548,399.455a281,281,0,0,0-61.542,175.361H665.4A280.847,280.847,0,0,0,627.51,434.063Z" transform="translate(576.23 960.059)"/><path class="a" d="M556.762,286.542A282.393,282.393,0,0,0,216.29,359.729C304.931,340.306,459.264,306.685,556.762,286.542Z" transform="translate(526.274 995.143)"/><ellipse class="b" cx="8.455" cy="8.455" rx="8.455" ry="8.455" transform="translate(1130.09 1291.912)"/><ellipse class="b" cx="5.931" cy="5.931" rx="5.931" ry="5.931" transform="translate(1116.966 1298.474)"/><ellipse class="b" cx="17.707" cy="17.707" rx="17.707" ry="17.707" transform="translate(720.585 1305.065)"/><ellipse class="b" cx="12.421" cy="12.421" rx="12.421" ry="12.421" transform="translate(693.1 1318.808)"/><rect class="c" width="578" height="1.133" transform="translate(671 1534.308)"/><path class="d" d="M960.017,702.965,915,636.1s68.174,23.8,60.437,66.867Z" transform="translate(223.5 831.343)"/><path class="e" d="M985.3,702.965l45.017-66.867s-68.174,23.8-60.437,66.867Z" transform="translate(199.985 831.343)"/><path class="a" d="M236.033,202.533c0-3.682-5.249-6.666-11.725-6.666-.128,0-.255,0-.382.005-1.953-5.988-11.188-10.523-22.286-10.523-9.443,0-17.536,3.283-20.944,7.95a29.7,29.7,0,0,0-7.717-.988c-9.929,0-17.978,4.576-17.978,10.221,0,5.128,6.642,9.373,15.3,10.108,6.293,1.151,16.122,1.891,27.169,1.891,18.755,0,32.478-3.578,32.822-6.267C233.729,207.1,236.033,204.971,236.033,202.533Z" transform="translate(552.833 1026.667)"/><path class="a" d="M736.033,207.533c0-3.682-5.25-6.666-11.725-6.666-.128,0-.255,0-.382.005-1.953-5.988-11.188-10.523-22.286-10.523-9.443,0-17.536,3.283-20.944,7.95a29.7,29.7,0,0,0-7.717-.988c-9.929,0-17.978,4.576-17.978,10.221,0,5.128,6.642,9.373,15.3,10.108,6.293,1.151,16.122,1.891,27.169,1.891,18.755,0,32.478-3.578,32.822-6.267C733.729,212.1,736.033,209.971,736.033,207.533Z" transform="translate(336.167 1024.501)"/><path class="a" d="M968.233,113.063c0-6.462-9.214-11.7-20.58-11.7-.225,0-.448.006-.671.01-3.429-10.511-19.637-18.47-39.118-18.47-16.575,0-30.78,5.762-36.762,13.955a52.126,52.126,0,0,0-13.546-1.734c-17.428,0-31.557,8.032-31.557,17.941,0,9,11.659,16.452,26.859,17.742,11.045,2.019,28.3,3.319,47.688,3.319,32.919,0,57.007-6.28,57.611-11C964.187,121.085,968.233,117.343,968.233,113.063Z" transform="translate(262.066 1071.061)"/><path class="c" d="M141.764,684.722l-1.133-.022a262.837,262.837,0,0,1,4.023-37.563c4.9-26.566,13.05-44.013,24.221-51.857l.651.927C143.43,614.53,141.777,684.021,141.764,684.722Z" transform="translate(559.06 849.031)"/><path class="c" d="M166.764,722.791l-1.133-.022c.024-1.255.733-30.835,12.378-39.01l.651.927C167.484,692.532,166.77,722.489,166.764,722.791Z" transform="translate(548.227 810.69)"/><ellipse class="e" cx="5.667" cy="5.667" rx="5.667" ry="5.667" transform="translate(729.367 1434.008)"/><ellipse class="e" cx="5.667" cy="5.667" rx="5.667" ry="5.667" transform="translate(726.561 1482.741)"/><path class="d" d="M157.218,594.11A25.171,25.171,0,0,1,155.508,607a22.939,22.939,0,0,1-3.857-24.633A25.175,25.175,0,0,1,157.218,594.11Z" transform="translate(555.131 854.628)"/><path class="d" d="M185.726,626.028a25.17,25.17,0,0,1-12.987.561,22.939,22.939,0,0,1,23.585-8.09A25.169,25.169,0,0,1,185.726,626.028Z" transform="translate(545.147 839.229)"/><path class="d" d="M189.065,704.007a17.642,17.642,0,0,1-9.1.393,16.078,16.078,0,0,1,16.531-5.67A17.643,17.643,0,0,1,189.065,704.007Z" transform="translate(542.017 804.409)"/><g transform="translate(746.6 1256.763)"><path class="e" d="M430.544,645.463h-73.35a3.427,3.427,0,1,1,0-6.854h73.35a3.427,3.427,0,0,1,0,6.854Z" transform="translate(-331.799 -386.756)"/><path class="e" d="M383.511,619.463H357.194a3.427,3.427,0,1,1,0-6.854h26.316a3.427,3.427,0,1,1,0,6.854Z" transform="translate(-331.799 -375.489)"/></g></g><path class="e" d="M1391.016,657.344h-13.739V630.657c0-30.114-24.01-55.148-54.124-55.6a55.037,55.037,0,0,0-55.615,54.864v27.427h-13.708a22.935,22.935,0,0,0-22.864,22.864V789.937a22.935,22.935,0,0,0,22.864,22.864h137.186a22.925,22.925,0,0,0,22.854-22.864V680.208A22.925,22.925,0,0,0,1391.016,657.344Zm-60.583,71.331v39.3a8.2,8.2,0,0,1-7.6,8.233,8.02,8.02,0,0,1-8.4-8.01V728.654a18.251,18.251,0,1,1,16,0Zm30.864-71.331h-77.759V629.917a38.864,38.864,0,1,1,77.729,0Z" transform="translate(-362.869 210.283)"/></g></svg>