<svg xmlns="http://www.w3.org/2000/svg" width="18.704" height="19.014" viewBox="0 0 18.704 19.014"><defs><style>.a{fill:#e2574c;}.b{fill:#b53629;}.c{fill:#1aa6b7;}.d{fill:#fff;}</style></defs><g transform="translate(-0.13)"><path class="a" d="M10.992,15.2a4.324,4.324,0,0,1,5.5-4.171V5.244L11.232,0H1.3A1.169,1.169,0,0,0,.13,1.169V17.535A1.169,1.169,0,0,0,1.3,18.7H12.786A4.324,4.324,0,0,1,10.992,15.2Z" transform="translate(0)"/><path class="b" d="M189,5.442h-4.075a1.169,1.169,0,0,1-1.169-1.169V.193Z" transform="translate(-172.523 -0.181)"/><path class="c" d="M196.929,193.553a3.507,3.507,0,1,1-3.507,3.507A3.507,3.507,0,0,1,196.929,193.553Z" transform="translate(-181.602 -181.553)"/><path class="d" d="M75.763,136.093a.34.34,0,0,0,0-.673H74.648a.348.348,0,0,0-.34.38v2.741c0,.244.139.38.327.38s.327-.136.327-.38v-.752h.675a.317.317,0,0,0,.314-.341.311.311,0,0,0-.314-.332h-.675v-1.022Zm-3.77-.673h-.816a.361.361,0,0,0-.379.378v2.745a.36.36,0,0,0,.388.368h.856a1.588,1.588,0,0,0,1.683-1.7A1.63,1.63,0,0,0,71.993,135.42Zm.039,2.814h-.5V136.1h.448c.679,0,.974.455.974,1.084C72.957,137.769,72.667,138.234,72.033,138.234Zm-2.989-2.814h-.808a.34.34,0,0,0-.356.38v2.741a.344.344,0,1,0,.685,0v-.8h.507a1.107,1.107,0,0,0,1.142-1.156A1.12,1.12,0,0,0,69.043,135.42ZM69.03,137.1h-.466v-1.034h.466a.519.519,0,0,1,0,1.034Z" transform="translate(-63.652 -127.23)"/><path class="d" d="M5.992,3.992H7.481V5.481h.992L6.737,7.217,5,5.481h.992Z" transform="translate(8.574 10.007)"/></g></svg>