<svg xmlns="http://www.w3.org/2000/svg" width="768.629" height="500.399" viewBox="0 0 768.629 500.399"><defs><style>.a{fill:#f2f2f2;}.b,.e{fill:#1aa6b7;}.b{opacity:0.4;}.c{fill:#2f2e41;}.d{fill:#2c4250;}.f{fill:#3f3d56;}.g{fill:#fff;}.h{fill:#e6e6e6;}</style></defs><g transform="translate(-671 -1153.963)"><path class="a" d="M790.856,463.537,716.512,498.72l65.794-49.2a371.271,371.271,0,0,0-35.924-47.272L423.977,482.386,715.2,371.295a371.218,371.218,0,0,0-42.289-32.234l-491.27,79.131a368.178,368.178,0,0,0-80.635,229.767H840.5A367.978,367.978,0,0,0,790.856,463.537Z" transform="translate(599.129 1006.404)"/><path class="a" d="M662.392,295.366A368.247,368.247,0,0,0,500.442,258.1c-114.215,0-216.328,51.79-284.152,133.162C332.432,365.811,534.646,321.76,662.392,295.366Z" transform="translate(548.477 1025.944)"/><ellipse class="b" cx="11.078" cy="11.078" rx="11.078" ry="11.078" transform="translate(1272.522 1334.71)"/><ellipse class="b" cx="7.771" cy="7.771" rx="7.771" ry="7.771" transform="translate(1255.326 1343.308)"/><ellipse class="b" cx="23.201" cy="23.201" rx="23.201" ry="23.201" transform="translate(735.969 1351.944)"/><ellipse class="b" cx="16.275" cy="16.275" rx="16.275" ry="16.275" transform="translate(699.957 1369.95)"/><rect class="c" width="757.323" height="1.485" transform="translate(671 1652.308)"/><path class="d" d="M973.983,723.71,915,636.1s89.325,31.184,79.188,87.612Z" transform="translate(368.54 928.598)"/><path class="e" d="M990.273,723.71l58.983-87.612s-89.325,31.184-79.188,87.612Z" transform="translate(354.566 928.598)"/><path class="a" d="M261.174,207.864c0-4.824-6.878-8.734-15.363-8.734-.168,0-.334,0-.5.007-2.559-7.846-14.659-13.788-29.2-13.788-12.372,0-22.976,4.3-27.442,10.417a38.911,38.911,0,0,0-10.112-1.295c-13.009,0-23.556,6-23.556,13.392,0,6.719,8.7,12.281,20.049,13.244,8.245,1.508,21.124,2.478,35.6,2.478,24.573,0,42.554-4.688,43.005-8.211C258.155,213.851,261.174,211.059,261.174,207.864Z" transform="translate(564.261 1044.678)"/><path class="a" d="M761.174,212.864c0-4.824-6.878-8.734-15.363-8.734-.168,0-.334,0-.5.007-2.56-7.846-14.659-13.788-29.2-13.788-12.372,0-22.977,4.3-27.442,10.417a38.912,38.912,0,0,0-10.112-1.295c-13.009,0-23.556,6-23.556,13.392,0,6.719,8.7,12.281,20.049,13.244,8.245,1.507,21.124,2.478,35.6,2.478,24.573,0,42.554-4.688,43.005-8.211C758.155,218.851,761.174,216.059,761.174,212.864Z" transform="translate(435.497 1043.391)"/><path class="a" d="M1012.361,122.421c0-8.467-12.073-15.331-26.965-15.331-.295,0-.586.007-.879.013-4.493-13.772-25.73-24.2-51.254-24.2-21.717,0-40.33,7.55-48.167,18.284a68.3,68.3,0,0,0-17.748-2.272c-22.835,0-41.347,10.524-41.347,23.507,0,11.793,15.276,21.556,35.192,23.246,14.472,2.646,37.077,4.349,62.483,4.349,43.132,0,74.693-8.228,75.484-14.412C1007.06,132.931,1012.361,128.029,1012.361,122.421Z" transform="translate(391.46 1071.061)"/><path class="c" d="M142.116,712.471l-1.485-.029a344.383,344.383,0,0,1,5.271-49.217c6.421-34.808,17.1-57.668,31.736-67.945l.853,1.215C144.3,620.5,142.133,711.553,142.116,712.471Z" transform="translate(567.961 939.11)"/><path class="c" d="M167.116,734.9l-1.485-.029c.032-1.644.96-40.4,16.218-51.113l.853,1.215C168.059,695.254,167.123,734.505,167.116,734.9Z" transform="translate(561.523 916.325)"/><ellipse class="e" cx="7.425" cy="7.425" rx="7.425" ry="7.425" transform="translate(747.475 1520.891)"/><ellipse class="e" cx="7.425" cy="7.425" rx="7.425" ry="7.425" transform="translate(743.798 1584.744)"/><path class="d" d="M159.552,597.755a32.98,32.98,0,0,1-2.241,16.884,30.056,30.056,0,0,1-5.053-32.276A32.986,32.986,0,0,1,159.552,597.755Z" transform="translate(565.627 942.437)"/><path class="d" d="M189.755,628.551a32.98,32.98,0,0,1-17.017.735,30.056,30.056,0,0,1,30.9-10.6A32.978,32.978,0,0,1,189.755,628.551Z" transform="translate(559.693 933.285)"/><path class="d" d="M191.889,705.793a23.115,23.115,0,0,1-11.927.515,21.067,21.067,0,0,1,21.659-7.429A23.116,23.116,0,0,1,191.889,705.793Z" transform="translate(557.833 912.592)"/><g transform="translate(926.889 1190.348)"><path class="f" d="M749.173,192.48h-2.531V123.16a40.119,40.119,0,0,0-40.119-40.119H559.658a40.119,40.119,0,0,0-40.119,40.119V503.455a40.119,40.119,0,0,0,40.119,40.119H706.521a40.12,40.12,0,0,0,40.12-40.119V241.823h2.531Z" transform="translate(-519.539 -83.041)"/><path class="g" d="M714.563,99.534H695.392a14.235,14.235,0,0,1-13.18,19.613H598.076A14.235,14.235,0,0,1,584.9,99.536H566.989A29.962,29.962,0,0,0,537.027,129.5h0V509.232a29.962,29.962,0,0,0,29.962,29.962H714.557a29.962,29.962,0,0,0,29.962-29.962h0V129.5a29.962,29.962,0,0,0-29.962-29.962Z" transform="translate(-525.961 -89.097)"/><circle class="h" cx="16.453" cy="16.453" r="16.453" transform="translate(98.616 383.314)"/><g transform="translate(23.85 262.834)"><rect class="h" width="181.924" height="35.918"/><path class="g" d="M563.358,447.794H737.526v-28.16H563.358Z" transform="translate(-559.48 -415.753)"/><path class="e" d="M581.226,424.559A10.729,10.729,0,1,1,570.5,435.288,10.729,10.729,0,0,1,581.226,424.559Z" transform="translate(-562.101 -417.562)"/><rect class="h" width="105.889" height="2.332" transform="translate(44.781 13.528)"/><rect class="h" width="105.889" height="2.332" transform="translate(44.781 19.592)"/></g><circle class="e" cx="50.624" cy="50.624" r="50.624" transform="translate(64.189 114.015)"/><path class="g" d="M705.564,243.388H665.008a6.767,6.767,0,0,0-6.76,6.759v28.969a6.767,6.767,0,0,0,6.76,6.759h40.556a6.767,6.767,0,0,0,6.76-6.759V250.147A6.767,6.767,0,0,0,705.564,243.388Zm0,3.863a2.883,2.883,0,0,1,.717.094l-20.991,16.745L664.422,247.31a2.9,2.9,0,0,1,.585-.06Zm0,34.763H665.008a2.9,2.9,0,0,1-2.9-2.9V250.408l21.965,17.661a1.931,1.931,0,0,0,2.414,0l21.971-17.526v28.57a2.9,2.9,0,0,1-2.9,2.9Z" transform="translate(-570.473 -99.993)"/></g></g></svg>