<svg xmlns="http://www.w3.org/2000/svg" width="126.142" height="126.141" viewBox="0 0 126.142 126.141"><defs><style>.a{fill:#2c4250;}.b{fill:#1aa6b7;}</style></defs><path class="a" d="M7.391,7.391H29.564V0H0V29.564H7.391Zm0,0"/><path class="a" d="M392,0V7.391h22.173V29.564h7.391V0Zm0,0" transform="translate(-295.423)"/><path class="a" d="M414.173,414.173H392v7.391h29.564V392h-7.391Zm0,0" transform="translate(-295.423 -295.423)"/><path class="a" d="M7.391,392H0v29.564H29.564v-7.391H7.391Zm0,0" transform="translate(0 -295.423)"/><path class="b" d="M61,60V96.956H97.956V74.782h7.391V67.391H97.956V60ZM90.564,89.564H68.391V67.391H90.564Zm0,0" transform="translate(-45.971 -45.218)"/><path class="b" d="M315.347,314.347V277.391H300.564V270h-7.391v7.391H271v7.391h7.391v7.391H271v7.391h7.391v14.782Zm-29.564-29.564h22.173v22.173H285.782Zm0,0" transform="translate(-204.234 -203.48)"/><path class="b" d="M83.173,247.391H97.956V240H61v7.391H75.782v7.391H68.391v7.391h7.391v14.782H68.391v7.391h7.391v7.391h36.956v-7.391h-7.391v-7.391H97.956v7.391H83.173v-7.391h7.391v-7.391H83.173Zm0,0" transform="translate(-45.971 -180.871)"/><path class="b" d="M121,120h7.391v7.391H121Zm0,0" transform="translate(-91.189 -90.436)"/><path class="b" d="M361,120h7.391v7.391H361Zm0,0" transform="translate(-272.06 -90.436)"/><path class="b" d="M323.173,96.956h14.782V60H301V96.956h14.782v7.391h7.391Zm-14.782-7.391V67.391h22.173V89.564Zm0,0" transform="translate(-226.843 -45.218)"/><path class="b" d="M405.782,247.391V240H391v7.391Zm0,0" transform="translate(-294.669 -180.871)"/><path class="b" d="M361,360h7.391v7.391H361Zm0,0" transform="translate(-272.06 -271.307)"/><path class="b" d="M241,330h7.391v7.391H241Zm0,0" transform="translate(-181.625 -248.698)"/><path class="b" d="M181,314.782h7.391V300H181Zm0,0" transform="translate(-136.407 -226.089)"/><path class="b" d="M211,270h7.391v7.391H211Zm0,0" transform="translate(-159.016 -203.48)"/><path class="b" d="M68.391,330H61v14.782h7.391Zm0,0" transform="translate(-45.971 -248.698)"/><path class="b" d="M61,420h7.391v7.391H61Zm0,0" transform="translate(-45.971 -316.525)"/><path class="b" d="M241,60h7.391v7.391H241Zm0,0" transform="translate(-181.625 -45.218)"/><path class="b" d="M241,134.782h7.391V120H241Zm0,0" transform="translate(-181.625 -90.436)"/><path class="b" d="M248.391,217.391V210H241v14.782h29.564v-7.391Zm0,0" transform="translate(-181.625 -158.262)"/></svg>