<svg xmlns="http://www.w3.org/2000/svg" width="93" height="89.912" viewBox="0 0 93 89.912"><defs><style>.a{fill:#35b8c8;}.b{fill:#1ca7b8;}.c{fill:#f3f5f9;}.d{fill:#e2dff4;}.e{fill:#ff6680;}.f{fill:#e62e6b;}</style></defs><g transform="translate(0 -8.5)"><g transform="translate(0 43.92)"><path class="a" d="M2.725,257.992A2.723,2.723,0,0,1,0,255.268V206.225A2.723,2.723,0,0,1,2.725,203.5H35.6a2.723,2.723,0,0,1,2.725,2.725V214.4H57.58a2.723,2.723,0,0,1,2.725,2.725v32.7a2.723,2.723,0,0,1-2.725,2.725H8.174a2.728,2.728,0,0,0-2.725,2.725A2.723,2.723,0,0,1,2.725,257.992Z" transform="translate(0 -203.5)"/></g><path class="b" d="M193.428,214.4H174.174v-8.174a2.723,2.723,0,0,0-2.725-2.725H166v49.043h27.428a2.723,2.723,0,0,0,2.725-2.725v-32.7A2.723,2.723,0,0,0,193.428,214.4Z" transform="translate(-135.848 -159.58)"/><g transform="translate(10.898 54.818)"><path class="c" d="M84.7,268.949H62.725a2.725,2.725,0,0,1,0-5.449H84.7a2.725,2.725,0,0,1,0,5.449Z" transform="translate(-60 -263.5)"/></g><path class="d" d="M171.449,263.5H166v5.449h5.449a2.725,2.725,0,0,0,0-5.449Z" transform="translate(-135.848 -208.682)"/><g transform="translate(32.877 8.5)"><path class="e" d="M238.4,65.717a2.723,2.723,0,0,1-2.725-2.725,2.728,2.728,0,0,0-2.725-2.725H183.725A2.723,2.723,0,0,1,181,57.543V11.225A2.723,2.723,0,0,1,183.725,8.5H238.4a2.723,2.723,0,0,1,2.725,2.725V62.992A2.723,2.723,0,0,1,238.4,65.717Z" transform="translate(-181 -8.5)"/></g><path class="f" d="M374.246,8.5H347V60.268h21.8a2.728,2.728,0,0,1,2.725,2.725,2.725,2.725,0,0,0,5.449,0V11.225A2.723,2.723,0,0,0,374.246,8.5Z" transform="translate(-283.971)"/><g transform="translate(10.898 19.398)"><g transform="translate(43.957)"><path class="c" d="M318.348,76.674a8.283,8.283,0,0,1-4.087,7.084A2.748,2.748,0,0,0,312.9,86.1a2.725,2.725,0,0,1-5.449,0,8.262,8.262,0,0,1,2.725-6.049,4.968,4.968,0,0,1,1.362-1.035,2.748,2.748,0,0,0,1.362-2.343,2.725,2.725,0,0,0-5.449,0,2.725,2.725,0,0,1-5.449,0,8.174,8.174,0,0,1,16.348,0Z" transform="translate(-302 -68.5)"/></g><g transform="translate(49.406 24.521)"><ellipse class="c" cx="3" cy="2.5" rx="3" ry="2.5" transform="translate(-0.305 0.492)"/></g><g transform="translate(0 57.217)"><path class="c" d="M95.783,388.949H62.725a2.725,2.725,0,0,1,0-5.449H95.783a2.725,2.725,0,0,1,0,5.449Z" transform="translate(-60 -383.5)"/></g><g transform="translate(0 46.318)"><path class="c" d="M95.783,328.949H62.725a2.725,2.725,0,0,1,0-5.449H95.783a2.725,2.725,0,0,1,0,5.449Z" transform="translate(-60 -323.5)"/></g></g><g transform="translate(30.152 19.398)"><path class="d" d="M349.725,206.225A2.724,2.724,0,0,0,347,203.5v5.449A2.725,2.725,0,0,0,349.725,206.225Z" transform="translate(-314.123 -178.979)"/><path class="d" d="M355.174,76.674a8.283,8.283,0,0,1-4.087,7.084,2.748,2.748,0,0,0-1.362,2.343A2.7,2.7,0,0,1,347,88.826V80.052a4.968,4.968,0,0,1,1.362-1.035,2.748,2.748,0,0,0,1.362-2.343A2.7,2.7,0,0,0,347,73.949V68.5A8.163,8.163,0,0,1,355.174,76.674Z" transform="translate(-314.123 -68.5)"/><path class="d" d="M182.529,383.5H166v5.449h16.529a2.725,2.725,0,0,0,0-5.449Z" transform="translate(-166 -326.283)"/><path class="d" d="M182.529,323.5H166v5.449h16.529a2.725,2.725,0,0,0,0-5.449Z" transform="translate(-166 -277.182)"/></g></g></svg>