<svg xmlns="http://www.w3.org/2000/svg" xmlns:xlink="http://www.w3.org/1999/xlink" width="162" height="162" viewBox="0 0 162 162"><defs><style>.a{fill:#1aa6b7;}.b{fill:#ecf8f9;}.c{filter:url(#a);}</style><filter id="a" x="0" y="0" width="162" height="162" filterUnits="userSpaceOnUse"><feOffset dy="3" input="SourceAlpha"/><feGaussianBlur stdDeviation="3" result="b"/><feFlood flood-opacity="0.161"/><feComposite operator="in" in2="b"/><feComposite in="SourceGraphic"/></filter></defs><g transform="translate(9.117 6.001)"><g class="c" transform="matrix(1, 0, 0, 1, -9.12, -6)"><circle class="a" cx="72" cy="72" r="72" transform="translate(9 6)"/></g><g transform="translate(21.966 25.849)"><path class="b" d="M352.429,45.752c.043,0,.087.006.131.006a1.615,1.615,0,0,0,.223-.017,3.607,3.607,0,0,1,3.534,3.6,1.614,1.614,0,1,0,3.228,0,6.843,6.843,0,0,0-5.37-6.674V41.118a1.614,1.614,0,0,0-3.228,0v1.624a6.833,6.833,0,0,0,1.765,13.434,3.606,3.606,0,1,1-3.605,3.606,1.614,1.614,0,0,0-3.228,0,6.844,6.844,0,0,0,5.068,6.6v1.768a1.614,1.614,0,1,0,3.228,0V66.457a6.833,6.833,0,0,0-1.463-13.507,3.6,3.6,0,0,1-.282-7.2Zm0,0" transform="translate(-276.1 -31.613)"/><path class="b" d="M76.7.39A23.156,23.156,0,0,0,55.126,15.544H15.069a1.688,1.688,0,0,0-1.614,1.686l-.381,56.616H1.656A1.587,1.587,0,0,0,0,75.385v7.185A12.678,12.678,0,0,0,12.1,95.2v.035H61.933v-.047c.4.015.57.047.825.047h.035A12.677,12.677,0,0,0,75.45,82.554V46.228c.4.022.831.034,1.248.034A22.936,22.936,0,0,0,76.7.39ZM12.718,92h-.01a9.493,9.493,0,0,1-9.48-9.45V77.074h46.8V82.53A12.661,12.661,0,0,0,53.768,91.5c.169.169.38.3.557.5Zm59.5-9.45A9.449,9.449,0,0,1,62.792,92h-.031a9.519,9.519,0,0,1-9.5-9.471V75.384a1.489,1.489,0,0,0-1.541-1.538H16.3l.37-55.075H54.23a24.25,24.25,0,0,0-.442,4.482,22.758,22.758,0,0,0,1.948,9.236H40.492a1.614,1.614,0,0,0,0,3.228H57.487A22.776,22.776,0,0,0,72.222,45.825ZM76.7,43.035A19.686,19.686,0,1,1,96.388,23.349,19.685,19.685,0,0,1,76.7,43.035Zm0,0" transform="translate(0 -0.39)"/><path class="b" d="M128.927,212.746a5,5,0,1,0,5.166,5A5.091,5.091,0,0,0,128.927,212.746Zm0,6.776a1.781,1.781,0,1,1,1.939-1.774A1.863,1.863,0,0,1,128.927,219.522Zm0,0" transform="translate(-98.794 -169.906)"/><path class="b" d="M192.719,231.118a1.613,1.613,0,0,0,1.614,1.614H215.85a1.614,1.614,0,0,0,0-3.228H194.333A1.613,1.613,0,0,0,192.719,231.118Zm0,0" transform="translate(-153.84 -183.283)"/><path class="b" d="M128.927,143.2a5,5,0,1,0,5.166,5A5.092,5.092,0,0,0,128.927,143.2Zm0,6.776a1.781,1.781,0,1,1,1.939-1.774,1.863,1.863,0,0,1-1.939,1.774Zm0,0" transform="translate(-98.794 -114.392)"/><path class="b" d="M128.927,282.281a5,5,0,1,0,5.166,5A5.091,5.091,0,0,0,128.927,282.281Zm0,6.776a1.781,1.781,0,1,1,1.939-1.774A1.862,1.862,0,0,1,128.927,289.057Zm0,0" transform="translate(-98.794 -225.413)"/><path class="b" d="M215.85,299.5H194.333a1.614,1.614,0,0,0,0,3.228H215.85a1.614,1.614,0,0,0,0-3.228Zm0,0" transform="translate(-153.84 -239.161)"/></g></g></svg>