<svg xmlns="http://www.w3.org/2000/svg" xmlns:xlink="http://www.w3.org/1999/xlink" width="942.695" height="494.656" viewBox="0 0 942.695 494.656"><defs><style>.a,.d,.e,.h,.l{opacity:0.1;}.b{fill:#3f3d56;}.c,.e{fill:#1aa6b7;}.f,.h,.l{fill:none;}.f{stroke:#3f3d56;stroke-width:4px;}.f,.l{stroke-miterlimit:10;}.g{fill:#fff;}.i{fill:url(#g);}.j{fill:#be6f72;}.k{fill:#ff6f61;}.l{stroke:#000;}.m{fill:url(#h);}.n{fill:#2f2e41;}.o{fill:#fbbebe;}.p{fill:#e8e8f0;}.q{fill:#f86d70;}.r{filter:url(#e);}.s{filter:url(#c);}.t{filter:url(#a);}</style><filter id="a" x="575.686" y="113.195" width="189.956" height="189.956" filterUnits="userSpaceOnUse"><feOffset dy="3" input="SourceAlpha"/><feGaussianBlur stdDeviation="3" result="b"/><feFlood flood-opacity="0.161"/><feComposite operator="in" in2="b"/><feComposite in="SourceGraphic"/></filter><filter id="c" x="378.159" y="243.787" width="189.956" height="189.956" filterUnits="userSpaceOnUse"><feOffset dy="3" input="SourceAlpha"/><feGaussianBlur stdDeviation="3" result="d"/><feFlood flood-opacity="0.161"/><feComposite operator="in" in2="d"/><feComposite in="SourceGraphic"/></filter><filter id="e" x="174.112" y="179.579" width="189.956" height="189.956" filterUnits="userSpaceOnUse"><feOffset dy="3" input="SourceAlpha"/><feGaussianBlur stdDeviation="3" result="f"/><feFlood flood-opacity="0.161"/><feComposite operator="in" in2="f"/><feComposite in="SourceGraphic"/></filter><linearGradient id="g" x1="0.5" y1="1" x2="0.5" gradientUnits="objectBoundingBox"><stop offset="0" stop-color="gray" stop-opacity="0.251"/><stop offset="0.54" stop-color="gray" stop-opacity="0.122"/><stop offset="1" stop-color="gray" stop-opacity="0.102"/></linearGradient><linearGradient id="h" x1="0.5" y1="1" x2="0.5" y2="-0.001" xlink:href="#g"/></defs><g transform="translate(0 0.359)"><g class="a" transform="translate(365.681 34.046)"><ellipse class="b" cx="9.788" cy="12.816" rx="9.788" ry="12.816" transform="translate(36.891 264.556)"/><path class="b" d="M537.572,457.642a15.482,15.482,0,0,0,2.047-7.836c0-7.079-4.387-12.816-9.8-12.816S520,442.744,520,449.823a15.483,15.483,0,0,0,2.047,7.836,16.007,16.007,0,0,0,0,15.663,16.007,16.007,0,0,0,0,15.663A15.43,15.43,0,0,0,520,496.82c0,7.07,4.387,12.816,9.788,12.816s9.8-5.746,9.8-12.816a15.431,15.431,0,0,0-2.047-7.836,16.007,16.007,0,0,0,0-15.663,16.007,16.007,0,0,0,0-15.663Z" transform="translate(-483.143 -235.103)"/><ellipse class="b" cx="9.788" cy="12.816" rx="9.788" ry="12.816" transform="translate(36.891 186.241)"/><ellipse class="b" cx="9.788" cy="12.816" rx="9.788" ry="12.816" transform="translate(36.891 170.579)"/><path class="c" d="M487.188,278.468a45.657,45.657,0,0,1-3.647-5.367l25.718-4.223-27.816.206a46.98,46.98,0,0,1-.86-37.157L517.9,251.289l-34.4-25.3a46.9,46.9,0,1,1,77.411,52.468,46.911,46.911,0,0,1,5.35,8.55l-33.4,17.392,35.6-11.947a46.9,46.9,0,0,1-7.56,44.038,46.894,46.894,0,1,1-73.713,0,46.894,46.894,0,0,1,0-57.989Z" transform="translate(-477.149 -202.271)"/><path class="d" d="M570.938,324.458A46.679,46.679,0,0,1,560.9,353.452a46.894,46.894,0,1,1-73.713,0C480.9,345.47,570.938,319.194,570.938,324.458Z" transform="translate(-477.149 -219.266)"/></g><g class="a" transform="translate(491.75 76.908)"><ellipse class="b" cx="7.32" cy="9.573" rx="7.32" ry="9.573" transform="translate(27.567 197.533)"/><path class="b" d="M668.868,442.751a11.552,11.552,0,0,0,1.522-5.849c0-5.29-3.277-9.582-7.311-9.582s-7.32,4.3-7.32,9.582a11.467,11.467,0,0,0,1.531,5.849,11.956,11.956,0,0,0,0,11.706,11.956,11.956,0,0,0,0,11.706,11.467,11.467,0,0,0-1.531,5.849c0,5.29,3.277,9.582,7.32,9.582s7.311-4.3,7.311-9.582a11.552,11.552,0,0,0-1.522-5.849,12.041,12.041,0,0,0,0-11.706,12.042,12.042,0,0,0,0-11.706Z" transform="translate(-628.202 -276.612)"/><ellipse class="b" cx="7.32" cy="9.573" rx="7.32" ry="9.573" transform="translate(27.567 139.01)"/><ellipse class="b" cx="7.32" cy="9.573" rx="7.32" ry="9.573" transform="translate(27.567 127.304)"/><path class="c" d="M631.22,308.877a33.54,33.54,0,0,1-2.727-4.008l19.224-3.157-20.789.155a35.127,35.127,0,0,1-.671-27.773l27.894,14.476-25.726-18.923A35.05,35.05,0,1,1,686.3,308.869a35.442,35.442,0,0,1,4,6.391l-24.943,12.962,26.6-8.928a35.059,35.059,0,0,1-5.651,32.908,35.041,35.041,0,1,1-55.048,0,35.041,35.041,0,0,1,0-43.333Z" transform="translate(-623.72 -252.103)"/><path class="d" d="M693.806,343.216a34.9,34.9,0,0,1-7.5,21.667,35.041,35.041,0,1,1-55.048,0C626.544,358.922,693.806,339.285,693.806,343.216Z" transform="translate(-623.723 -264.776)"/></g><g class="a" transform="translate(845.966 -0.359)"><ellipse class="b" cx="9.788" cy="12.816" rx="9.788" ry="12.816" transform="translate(37.552 264.556)"/><path class="b" d="M1081.237,417.642a15.482,15.482,0,0,1-2.047-7.836c0-7.079,4.386-12.816,9.8-12.816s9.788,5.737,9.788,12.816a15.483,15.483,0,0,1-2.047,7.836,16.007,16.007,0,0,1,0,15.663,16.007,16.007,0,0,1,0,15.663,15.431,15.431,0,0,1,2.047,7.836c0,7.07-4.387,12.816-9.788,12.816s-9.8-5.746-9.8-12.816a15.43,15.43,0,0,1,2.047-7.836,16.007,16.007,0,0,1,0-15.663A16.007,16.007,0,0,1,1081.237,417.642Z" transform="translate(-1041.646 -195.103)"/><ellipse class="b" cx="9.788" cy="12.816" rx="9.788" ry="12.816" transform="translate(37.552 186.241)"/><ellipse class="b" cx="9.788" cy="12.816" rx="9.788" ry="12.816" transform="translate(37.552 170.579)"/><path class="c" d="M1119.523,238.468a45.65,45.65,0,0,0,3.647-5.367l-25.718-4.223,27.816.206a46.98,46.98,0,0,0,.86-37.157l-37.321,19.361,34.405-25.3a46.9,46.9,0,1,0-77.411,52.467,46.916,46.916,0,0,0-5.35,8.55l33.4,17.392-35.6-11.947a46.9,46.9,0,0,0,7.561,44.038,46.894,46.894,0,1,0,73.713,0,46.894,46.894,0,0,0,0-57.99Z" transform="translate(-1035.541 -162.271)"/><path class="d" d="M1035.81,284.458a46.678,46.678,0,0,0,10.038,28.995,46.894,46.894,0,1,0,73.712,0C1125.848,305.47,1035.81,279.194,1035.81,284.458Z" transform="translate(-1035.579 -179.266)"/></g><g class="a" transform="translate(763.58 71.747)"><ellipse class="b" cx="7.32" cy="9.573" rx="7.32" ry="9.573" transform="translate(27.914 197.533)"/><path class="b" d="M973.752,436.751a11.552,11.552,0,0,1-1.522-5.849c0-5.29,3.277-9.582,7.311-9.582s7.32,4.3,7.32,9.582a11.465,11.465,0,0,1-1.531,5.849,11.956,11.956,0,0,1,0,11.706,11.956,11.956,0,0,1,0,11.706,11.464,11.464,0,0,1,1.531,5.849c0,5.29-3.277,9.582-7.32,9.582s-7.311-4.3-7.311-9.582a11.552,11.552,0,0,1,1.522-5.849,12.042,12.042,0,0,1,0-11.706,12.042,12.042,0,0,1,0-11.706Z" transform="translate(-944.299 -270.612)"/><ellipse class="b" cx="7.32" cy="9.573" rx="7.32" ry="9.573" transform="translate(27.914 139.01)"/><ellipse class="b" cx="7.32" cy="9.573" rx="7.32" ry="9.573" transform="translate(27.914 127.304)"/><path class="c" d="M1002.376,302.877a33.545,33.545,0,0,0,2.727-4.008l-19.224-3.157,20.789.155a35.127,35.127,0,0,0,.671-27.773L979.446,282.57l25.726-18.923a35.05,35.05,0,1,0-57.878,39.222,35.438,35.438,0,0,0-4,6.391l24.944,12.962L941.686,313.3a35.059,35.059,0,0,0,5.651,32.908,35.041,35.041,0,1,0,55.048,0,35.041,35.041,0,0,0,0-43.333Z" transform="translate(-939.756 -246.103)"/><path class="d" d="M939.8,337.216a34.9,34.9,0,0,0,7.5,21.667,35.041,35.041,0,1,0,55.048,0C1007.059,352.922,939.8,333.285,939.8,337.216Z" transform="translate(-939.76 -258.776)"/></g><g class="a" transform="translate(6.287 -0.215)"><ellipse class="b" cx="9.788" cy="12.816" rx="9.788" ry="12.816" transform="translate(36.9 264.412)"/><path class="b" d="M119.739,417.642a15.482,15.482,0,0,0,2.047-7.836c0-7.079-4.387-12.816-9.788-12.816s-9.788,5.737-9.788,12.816a15.483,15.483,0,0,0,2.038,7.836,16.058,16.058,0,0,0,0,15.663,16.058,16.058,0,0,0,0,15.663,15.422,15.422,0,0,0-2.038,7.836c0,7.07,4.378,12.816,9.788,12.816s9.814-5.728,9.814-12.8a15.431,15.431,0,0,0-2.047-7.836,16.007,16.007,0,0,0,0-15.663,16.007,16.007,0,0,0,0-15.663Z" transform="translate(-65.31 -195.247)"/><ellipse class="b" cx="9.788" cy="12.816" rx="9.788" ry="12.816" transform="translate(36.9 186.097)"/><ellipse class="b" cx="9.788" cy="12.816" rx="9.788" ry="12.816" transform="translate(36.9 170.435)"/><path class="c" d="M69.365,238.492a46.726,46.726,0,0,1-3.647-5.367L91.444,228.9l-27.842.249a46.98,46.98,0,0,1-.86-37.157l37.329,19.361-34.4-25.3a46.894,46.894,0,1,1,77.411,52.467,46.911,46.911,0,0,1,5.35,8.55L115.02,264.416l35.609-11.947a46.954,46.954,0,0,1-7.569,44.038,46.894,46.894,0,1,1-73.713,0,46.894,46.894,0,0,1,0-57.989Z" transform="translate(-59.309 -162.439)"/><path class="d" d="M153.1,284.458a46.679,46.679,0,0,1-10.038,28.995,46.894,46.894,0,1,1-73.713,0C63.06,305.47,153.1,279.194,153.1,284.458Z" transform="translate(-59.309 -179.41)"/></g><g class="a" transform="translate(112.573 71.747)"><ellipse class="b" cx="7.32" cy="9.573" rx="7.32" ry="9.573" transform="translate(27.567 197.533)"/><path class="b" d="M228.038,436.751a11.551,11.551,0,0,0,1.522-5.849c0-5.29-3.268-9.582-7.311-9.582s-7.32,4.3-7.32,9.582a11.551,11.551,0,0,0,1.531,5.849,11.956,11.956,0,0,0,0,11.706,11.956,11.956,0,0,0,0,11.706,11.552,11.552,0,0,0-1.531,5.849c0,5.29,3.277,9.582,7.32,9.582s7.311-4.3,7.311-9.582a11.551,11.551,0,0,0-1.522-5.849,12.042,12.042,0,0,0,0-11.706,12.042,12.042,0,0,0,0-11.706Z" transform="translate(-187.363 -270.612)"/><ellipse class="b" cx="7.32" cy="9.573" rx="7.32" ry="9.573" transform="translate(27.567 139.011)"/><ellipse class="b" cx="7.32" cy="9.573" rx="7.32" ry="9.573" transform="translate(27.567 127.304)"/><path class="c" d="M190.38,302.877a34.579,34.579,0,0,1-2.727-4.008l19.224-3.157-20.789.155a35.127,35.127,0,0,1-.671-27.773l27.894,14.476-25.726-18.923a35.05,35.05,0,1,1,57.878,39.222,34.51,34.51,0,0,1,4,6.391l-24.944,12.962,26.6-8.928a35.059,35.059,0,0,1-5.651,32.908,35.041,35.041,0,1,1-55.048,0,35.041,35.041,0,0,1,0-43.333Z" transform="translate(-182.88 -246.103)"/><path class="d" d="M252.965,337.216a34.9,34.9,0,0,1-7.5,21.667,35.041,35.041,0,1,1-55.048,0C185.687,352.922,252.965,333.285,252.965,337.216Z" transform="translate(-182.883 -258.775)"/></g><ellipse class="e" cx="471.347" cy="7.621" rx="471.347" ry="7.621" transform="translate(0 416.482)"/><ellipse class="e" cx="471.347" cy="7.621" rx="471.347" ry="7.621" transform="translate(0 479.056)"/><ellipse class="e" cx="471.347" cy="7.621" rx="471.347" ry="7.621" transform="translate(0 285.889)"/><ellipse class="e" cx="471.347" cy="7.621" rx="471.347" ry="7.621" transform="translate(0 351.181)"/><path class="e" d="M853.121,269.593a15.74,15.74,0,0,0-9.117,1,13.461,13.461,0,0,1-10.958,0,15.379,15.379,0,0,0-12.9.249,7.947,7.947,0,0,1-3.707.929c-5.229,0-9.573-5.264-10.476-12.205a10.216,10.216,0,0,0,2.58-2.813c3.062-4.937,7.8-8.111,13.134-8.111s10.012,3.131,13.074,8.016a10.046,10.046,0,0,0,8.679,4.765h.138C847.771,261.378,851.375,264.716,853.121,269.593Z" transform="translate(-157.462 -174.711)"/><path class="e" d="M869.039,244.63l-8.446,5.35,5.161-9.324a8.344,8.344,0,0,0-5.109-1.815h-.137a9.763,9.763,0,0,1-1.72-.129l-2.907,1.815,1.23-2.236a10.141,10.141,0,0,1-5.015-3.8l-5.161,3.251,3.234-5.883a14.988,14.988,0,0,0-11.474-5.8c-5.333,0-10.072,3.165-13.143,8.1a9.814,9.814,0,0,1-8.679,4.679h-.284c-5.883,0-10.648,6.666-10.648,14.889s4.765,14.9,10.648,14.9a8.076,8.076,0,0,0,3.707-.929,15.362,15.362,0,0,1,12.9-.258,13.375,13.375,0,0,0,10.958,0,15.413,15.413,0,0,1,12.781.25,8,8,0,0,0,3.664.912c5.883,0,10.648-6.675,10.648-14.9a18.863,18.863,0,0,0-2.21-9.074Z" transform="translate(-157.459 -171.553)"/><path class="e" d="M437.894,265.205a11.044,11.044,0,0,0-6.391.7,9.393,9.393,0,0,1-7.664,0,10.734,10.734,0,0,0-9.023.181,5.694,5.694,0,0,1-2.58.645c-3.656,0-6.7-3.681-7.337-8.541a7.155,7.155,0,0,0,1.832-1.97c2.142-3.44,5.462-5.677,9.195-5.677s7.01,2.193,9.152,5.608a7.044,7.044,0,0,0,6.081,3.337h.095C434.144,259.468,436.664,261.808,437.894,265.205Z" transform="translate(-101.363 -174.977)"/><path class="e" d="M449.03,247.745l-5.909,3.75,3.587-6.528a5.806,5.806,0,0,0-3.569-1.273h-.1a6.444,6.444,0,0,1-1.221-.095l-2,1.273.86-1.565a7.139,7.139,0,0,1-3.509-2.658l-3.587,2.271,2.271-4.111a10.5,10.5,0,0,0-8.034-4.068c-3.733,0-7.053,2.219-9.195,5.677a6.881,6.881,0,0,1-6.081,3.277h-.2c-4.12,0-7.457,4.662-7.457,10.425s3.337,10.425,7.457,10.425a5.591,5.591,0,0,0,2.58-.654,10.752,10.752,0,0,1,9.014-.172,9.238,9.238,0,0,0,7.672.052,10.786,10.786,0,0,1,8.945.172,5.574,5.574,0,0,0,2.58.636c4.111,0,7.449-4.67,7.449-10.425a13.186,13.186,0,0,0-1.548-6.408Z" transform="translate(-101.36 -172.767)"/><path class="e" d="M321.59,343.615a11.027,11.027,0,0,1,6.382.7,9.41,9.41,0,0,0,7.672,0,10.769,10.769,0,0,1,9.023.172,5.565,5.565,0,0,0,2.58.654c3.656,0,6.7-3.69,7.328-8.55a7.01,7.01,0,0,1-1.823-1.97c-2.15-3.44-5.47-5.668-9.195-5.668s-7.01,2.185-9.16,5.608a7.045,7.045,0,0,1-6.072,3.337h-.095C325.332,337.912,322.8,340.243,321.59,343.615Z" transform="translate(-89.709 -185.945)"/><path class="e" d="M308.382,326.186l5.918,3.75-3.6-6.52a5.84,5.84,0,0,1,3.578-1.282h.095a7.329,7.329,0,0,0,1.23-.086l2,1.264-.86-1.557a7.131,7.131,0,0,0,3.5-2.658l3.587,2.271-2.236-4.12a10.493,10.493,0,0,1,8.034-4.06c3.724,0,7.053,2.219,9.195,5.677a6.881,6.881,0,0,0,6.072,3.277h.206c4.111,0,7.449,4.67,7.449,10.425s-3.337,10.425-7.449,10.425a5.582,5.582,0,0,1-2.58-.645,10.734,10.734,0,0,0-9.023-.181,9.341,9.341,0,0,1-3.853.86,9.461,9.461,0,0,1-3.819-.809,10.769,10.769,0,0,0-8.937.172,5.574,5.574,0,0,1-2.58.637c-4.12,0-7.457-4.662-7.457-10.425a13.28,13.28,0,0,1,1.522-6.417Z" transform="translate(-87.649 -183.74)"/><path class="f" d="M714.74,638c2.245-4.163-.3-9.255-3.225-12.962s-6.5-7.569-6.425-12.291c.112-6.786,7.32-10.8,13.074-14.4a63.91,63.91,0,0,0,11.741-9.461,17.313,17.313,0,0,0,3.6-4.834c1.2-2.649,1.161-5.677,1.084-8.6q-.37-14.527-1.436-29.038" transform="translate(-143.352 -216.362)"/><path class="c" d="M747.008,544.208a10.588,10.588,0,0,0-5.29-8.679l-2.374,4.688.077-5.677a10.588,10.588,0,1,0,7.586,9.668Z" transform="translate(-146.255 -214.641)"/><path class="c" d="M725.237,626.675a10.588,10.588,0,0,1-19.989-4.3,10.321,10.321,0,0,1,.688-4.3,10.6,10.6,0,0,1,19.783.112L719.1,623.57l7.277-1.72A10.528,10.528,0,0,1,725.237,626.675Z" transform="translate(-143.372 -225.444)"/><path class="c" d="M720.607,601.827a10.588,10.588,0,0,1-3.354-20.772l-.06,4.361,2.4-4.748h0a10.591,10.591,0,1,1,.989,21.159Z" transform="translate(-143.972 -221.152)"/><path class="c" d="M750.489,581.938a10.588,10.588,0,1,1,4.679-19.783l-1.866,5.161,3.81-3.767a10.588,10.588,0,0,1-6.657,18.381Z" transform="translate(-148.145 -218.372)"/><path class="d" d="M745.578,547.973c-2.443.267-4.817,1.024-7.277,1.178s-5.161-.439-6.692-2.34a33.943,33.943,0,0,1-1.961-3.44,7.535,7.535,0,0,0-2.666-2.512,10.588,10.588,0,1,0,19.783,7.036C746.377,547.9,745.973,547.93,745.578,547.973Z" transform="translate(-146.252 -215.586)"/><path class="d" d="M750.5,582.924a10.588,10.588,0,0,1-10.072-15.1,7.835,7.835,0,0,1,2.125,2.133,35.888,35.888,0,0,0,2.1,3.5c1.651,1.935,4.473,2.58,7.027,2.451s5.023-.86,7.569-1.075c.353,0,.705-.052,1.067-.06a10.588,10.588,0,0,1-9.814,8.154Z" transform="translate(-148.153 -219.357)"/><path class="d" d="M720.608,602.846a10.588,10.588,0,0,1-10.158-14.906,8.6,8.6,0,0,1,2.245,2.15,35.46,35.46,0,0,0,2.3,3.57c1.78,1.987,4.791,2.692,7.492,2.58s5.161-.7,7.741-.86A10.605,10.605,0,0,1,720.608,602.846Z" transform="translate(-143.973 -222.171)"/><path class="d" d="M725.237,627.771a10.588,10.588,0,0,1-19.989-4.3,10.321,10.321,0,0,1,.688-4.3,10.568,10.568,0,0,1,2.322,2.073c1.006,1.221,1.669,2.58,2.838,3.759,2.159,2.124,5.66,3,8.765,3.079a44.472,44.472,0,0,0,5.376-.31Z" transform="translate(-143.372 -226.54)"/><path class="f" d="M104.74,566c2.245-4.163-.3-9.255-3.225-12.962s-6.5-7.586-6.425-12.291c.112-6.786,7.32-10.8,13.074-14.4a63.909,63.909,0,0,0,11.741-9.461,17.315,17.315,0,0,0,3.6-4.834c1.2-2.649,1.161-5.677,1.084-8.6q-.378-14.527-1.436-29.038" transform="translate(-58.027 -206.291)"/><path class="c" d="M137.008,472.208a10.588,10.588,0,0,0-5.29-8.679l-2.374,4.688.077-5.677a10.588,10.588,0,1,0,7.586,9.668Z" transform="translate(-60.93 -204.57)"/><path class="c" d="M115.237,554.675a10.588,10.588,0,0,1-19.989-4.3,10.321,10.321,0,0,1,.688-4.3,10.6,10.6,0,0,1,19.783.112L109.1,551.57l7.277-1.72a10.528,10.528,0,0,1-1.144,4.825Z" transform="translate(-58.047 -215.372)"/><path class="c" d="M110.607,529.827a10.588,10.588,0,0,1-3.354-20.772l-.06,4.361,2.4-4.748h0a10.591,10.591,0,0,1,.989,21.159Z" transform="translate(-58.647 -211.081)"/><path class="c" d="M140.489,509.939a10.588,10.588,0,1,1,4.679-19.783l-1.866,5.161,3.81-3.767a10.588,10.588,0,0,1-6.657,18.381Z" transform="translate(-62.82 -208.301)"/><path class="d" d="M135.578,475.973c-2.443.267-4.817,1.024-7.277,1.178s-5.161-.439-6.692-2.34a33.955,33.955,0,0,1-1.961-3.44,7.535,7.535,0,0,0-2.666-2.512,10.588,10.588,0,1,0,19.783,7.036C136.377,475.9,135.973,475.93,135.578,475.973Z" transform="translate(-60.928 -205.515)"/><path class="d" d="M140.5,510.924a10.588,10.588,0,0,1-10.072-15.1,7.836,7.836,0,0,1,2.124,2.133,35.882,35.882,0,0,0,2.1,3.5c1.651,1.935,4.473,2.58,7.027,2.451s5.023-.86,7.569-1.075c.353,0,.705-.052,1.067-.06A10.588,10.588,0,0,1,140.5,510.924Z" transform="translate(-62.828 -209.286)"/><path class="d" d="M110.608,530.846a10.588,10.588,0,0,1-10.158-14.906,8.6,8.6,0,0,1,2.245,2.15,35.468,35.468,0,0,0,2.3,3.57c1.78,1.987,4.791,2.692,7.492,2.58s5.161-.7,7.741-.86A10.605,10.605,0,0,1,110.608,530.846Z" transform="translate(-58.647 -212.1)"/><path class="d" d="M115.237,555.771a10.588,10.588,0,0,1-19.989-4.3,10.322,10.322,0,0,1,.688-4.3,10.572,10.572,0,0,1,2.322,2.073c1.006,1.221,1.669,2.58,2.838,3.759,2.159,2.125,5.66,3,8.765,3.079a44.485,44.485,0,0,0,5.376-.31Z" transform="translate(-58.047 -216.469)"/><path class="f" d="M509.287,483.629c-2.245-4.154.3-9.246,3.234-12.953s6.494-7.569,6.417-12.291c-.1-6.795-7.311-10.8-13.074-14.4a63.65,63.65,0,0,1-11.732-9.461,17.013,17.013,0,0,1-3.613-4.825c-1.187-2.658-1.153-5.677-1.084-8.6q.387-14.527,1.436-29.038" transform="translate(-113.183 -194.772)"/><path class="c" d="M478.388,389.848a10.579,10.579,0,0,1,5.281-8.679l2.374,4.688-.069-5.677a10.855,10.855,0,0,1,3.483-.421,10.588,10.588,0,1,1-11.07,10.089Z" transform="translate(-111.64 -193.05)"/><path class="c" d="M500.15,472.3a10.588,10.588,0,1,0-.507-8.524l6.614,5.384-7.277-1.72A10.528,10.528,0,0,0,500.15,472.3Z" transform="translate(-114.522 -203.838)"/><path class="c" d="M504.779,447.467a10.588,10.588,0,0,0,3.363-20.772l.052,4.361-2.4-4.748h0a10.588,10.588,0,0,0-11.1,10.055,10.46,10.46,0,0,0,.456,3.613,10.58,10.58,0,0,0,9.625,7.492Z" transform="translate(-113.922 -199.561)"/><path class="c" d="M474.894,427.558a10.588,10.588,0,1,0-4.688-19.783l1.875,5.161-3.853-3.69a10.5,10.5,0,0,0-3.44,7.311,10.243,10.243,0,0,0,.267,2.916,10.58,10.58,0,0,0,9.84,8.085Z" transform="translate(-109.738 -196.777)"/><path class="d" d="M479.857,393.613c2.443.267,4.817,1.024,7.268,1.178s5.161-.439,6.7-2.34a33.887,33.887,0,0,0,1.952-3.44,7.56,7.56,0,0,1,2.675-2.512,10.588,10.588,0,1,1-19.783,7.027C479.057,393.536,479.453,393.57,479.857,393.613Z" transform="translate(-111.681 -193.994)"/><path class="d" d="M474.944,428.544a10.6,10.6,0,0,0,10.072-15.1,7.87,7.87,0,0,0-2.133,2.133,35.89,35.89,0,0,1-2.1,3.5c-1.643,1.935-4.464,2.58-7.019,2.451s-5.023-.86-7.569-1.075c-.353,0-.714-.052-1.067-.06a10.579,10.579,0,0,0,9.814,8.154Z" transform="translate(-109.787 -197.763)"/><path class="d" d="M504.856,448.486a10.58,10.58,0,0,0,10.158-14.906,8.455,8.455,0,0,0-2.236,2.15,35.456,35.456,0,0,1-2.3,3.569c-1.789,1.987-4.791,2.692-7.5,2.58s-5.161-.7-7.741-.86a10.579,10.579,0,0,0,9.616,7.466Z" transform="translate(-113.999 -200.58)"/><path class="d" d="M500.34,473.411a10.588,10.588,0,0,0,19.31-8.6,10.166,10.166,0,0,0-2.322,2.073c-1.006,1.221-1.72,2.58-2.838,3.759-2.168,2.125-5.66,3-8.773,3.079a46.405,46.405,0,0,1-5.376-.31Z" transform="translate(-114.712 -204.948)"/><g class="t" transform="matrix(1, 0, 0, 1, 0, -0.36)"><circle class="g" cx="85.978" cy="85.978" r="85.978" transform="translate(584.69 119.19)"/></g><path class="c" d="M862.265,416.611c-2.993-2.993-10.192-7.509-13.762-9.195-4.12-1.978-5.634-1.944-8.55.163-2.426,1.72-4,3.38-6.786,2.77s-8.309-4.774-13.65-10.1-9.487-10.812-10.081-13.642,1.041-4.369,2.778-6.795c2.1-2.916,2.159-4.43.163-8.55-1.72-3.57-6.184-10.752-9.2-13.762s-3.673-2.348-5.324-1.72a30.792,30.792,0,0,0-4.877,2.58c-2.993,2-4.67,3.673-5.849,6.184s-2.512,7.173,4.344,19.379a108.111,108.111,0,0,0,19.009,25.348h0a108.273,108.273,0,0,0,25.434,19.043c12.2,6.881,16.867,5.513,19.379,4.344s4.18-2.83,6.176-5.849a30.389,30.389,0,0,0,2.58-4.877C864.613,420.284,865.284,419.613,862.265,416.611Z" transform="translate(-154.693 -189.623)"/><path class="h" d="M817.735,300.86A86.012,86.012,0,1,0,903.7,386.844,86.012,86.012,0,0,0,817.735,300.86Zm0,160.516a74.547,74.547,0,1,1,74.547-74.547,74.547,74.547,0,0,1-74.547,74.547Z" transform="translate(-147.072 -182.015)"/><g class="s" transform="matrix(1, 0, 0, 1, 0, -0.36)"><circle class="g" cx="85.978" cy="85.978" r="85.978" transform="translate(387.16 249.79)"/></g><path class="c" d="M642.888,522.41,617.144,548.6a.464.464,0,0,0,0,.671l18.063,19.207a3.108,3.108,0,1,1-4.4,4.4l-17.968-19.138a.49.49,0,0,0-.688,0l-4.378,4.421a19.241,19.241,0,0,1-13.762,5.789,19.663,19.663,0,0,1-14-5.952l-4.206-4.3a.49.49,0,0,0-.688,0l-17.925,19.095a3.108,3.108,0,1,1-4.4-4.4l17.994-19.164a.516.516,0,0,0,0-.671l-25.743-26.191a.473.473,0,0,0-.809.335V575.11a7.672,7.672,0,0,0,7.646,7.647h84.18a7.672,7.672,0,0,0,7.646-7.647V522.746a.473.473,0,0,0-.826-.336Z" transform="translate(-120.853 -212.98)"/><path class="c" d="M594.466,556.384a13.022,13.022,0,0,0,9.393-3.871l37.493-38.164a7.483,7.483,0,0,0-4.731-1.72h-84.24a7.431,7.431,0,0,0-4.731,1.72l37.5,38.164A12.971,12.971,0,0,0,594.466,556.384Z" transform="translate(-121.33 -211.637)"/><path class="h" d="M586.825,452.69a86.012,86.012,0,1,0,85.969,85.984A86.012,86.012,0,0,0,586.825,452.69Zm0,160.516a74.547,74.547,0,1,1,74.547-74.547,74.547,74.547,0,0,1-74.547,74.547Z" transform="translate(-114.773 -203.253)"/><g class="r" transform="matrix(1, 0, 0, 1, 0, -0.36)"><circle class="g" cx="85.978" cy="85.978" r="85.978" transform="translate(183.11 185.58)"/></g><path class="c" d="M359.276,430.16,325,509.24l3.2,3.2,31.085-13.71,31.085,13.71,3.2-3.2Z" transform="translate(-90.186 -200.102)"/><path class="h" d="M350.855,378a85.962,85.962,0,1,0,.014,0Zm0,160.516a61.333,61.333,0,1,1,.009.034Z" transform="translate(-81.766 -192.806)"/><path class="i" d="M834.253,597.807q-1.17-2.856-2.4-5.694a16.9,16.9,0,0,0-2.933-5.066,5.367,5.367,0,0,0-1.72-1.29,7.335,7.335,0,0,0-2.245-.447,17.915,17.915,0,0,0-3.527-.094c-.456-.138-.972-.318-1.479-.525a12.283,12.283,0,0,0,9.152-11.4c0-.172,0-.353,0-.525A12.257,12.257,0,0,0,816.9,560.46a12.041,12.041,0,0,0-6.408,1.832,11.5,11.5,0,0,0-12.9,6.219A14.218,14.218,0,0,0,793.2,579.09c0,.181,0,.37,0,.542.224,6.683,4.542,12.042,9.995,12.584a5.728,5.728,0,0,0-1.583,1.058c-1.669,1.608-1.944,4.163-2.125,6.485l-.129,1.72-2.89,1.032a.533.533,0,0,0-.129.938l2.761,1.97v.49a2.153,2.153,0,0,0,.052.559,3.949,3.949,0,0,0-1.066,1.523,7.034,7.034,0,0,0-.25,2.787l.1,2.4a18.845,18.845,0,0,0,.731,5.341c.361,1.067,1.927,3.638,3.053,3.656-1.041,4.731-1.316,14.708-1.316,14.708-.129.129.232.249.86.353.619,4.748,2.641,18.063,6.227,23.92a50.431,50.431,0,0,1,1.35,5.814s1.024,12.652,2.374,16.411c1.153,3.2,2.064,11.1,2.314,13.383a1.316,1.316,0,0,0-.955.981c-.679,2.047-5.083,5.161-5.083,5.161a21.294,21.294,0,0,0-3.8,2.434c-1.385,1.247-1.333,2.374,4.817,1.669,11.87-1.368,13.9-5.161,13.9-5.161s-.189-.636-.473-1.462a15.876,15.876,0,0,0-1.557-3.673c-.172-.163-.344.112-.551.542a73.655,73.655,0,0,1-.809-16.609s.336-5.814-1.359-9.917a18.775,18.775,0,0,1,0-6.494c.679-2.735-2.709-16.076-2.709-16.076l-1.944-9.823a2.821,2.821,0,0,1,.542,1.144l.052.2.052.284a.533.533,0,0,0,.138.267c1.325,5.5,4.954,20.755,4.954,22.991,0,2.735,3.389,9.573,3.389,9.573s1.35,11.285,3.724,15.723c1.806,3.38,1.849,8.335,1.763,10.519h0s-.4,2.813-1.084,3.492a8.309,8.309,0,0,0-1.282,2.228l-.077.163s-1.015,2.056-.335,2.4a16.661,16.661,0,0,0,8.137,1.024s1.359-1.72,1.359-2.391a10.783,10.783,0,0,0-.155-1.221c-.249-1.617-.714-4.163-.723-4.189.284-1.1-.86-4.163-.86-4.163l-.344-9.573a44.193,44.193,0,0,0-2.374-19.155s-1.72-6.15-1.35-7.862-.679-19.834-.679-19.834l-.1-.258a19.583,19.583,0,0,1,.1-3.845c.335-4.1-1.015-12.652-1.359-12.988a11.265,11.265,0,0,1-.482-2.83c.077-.714.31-2.8.628-5.4a97.118,97.118,0,0,0,9.995-.86,1.247,1.247,0,0,0,.86-.344,1.2,1.2,0,0,0,.2-.7C838.089,607.578,836.206,602.572,834.253,597.807Zm-6.821,10.846c.353-2.451.731-4.825,1.109-6.589l.052.155a47.842,47.842,0,0,1,1.634,5.419A18.433,18.433,0,0,1,827.432,608.653Z" transform="translate(-155.676 -218.327)"/><path class="j" d="M802.37,648.571s2.03,18.26,6.425,25.356a49.208,49.208,0,0,1,1.35,5.746s1.015,12.506,2.365,16.222,2.365,13.865,2.365,13.865,4.731,5.4,6.425,1.015a71.236,71.236,0,0,1-1.015-17.581s.336-5.746-1.35-9.805a18.338,18.338,0,0,1,0-6.417c.671-2.709-2.709-15.886-2.709-15.886l-2.7-13.186Z" transform="translate(-156.96 -230.558)"/><path class="k" d="M823.976,724.1s-2.03,3.716-13.857,5.066c-6.141.7-6.184-.413-4.8-1.651A21.412,21.412,0,0,1,809.1,725.1s4.4-3.036,5.066-5.066,3.045-.335,3.045-.335c3.38,5.066,4.06-1.359,4.731-.679a15.258,15.258,0,0,1,1.557,3.621C823.787,723.46,823.976,724.1,823.976,724.1Z" transform="translate(-157.269 -240.499)"/><path class="d" d="M823.976,724.694s-2.03,3.716-13.857,5.066c-6.141.7-6.184-.413-4.8-1.651.963.611,2.907.86,6.821-.714,5.634-2.305,9.719-3.638,11.362-4.154C823.787,724.057,823.976,724.694,823.976,724.694Z" transform="translate(-157.269 -241.097)"/><path class="d" d="M821.72,693.194s.335-5.746-1.35-9.805a18.336,18.336,0,0,1,0-6.417c.671-2.709-2.709-15.886-2.709-15.886l-2.7-13.186-2.34.138,2.675,13.048s3.38,13.177,2.709,15.886a18.336,18.336,0,0,0,0,6.417c1.72,4.06,1.35,9.805,1.35,9.805a71.23,71.23,0,0,0,1.015,17.581,2.96,2.96,0,0,1-.981,1.393c1.256.568,2.58.542,3.346-1.393A71.24,71.24,0,0,1,821.72,693.194Z" transform="translate(-158.393 -230.558)"/><path class="b" d="M816.792,562.42a12.043,12.043,0,0,0-6.382,1.815,11.483,11.483,0,0,0-12.9,6.15,14,14,0,0,0-4.378,10.459c0,7.191,4.843,13.014,10.812,13.014,4.3,0,8.068-3.062,9.8-7.492a11.871,11.871,0,0,0,3.045.4,12.171,12.171,0,0,0,0-24.342Z" transform="translate(-155.667 -218.602)"/><path class="j" d="M830.033,650.65l1.015,2.7s1.015,17.916.671,19.611,1.359,7.741,1.359,7.741a43.273,43.273,0,0,1,2.365,18.923l.335,9.461s1.35,3.716.68,4.4-5.771-.6-5.771-.6.679-7.1-1.72-11.491-3.716-15.551-3.716-15.551-3.38-6.761-3.38-9.461-5.41-24.677-5.41-24.677Z" transform="translate(-158.93 -230.943)"/><path class="b" d="M801.576,646.8s.344-12.171,1.72-15.886a25.225,25.225,0,0,0,1.505-5.393s20.462,3.7,22.157,2.348c0,0,.335,4.731.679,5.066s1.72,8.79,1.35,12.85,0,4.051,0,4.051-13.865,2.03-14.2,0-1.35-2.021-1.35-2.021S800.9,647.436,801.576,646.8Z" transform="translate(-156.845 -227.428)"/><g class="a" transform="translate(644.731 400.44)"><path d="M812.736,650.147s-8.55-.232-11.13-.7v.7c-.671.671,11.835,1.015,11.835,1.015a.861.861,0,0,1,.464.189C813.45,650.147,812.736,650.147,812.736,650.147Z" transform="translate(-801.58 -631.215)"/><path d="M829.743,633.316c-.344-.335-.68-5.066-.68-5.066a1.455,1.455,0,0,1-.576.206,17.094,17.094,0,0,0,.576,3.845c.224.224,1.72,8.79,1.35,12.85s0,4.051,0,4.051-10.967,1.608-13.624.533a4.072,4.072,0,0,0,.1.482c.335,2.03,14.2,0,14.2,0s-.344,0,0-4.051S830.079,633.66,829.743,633.316Z" transform="translate(-803.707 -628.25)"/><path d="M812.736,650.147s-8.55-.232-11.13-.7v.7c-.671.671,11.835,1.015,11.835,1.015a.861.861,0,0,1,.464.189C813.45,650.147,812.736,650.147,812.736,650.147Z" transform="translate(-801.58 -631.215)"/><path d="M829.743,633.316c-.344-.335-.68-5.066-.68-5.066a1.455,1.455,0,0,1-.576.206,17.094,17.094,0,0,0,.576,3.845c.224.224,1.72,8.79,1.35,12.85s0,4.051,0,4.051-10.967,1.608-13.624.533a4.072,4.072,0,0,0,.1.482c.335,2.03,14.2,0,14.2,0s-.344,0,0-4.051S830.079,633.66,829.743,633.316Z" transform="translate(-803.707 -628.25)"/></g><path class="j" d="M817.717,586.615a4.482,4.482,0,0,0,1.29,1.669,2.892,2.892,0,0,0,1.213.525c-.757.439-1.583.766-2.339,1.2a41.6,41.6,0,0,0-3.44,2.58,7,7,0,0,1-3.948,1.531,4.834,4.834,0,0,0,.55-4.808,4.491,4.491,0,0,1-.6-1.669,3,3,0,0,1,1.66-2.236c.645-.439,1.307-.86,1.978-1.282.525-.327,1.316-1.015,1.978-.989s.74.611.86,1.213A9.534,9.534,0,0,0,817.717,586.615Z" transform="translate(-158.088 -221.5)"/><path class="d" d="M817.717,586.615a4.482,4.482,0,0,0,1.29,1.669,2.892,2.892,0,0,0,1.213.525c-.757.439-1.583.766-2.339,1.2a41.6,41.6,0,0,0-3.44,2.58,7,7,0,0,1-3.948,1.531,4.834,4.834,0,0,0,.55-4.808,4.491,4.491,0,0,1-.6-1.669,3,3,0,0,1,1.66-2.236c.645-.439,1.307-.86,1.978-1.282.525-.327,1.316-1.015,1.978-.989s.74.611.86,1.213A9.534,9.534,0,0,0,817.717,586.615Z" transform="translate(-158.088 -221.5)"/><circle class="j" cx="7.776" cy="7.776" r="7.776" transform="translate(659.774 369.51)"/><path class="k" d="M839.3,728.332c0,.68-1.35,2.365-1.35,2.365a16.738,16.738,0,0,1-8.111-1.015c-.679-.335.336-2.365.336-2.365l.077-.163a8.207,8.207,0,0,1,1.282-2.2c.671-.671,1.075-3.44,1.075-3.44,2.1-3.44,5.823,1.488,5.823,1.488s.473,2.58.723,4.146A11.79,11.79,0,0,1,839.3,728.332Z" transform="translate(-160.769 -240.684)"/><path class="d" d="M839.3,729.444c0,.68-1.35,2.365-1.35,2.365a16.738,16.738,0,0,1-8.111-1.015c-.679-.335.336-2.365.336-2.365l.077-.163a16.343,16.343,0,0,0,7.363,1.514l1.54-1.54C839.243,728.816,839.3,729.272,839.3,729.444Z" transform="translate(-160.769 -241.796)"/><circle class="j" cx="7.603" cy="7.603" r="7.603" transform="translate(644.396 353.452)"/><path class="j" d="M802.5,599.809c-1.669,1.591-1.944,4.111-2.116,6.408l-.258,3.363a16.97,16.97,0,0,0-.06,2.727c0,.559.138,1.127.189,1.72s.069,1.342.077,2.021v4.972a5.866,5.866,0,0,0,.551,2.985,2.03,2.03,0,0,0,2.58.929,2.942,2.942,0,0,0,1.067-1.651,25.676,25.676,0,0,0,1.72-6.3c.069-.748.077-1.5.146-2.245s.2-1.531.31-2.288c.482-3.165.7-6.365.912-9.556.06-.946.912-4.67-.327-5.083-.6-.2-1.849.421-2.426.628a6.829,6.829,0,0,0-2.365,1.368Z" transform="translate(-156.633 -223.547)"/><path class="d" d="M802.5,599.809c-1.669,1.591-1.944,4.111-2.116,6.408l-.258,3.363a16.97,16.97,0,0,0-.06,2.727c0,.559.138,1.127.189,1.72s.069,1.342.077,2.021v4.972a5.866,5.866,0,0,0,.551,2.985,2.03,2.03,0,0,0,2.58.929,2.942,2.942,0,0,0,1.067-1.651,25.676,25.676,0,0,0,1.72-6.3c.069-.748.077-1.5.146-2.245s.2-1.531.31-2.288c.482-3.165.7-6.365.912-9.556.06-.946.912-4.67-.327-5.083-.6-.2-1.849.421-2.426.628a6.829,6.829,0,0,0-2.365,1.368Z" transform="translate(-156.633 -223.547)"/><path class="k" d="M818.886,588.16s-5.746,4.4-9.126,5.41c0,0-2,2.288-2.348,2.838s-1.032,6.623-1.72,7.982-2.365,4.4,0,7.432c0,0,.671,3.045.335,4.06s-1.565,4.731-.447,4.9,4.507,2.529,7.543,1.858,14.373,2.58,14.373,2.58,1.875-17.417,3.234-20.5l-3.045-1.015s-8.446-5.066-3.38-12.842C824.3,590.869,819.548,589.854,818.886,588.16Z" transform="translate(-157.253 -222.202)"/><path class="b" d="M796.8,611.474l6.984,4.946a.516.516,0,0,0,.611,0L806.292,615a.533.533,0,0,0,0-.808l-5.376-4.774a.516.516,0,0,0-.525-.1l-3.449,1.239a.525.525,0,0,0-.138.92Z" transform="translate(-156.151 -225.157)"/><path class="j" d="M799.427,626.986a18.72,18.72,0,0,1-.731-5.273l-.1-2.383a6.88,6.88,0,0,1,.249-2.752,4.5,4.5,0,0,1,2.9-2.537,10.01,10.01,0,0,1,3.948-.284,1.015,1.015,0,0,1,.508.138.946.946,0,0,1,.275.465,3.114,3.114,0,0,1,.155,2.486,2.58,2.58,0,0,1-.791.817c-.938.671-2.03,1.118-2.916,1.849a1.058,1.058,0,0,0-.4.5,1.162,1.162,0,0,0,0,.542,8.661,8.661,0,0,0,.447,1.385,1.367,1.367,0,0,0,.387.585c.163.138.378.189.55.318.37.3,1.144.7,1.1,1.17-.129,1.72-1.161,3.647-1.565,5.35C802.67,632.688,799.926,628.439,799.427,626.986Z" transform="translate(-156.425 -225.771)"/><g class="a" transform="translate(653.676 382.016)"><path d="M812.169,628.237h-.189a5.792,5.792,0,0,0,2.211,0h.215a7.741,7.741,0,0,0-2.236,0Z" transform="translate(-811.98 -609.813)"/><path d="M832.29,606.83c-1.213,2.727-3,17.495-3.32,20.428,1.187.31,1.97.533,1.97.533s1.858-17.375,3.217-20.454Z" transform="translate(-814.357 -606.83)"/></g><path class="j" d="M826.11,600.1a2.581,2.581,0,0,0,1.11,1.677,14.882,14.882,0,0,1,1.97,2,14.131,14.131,0,0,1,1.953,3.914,47.949,47.949,0,0,1,1.626,5.35c-4.3,2-9.186,1.9-13.762,3.217a10.984,10.984,0,0,0-5.161,3.053,7.113,7.113,0,0,0-1.9,5.6.731.731,0,0,0,.1.335.722.722,0,0,0,.6.241,5.16,5.16,0,0,0,3.157-1.084,15.021,15.021,0,0,0,2.417-2.374,3.888,3.888,0,0,1,1.72-1.273,28.152,28.152,0,0,1,7.741-.757,97.551,97.551,0,0,0,11.534-.912.929.929,0,0,0,1.032-1.032c.378-5.075-1.505-10.029-3.44-14.734q-1.161-2.83-2.391-5.634a16.688,16.688,0,0,0-2.924-5.006,5.16,5.16,0,0,0-1.72-1.273,7.276,7.276,0,0,0-2.3-.43,16.348,16.348,0,0,0-3.776-.069,8.047,8.047,0,0,0-.361,1.952,16.915,16.915,0,0,0,2.082,6.6C825.543,599.775,825.912,599.792,826.11,600.1Z" transform="translate(-158.294 -222.575)"/><path class="l" d="M812.27,606.67a6.3,6.3,0,0,0-.86,3.286,4.425,4.425,0,0,0,.215,1.342,4.352,4.352,0,0,0,2.744,2.58" transform="translate(-158.224 -224.791)"/><path class="b" d="M814.968,573.379a3.947,3.947,0,0,0-1.247.2c-1.127-1.72-3.776-2.907-6.881-2.907-4.111,0-7.44,2.125-7.44,4.739s3.329,4.731,7.44,4.731a10.466,10.466,0,0,0,4.464-.946,4.051,4.051,0,1,0,3.647-5.814Z" transform="translate(-156.544 -219.756)"/><path class="d" d="M815.3,581a4.043,4.043,0,0,1-3.647-2.3,10.468,10.468,0,0,1-4.464.947c-4.1,0-7.431-2.116-7.431-4.731a2.841,2.841,0,0,1,0-.473,3.208,3.208,0,0,0-.378,1.488c0,2.58,3.329,4.731,7.44,4.731a10.467,10.467,0,0,0,4.464-.946,4.051,4.051,0,0,0,7.629-1.006A4.034,4.034,0,0,1,815.3,581Z" transform="translate(-156.541 -220.284)"/><path class="d" d="M797.511,572.38a11.483,11.483,0,0,1,12.9-6.15,12.162,12.162,0,0,1,18.51,9.341v-1.015a12.162,12.162,0,0,0-18.553-10.321,11.483,11.483,0,0,0-12.9,6.15,14,14,0,0,0-4.378,10.459v1.015A13.762,13.762,0,0,1,797.511,572.38Z" transform="translate(-155.661 -218.602)"/><path class="f" d="M886.82,562.107c2.245-4.154-.3-9.255-3.234-12.962s-6.494-7.56-6.417-12.291c.1-6.786,7.311-10.794,13.074-14.4a63.565,63.565,0,0,0,11.732-9.461,17.142,17.142,0,0,0,3.613-4.825c1.187-2.658,1.153-5.677,1.084-8.6q-.378-14.536-1.436-29.038" transform="translate(-167.422 -205.748)"/><path class="c" d="M919.078,468.289a10.571,10.571,0,0,0-5.281-8.67l-2.374,4.688.069-5.677a10.391,10.391,0,0,0-3.484-.421,10.588,10.588,0,1,0,11.07,10.081Z" transform="translate(-170.324 -204.023)"/><path class="c" d="M897.317,550.751a10.588,10.588,0,1,1,.508-8.532L891.21,547.6l7.277-1.72a10.528,10.528,0,0,1-1.17,4.868Z" transform="translate(-167.442 -214.811)"/><path class="c" d="M892.685,525.909a10.588,10.588,0,0,1-3.363-20.772l-.052,4.361,2.4-4.739h0a10.591,10.591,0,1,1,.989,21.159Z" transform="translate(-168.04 -210.535)"/><path class="c" d="M922.56,506.028a10.588,10.588,0,1,1,4.688-19.783l-1.875,5.161,3.853-3.7a10.528,10.528,0,0,1,3.44,7.311,10.22,10.22,0,0,1-.267,2.916A10.588,10.588,0,0,1,922.56,506.028Z" transform="translate(-172.215 -207.754)"/><path class="d" d="M917.657,472.053c-2.443.275-4.825,1.032-7.277,1.187s-5.161-.439-6.7-2.348a32.857,32.857,0,0,1-1.953-3.44,7.613,7.613,0,0,0-2.666-2.512,10.588,10.588,0,1,0,19.783,7.027C918.448,471.984,918.053,472.01,917.657,472.053Z" transform="translate(-170.322 -204.966)"/><path class="d" d="M922.568,507.014a10.6,10.6,0,0,1-10.072-15.1,7.835,7.835,0,0,1,2.133,2.125,33.92,33.92,0,0,0,2.1,3.5c1.643,1.944,4.464,2.58,7.019,2.46s5.023-.86,7.569-1.075c.353,0,.714-.06,1.067-.069a10.588,10.588,0,0,1-9.814,8.163Z" transform="translate(-172.222 -208.739)"/><path class="d" d="M892.685,526.923A10.58,10.58,0,0,1,882.527,512a8.729,8.729,0,0,1,2.236,2.15c.86,1.161,1.333,2.5,2.3,3.57,1.789,2,4.791,2.692,7.5,2.632s5.161-.705,7.741-.9a10.588,10.588,0,0,1-9.616,7.474Z" transform="translate(-168.04 -211.549)"/><path class="d" d="M897.327,551.861a10.6,10.6,0,0,1-19.31-8.6,10.371,10.371,0,0,1,2.322,2.073c1.015,1.23,1.677,2.58,2.838,3.767,2.168,2.124,5.66,2.993,8.773,3.079a46.377,46.377,0,0,0,5.376-.318Z" transform="translate(-167.452 -215.922)"/><path class="f" d="M1045.82,714.107c2.245-4.154-.3-9.255-3.234-12.962s-6.494-7.56-6.417-12.291c.1-6.786,7.311-10.795,13.074-14.4a63.566,63.566,0,0,0,11.732-9.461,17.141,17.141,0,0,0,3.613-4.825c1.187-2.658,1.152-5.677,1.084-8.6q-.37-14.536-1.436-29.038" transform="translate(-189.663 -227.01)"/><path class="c" d="M1078.085,620.289a10.571,10.571,0,0,0-5.281-8.67l-2.374,4.688.069-5.677a10.388,10.388,0,0,0-3.441-.421,10.588,10.588,0,1,0,11.07,10.081Z" transform="translate(-192.571 -225.285)"/><path class="c" d="M1056.317,702.751a10.588,10.588,0,1,1,.507-8.532l-6.614,5.384,7.277-1.72a10.526,10.526,0,0,1-1.17,4.868Z" transform="translate(-189.683 -236.072)"/><path class="c" d="M1051.685,677.909a10.588,10.588,0,0,1-3.363-20.772l-.052,4.361,2.4-4.739h0a10.591,10.591,0,1,1,.989,21.159Z" transform="translate(-190.281 -231.796)"/><path class="c" d="M1081.56,658.028a10.588,10.588,0,1,1,4.688-19.783l-1.875,5.161,3.853-3.7a10.528,10.528,0,0,1,3.44,7.311,10.224,10.224,0,0,1-.267,2.916A10.588,10.588,0,0,1,1081.56,658.028Z" transform="translate(-194.455 -229.015)"/><path class="d" d="M1076.657,624.053c-2.443.275-4.825,1.032-7.277,1.187s-5.161-.439-6.7-2.348a32.847,32.847,0,0,1-1.952-3.44,7.612,7.612,0,0,0-2.666-2.512,10.588,10.588,0,1,0,19.783,7.027C1077.448,623.984,1077.053,624.01,1076.657,624.053Z" transform="translate(-192.563 -226.228)"/><path class="d" d="M1081.568,659.014a10.6,10.6,0,0,1-10.072-15.1,7.837,7.837,0,0,1,2.133,2.124,33.937,33.937,0,0,0,2.1,3.5c1.643,1.944,4.464,2.58,7.018,2.46s5.023-.86,7.569-1.075c.353,0,.714-.06,1.067-.069A10.588,10.588,0,0,1,1081.568,659.014Z" transform="translate(-194.462 -230)"/><path class="d" d="M1051.685,678.923A10.579,10.579,0,0,1,1041.527,664a8.73,8.73,0,0,1,2.236,2.15c.86,1.161,1.333,2.5,2.3,3.57,1.789,2,4.791,2.692,7.5,2.632s5.161-.705,7.741-.9A10.588,10.588,0,0,1,1051.685,678.923Z" transform="translate(-190.281 -232.81)"/><path class="d" d="M1056.327,703.861a10.6,10.6,0,0,1-19.31-8.6,10.372,10.372,0,0,1,2.322,2.073c1.015,1.23,1.72,2.58,2.838,3.767,2.168,2.124,5.66,2.993,8.773,3.079a46.4,46.4,0,0,0,5.376-.318Z" transform="translate(-189.693 -237.183)"/><path class="m" d="M511.246,583.982a8.438,8.438,0,0,0-3.363-6.812,9.891,9.891,0,0,0-8.266-9.7,9.874,9.874,0,0,0-6.58-7.354h0a8.4,8.4,0,0,0-1.221-.284h-1.454A9.685,9.685,0,0,0,481,568.1c-3.019-.7-5.78.206-6.287,2.116a2.581,2.581,0,0,0,.086,1.531,6.656,6.656,0,0,0,4.438,3.6l.292.086.439.112h.095a7.6,7.6,0,0,0-.722,3.26,7.518,7.518,0,0,0,4.051,6.709l-.2.12a2.683,2.683,0,0,0-.654.912,13.642,13.642,0,0,0-1.264,3.045c-.215.912-.249,1.858-.516,2.761-.5,1.66-1.772,3.062-1.918,4.791-.069.774.06,1.72-.49,2.219a2.676,2.676,0,0,1-.439.31,3.551,3.551,0,0,0-.955,1.006,3.337,3.337,0,0,1-.671.963c-.5.37-1.316.336-1.557.912s.387,1.256.241,1.884-.68.748-1.067,1.1a3.828,3.828,0,0,0-.92,1.72,5.642,5.642,0,0,1-4.645-1.187,8.683,8.683,0,0,1,.482,1.72,7.535,7.535,0,0,0-2.5-1.256,7.9,7.9,0,0,1-2.666-1.978l1.428-.2-6.3-9.625-1.866-.387,1.669,3.208a1.023,1.023,0,0,0-.568.679,2.916,2.916,0,0,0-.06,1.092,19.56,19.56,0,0,0,.43,2.58l.482,2.253c.043.206.095.421.155.628a5.929,5.929,0,0,0-1.866.206,16.242,16.242,0,0,0-3.879-.92,2.15,2.15,0,0,0-.86,0,2.228,2.228,0,0,0-.817.662,26.46,26.46,0,0,0-2.881,4.06c-3.44,5.9-7.922,11.053-12.162,16.385-2.924,1.187-5.875,2.314-8.825,3.44l-6.348,2.426a9.625,9.625,0,0,1-3.939.86c-.6,0-1.35-.129-1.72.387a3.621,3.621,0,0,0-.387.86l-.654.069h0a7.517,7.517,0,0,0-1.522-2.8.963.963,0,0,0-.714.551c-.155.284-.249.593-.43.86-.335.5-.929.74-1.35,1.161s-.688,1.075-1.153,1.505a4.558,4.558,0,0,1-2.159.86,13.625,13.625,0,0,0-3.38,1.282,5.447,5.447,0,0,1-1.247.576,4.687,4.687,0,0,1-1.471.052l-3.354-.249a2.65,2.65,0,0,0-.9.043,1.72,1.72,0,0,0-1.067,1.72A2.709,2.709,0,0,0,397,640.63a6.828,6.828,0,0,0,1.909.989,56.04,56.04,0,0,0,8.945,2.649v.68a15.267,15.267,0,0,0,6.881,1.634,1.067,1.067,0,0,0,.516-.095,1.135,1.135,0,0,0,.43-.671,27.674,27.674,0,0,0,1.342-6.589h0a3.442,3.442,0,0,0,1.213-.31c1.153-.318,2.305.473,3.5.6,1.471.163,2.83-.7,4.223-1.221l.6-.2a6.606,6.606,0,0,1-1.393,1.333c-.576.413-1.221.722-1.78,1.153a12.273,12.273,0,0,1-1.514,1.17,9.5,9.5,0,0,1-1.161.447,7.664,7.664,0,0,0-1.66.86,3.363,3.363,0,0,0-1.127,1.1,1.652,1.652,0,0,0-.095,1.548,1.634,1.634,0,0,0,1.11.774,4.55,4.55,0,0,0,1.368,0c1.823-.138,3.638-.3,5.453-.464a14.543,14.543,0,0,0,2.279-.327c.4-.095.791-.224,1.187-.335a10.59,10.59,0,0,1,2.073-.31,1.721,1.721,0,0,1,.6.06c.421.138.723.568,1.153.654a1.72,1.72,0,0,0,.86-.112,19.184,19.184,0,0,1,4.034-.43,1.665,1.665,0,0,0,1.565-.7c.275-.55-.224-1.436-.447-2.168a6.633,6.633,0,0,1-.189-1.428,8.938,8.938,0,0,0-1-3.389,8.842,8.842,0,0,1-.748-1.548,39.114,39.114,0,0,0,7.423-3.767,13.274,13.274,0,0,1,4.232-2.038,11.509,11.509,0,0,1,5.315.619,120.937,120.937,0,0,1,12.188,4.249c1.9.783,3.793,1.608,5.754,2.2a8.972,8.972,0,0,0,2.047,1.987,9.462,9.462,0,0,0,4.43,1.213,58.044,58.044,0,0,0,6.236.232,10.518,10.518,0,0,0,4.645-.86,4.772,4.772,0,0,0,.972-.645,3.853,3.853,0,0,0,3.062-1.127,7.423,7.423,0,0,0,2.331-3.682c.507-1.961.12-4.3,1.325-5.866.318-.43.74-.774,1.058-1.2a3.389,3.389,0,0,0,.55-1.987.4.4,0,0,1,.052-.077,7.288,7.288,0,0,0,.516-1.978,11.3,11.3,0,0,1,.559-1.565,48.347,48.347,0,0,0,1.6-4.636,27.1,27.1,0,0,0,.74-3.182c.129-.86.206-1.72.275-2.58a16.029,16.029,0,0,1,.783-3.982,32.408,32.408,0,0,0,1.806-9.53V597.6a6.391,6.391,0,0,0,5.66-6.5,6.786,6.786,0,0,0-.593-2.778,8.6,8.6,0,0,0,1.153-4.335Zm-30.775,37.39c.095.336.206.662.318.989-.507-.49-1-1-1.505-1.5.2.069.4.129.593.206a3.207,3.207,0,0,1,.568.3Zm-2.434-1.651c-2.976-2.58-6.417-4.584-9.461-7.087,1.66.817,3.277,1.772,4.877,2.684q2.847,1.626,5.771,3.122a4.721,4.721,0,0,1-1.213,1.282Zm1.264-6.5.146-.146V614.1l-.8-.275a7.124,7.124,0,0,0,.628-.6Zm-26.174,6.967a24.626,24.626,0,0,0,3.165-4.516c1.178,2.056,3.1,3.544,4.722,5.273C458.391,620.606,455.759,620.322,453.127,620.185Z" transform="translate(-100.107 -218.239)"/><path class="n" d="M415.35,438.25l1.875.378,6.391,9.453-2.813.378Z" transform="translate(-58.098 -61.351)"/><path class="o" d="M414.49,645.445a36.8,36.8,0,0,0,1.875,4.877,46.429,46.429,0,0,0,6.236-1.781,19.651,19.651,0,0,0-1.3-1.72,6.415,6.415,0,0,0-1.763-1.35,4.851,4.851,0,0,0-2.142,0C416.434,645.445,415.462,645.462,414.49,645.445Z" transform="translate(-102.704 -230.202)"/><path class="n" d="M416.934,647.524A3.888,3.888,0,0,1,414.8,645.1a7.81,7.81,0,0,0-1.626-2.9.929.929,0,0,0-.723.542c-.155.275-.249.585-.421.86-.344.49-.946.731-1.376,1.144s-.688,1.058-1.153,1.479a4.575,4.575,0,0,1-2.176.86,14.11,14.11,0,0,0-3.441,1.264,5.936,5.936,0,0,1-1.264.568,5,5,0,0,1-1.479,0l-3.389-.241a2.648,2.648,0,0,0-.86,0,1.643,1.643,0,0,0-1.075,1.72,2.581,2.581,0,0,0,1.075,1.823,7.14,7.14,0,0,0,1.927.981,56.686,56.686,0,0,0,9.083,2.58v.671a15.723,15.723,0,0,0,6.924,1.608,1.169,1.169,0,0,0,.516-.086,1.135,1.135,0,0,0,.43-.671,26.835,26.835,0,0,0,1.419-7.363,5.866,5.866,0,0,0-.146-1.9c-.189-.611.447-.353-.138-.594" transform="translate(-100.091 -229.761)"/><path class="n" d="M485.081,633.1c-10.046.6-19.972-2.339-30.035-2.649a14.664,14.664,0,0,0-3.733.232,18.8,18.8,0,0,0-3.7,1.436c-5.393,2.512-10.975,4.593-16.549,6.666l-6.408,2.383a9.7,9.7,0,0,1-3.965.86c-.611,0-1.359-.129-1.72.378-1.041,1.548-.551,3.81.138,5.548.224.559.6,1.17,1.2,1.23a3.5,3.5,0,0,0,1.221-.31c1.161-.31,2.322.473,3.526.6,1.479.155,2.856-.688,4.258-1.2,2.322-.86,4.851-.86,7.294-1.239a32.679,32.679,0,0,0,11.422-4.739,13.333,13.333,0,0,1,4.258-2.013,11.784,11.784,0,0,1,5.359.611,123,123,0,0,1,12.291,4.18,57.288,57.288,0,0,0,6.417,2.348,23.223,23.223,0,0,0,14.39-.86c1.608-.636,3.354-1.72,3.44-3.492.06-.989-.714-1.858-1.221-2.709-.327-.542-.662-1.084-1.015-1.608C490.234,636.261,488.135,632.923,485.081,633.1Z" transform="translate(-103.247 -228.114)"/><path class="d" d="M485.081,633.1c-10.046.6-19.972-2.339-30.035-2.649a14.664,14.664,0,0,0-3.733.232,18.8,18.8,0,0,0-3.7,1.436c-5.393,2.512-10.975,4.593-16.549,6.666l-6.408,2.383a9.7,9.7,0,0,1-3.965.86c-.611,0-1.359-.129-1.72.378-1.041,1.548-.551,3.81.138,5.548.224.559.6,1.17,1.2,1.23a3.5,3.5,0,0,0,1.221-.31c1.161-.31,2.322.473,3.526.6,1.479.155,2.856-.688,4.258-1.2,2.322-.86,4.851-.86,7.294-1.239a32.679,32.679,0,0,0,11.422-4.739,13.333,13.333,0,0,1,4.258-2.013,11.784,11.784,0,0,1,5.359.611,123,123,0,0,1,12.291,4.18,57.288,57.288,0,0,0,6.417,2.348,23.223,23.223,0,0,0,14.39-.86c1.608-.636,3.354-1.72,3.44-3.492.06-.989-.714-1.858-1.221-2.709-.327-.542-.662-1.084-1.015-1.608C490.234,636.261,488.135,632.923,485.081,633.1Z" transform="translate(-103.247 -228.114)"/><path class="o" d="M436.92,645.32q2.357.8,4.756,1.479c.86-1.471,2.58-2.494,2.95-4.18a.4.4,0,0,0,0-.224.413.413,0,0,0-.181-.163,9.014,9.014,0,0,0-3.733-1.092c-1.032-.06-1.505,1.015-1.97,1.772C438.563,643.247,437.341,645.483,436.92,645.32Z" transform="translate(-105.841 -229.612)"/><path class="n" d="M436.954,644.392a3.44,3.44,0,0,1-2.314-1.522c-.215-.387-.456-.912-.9-.86s-.593.516-.688.92a25.806,25.806,0,0,1-1.3,4.464,8.378,8.378,0,0,1-2.778,3.656c-.585.4-1.23.705-1.806,1.135a12.405,12.405,0,0,1-1.522,1.153,9.057,9.057,0,0,1-1.17.43,8.106,8.106,0,0,0-1.669.86,3.312,3.312,0,0,0-1.144,1.092,1.574,1.574,0,0,0-.086,1.522,1.625,1.625,0,0,0,1.11.757,4.676,4.676,0,0,0,1.385,0c1.832-.129,3.664-.292,5.5-.456a15.876,15.876,0,0,0,2.3-.318l1.2-.327a9.517,9.517,0,0,1,2.09-.31,1.626,1.626,0,0,1,.611.06c.421.138.723.559,1.161.645a1.943,1.943,0,0,0,.86-.112,19,19,0,0,1,4.068-.421,1.717,1.717,0,0,0,1.583-.688c.344-.671-.224-1.419-.456-2.142a6.879,6.879,0,0,1-.189-1.4,8.55,8.55,0,0,0-1.006-3.337c-.464-.86-1.1-1.806-.774-2.718a2.58,2.58,0,0,0,.31-.938C441.185,644.057,437.8,644.581,436.954,644.392Z" transform="translate(-103.673 -229.734)"/><path class="o" d="M477.044,613.363a7.845,7.845,0,0,1-4.008-3.974c-.163-.378-.3-.783-.464-1.161a8.826,8.826,0,0,0-2.391-3.329,1.178,1.178,0,0,0-.86-.37.937.937,0,0,0-.645.7,2.658,2.658,0,0,0-.069,1.075,19.142,19.142,0,0,0,.43,2.511l.49,2.219a4.87,4.87,0,0,0,.3.989,3.441,3.441,0,0,0,.817.972c.447.413.9.809,1.359,1.2a4.667,4.667,0,0,0,.86.594,5,5,0,0,0,1.522.447,12.954,12.954,0,0,1,5.711,2.2s0-1.488,0-1.651a2.184,2.184,0,0,0-.43-1.2A7.629,7.629,0,0,0,477.044,613.363Z" transform="translate(-110.27 -224.492)"/><path class="d" d="M477.044,613.363a7.845,7.845,0,0,1-4.008-3.974c-.163-.378-.3-.783-.464-1.161a8.826,8.826,0,0,0-2.391-3.329,1.178,1.178,0,0,0-.86-.37.937.937,0,0,0-.645.7,2.658,2.658,0,0,0-.069,1.075,19.142,19.142,0,0,0,.43,2.511l.49,2.219a4.87,4.87,0,0,0,.3.989,3.441,3.441,0,0,0,.817.972c.447.413.9.809,1.359,1.2a4.667,4.667,0,0,0,.86.594,5,5,0,0,0,1.522.447,12.954,12.954,0,0,1,5.711,2.2s0-1.488,0-1.651a2.184,2.184,0,0,0-.43-1.2A7.629,7.629,0,0,0,477.044,613.363Z" transform="translate(-110.27 -224.492)"/><ellipse class="n" cx="2.443" cy="2.46" rx="2.443" ry="2.46" transform="translate(384.785 366.973)"/><path class="n" d="M497.691,590.468a2.64,2.64,0,0,0-1.927.275,2.675,2.675,0,0,0-.662.9,13.116,13.116,0,0,0-1.273,2.993c-.215.86-.249,1.832-.525,2.718-.5,1.634-1.78,3.019-1.927,4.722-.069.766.06,1.66-.5,2.176a3.157,3.157,0,0,1-.439.318,3.3,3.3,0,0,0-.963.989,3.243,3.243,0,0,1-.68.938c-.5.37-1.325.335-1.565.86s.387,1.239.241,1.858-.688.74-1.075,1.084a3.758,3.758,0,0,0-.929,1.72,5.737,5.737,0,0,1-4.679-1.161,14.9,14.9,0,0,1,.731,5.35,2.185,2.185,0,0,1-.43,1.651,29.786,29.786,0,0,1,5.737,1,3.957,3.957,0,0,0,2.5,0,4.179,4.179,0,0,0,1.153-.912,7.347,7.347,0,0,0,2.365-3.647,21.436,21.436,0,0,0,.043-2.469,13.915,13.915,0,0,1,.628-3,35.726,35.726,0,0,0,1.092-6.176c.112-1.29,1.23-2.322,1.815-3.44,1.1-2.176,2.236-4.438,2.314-6.881C498.775,591.543,498.5,590.554,497.691,590.468Z" transform="translate(-111.978 -222.515)"/><path class="d" d="M497.691,590.468a2.64,2.64,0,0,0-1.927.275,2.675,2.675,0,0,0-.662.9,13.116,13.116,0,0,0-1.273,2.993c-.215.86-.249,1.832-.525,2.718-.5,1.634-1.78,3.019-1.927,4.722-.069.766.06,1.66-.5,2.176a3.157,3.157,0,0,1-.439.318,3.3,3.3,0,0,0-.963.989,3.243,3.243,0,0,1-.68.938c-.5.37-1.325.335-1.565.86s.387,1.239.241,1.858-.688.74-1.075,1.084a3.758,3.758,0,0,0-.929,1.72,5.737,5.737,0,0,1-4.679-1.161,14.9,14.9,0,0,1,.731,5.35,2.185,2.185,0,0,1-.43,1.651,29.786,29.786,0,0,1,5.737,1,3.957,3.957,0,0,0,2.5,0,4.179,4.179,0,0,0,1.153-.912,7.347,7.347,0,0,0,2.365-3.647,21.436,21.436,0,0,0,.043-2.469,13.915,13.915,0,0,1,.628-3,35.726,35.726,0,0,0,1.092-6.176c.112-1.29,1.23-2.322,1.815-3.44,1.1-2.176,2.236-4.438,2.314-6.881C498.775,591.543,498.5,590.554,497.691,590.468Z" transform="translate(-111.978 -222.515)"/><path class="n" d="M489.622,632.635c-2.09-1-3.621-2.847-5.316-4.438-3.225-3.036-7.173-5.161-10.571-8.025-2.254-1.884-4.3-4.077-6.735-5.66a16.832,16.832,0,0,0-7.216-2.52,1.92,1.92,0,0,0-.86,0,1.978,1.978,0,0,0-.817.645,26,26,0,0,0-2.916,4c-4.3,7.311-10.416,13.452-15.482,20.247a1.29,1.29,0,0,0-.249.482,1.2,1.2,0,0,0,.189.748l1.032,2.013c.576,1.135,1.505,2.451,2.744,2.228a3,3,0,0,0,1.436-.92l4.627-4.43,4.851-4.636c2.838-2.709,5.728-5.488,7.586-8.963,1.445,2.512,4.017,4.154,5.771,6.451.671.86,1.221,1.832,1.823,2.761.955,1.479,2.047,2.873,3.131,4.3l5.565,7.1a10.647,10.647,0,0,0,2.58,2.58,9.849,9.849,0,0,0,4.464,1.2,58.972,58.972,0,0,0,6.288.224,10.839,10.839,0,0,0,4.688-.86,4.249,4.249,0,0,0,2.537-3.776,5.539,5.539,0,0,0-.8-2.348A19.169,19.169,0,0,0,489.622,632.635Z" transform="translate(-106.196 -225.529)"/><ellipse class="p" cx="1.884" cy="1.892" rx="1.884" ry="1.892" transform="translate(386.849 369.244)"/><path class="o" d="M503.05,591.569a3.621,3.621,0,0,1,.206,2.718,11.026,11.026,0,0,1-1.213,2.5,11.916,11.916,0,0,1-1.574,2.236,16.2,16.2,0,0,0,8.274-2.374c2.064-1.11,4.12-2.477,5.221-4.55a2.408,2.408,0,0,1-1.927-.361,6.881,6.881,0,0,1-1.471-1.368l-1.454-1.634a6.543,6.543,0,0,1-.86-1.178,3.252,3.252,0,0,1-.387-1.9,11.071,11.071,0,0,1-1.927,1.6c-1.041.68-2.185,1.17-3.234,1.841-.361.241-1.187.619-.972,1.1S502.758,591.053,503.05,591.569Z" transform="translate(-114.731 -221.852)"/><path class="d" d="M503.05,591.569a3.621,3.621,0,0,1,.206,2.718,11.026,11.026,0,0,1-1.213,2.5,11.916,11.916,0,0,1-1.574,2.236,16.2,16.2,0,0,0,8.274-2.374c2.064-1.11,4.12-2.477,5.221-4.55a2.408,2.408,0,0,1-1.927-.361,6.881,6.881,0,0,1-1.471-1.368l-1.454-1.634a6.543,6.543,0,0,1-.86-1.178,3.252,3.252,0,0,1-.387-1.9,11.071,11.071,0,0,1-1.927,1.6c-1.041.68-2.185,1.17-3.234,1.841-.361.241-1.187.619-.972,1.1S502.758,591.053,503.05,591.569Z" transform="translate(-114.731 -221.852)"/><path class="p" d="M501.648,592.81a2.451,2.451,0,0,0,0,2.838c.086.1.4.748.525.757a.473.473,0,0,0,.327-.172,21.59,21.59,0,0,0,1.841-2.193,4.094,4.094,0,0,1,2.339-1.531,5.058,5.058,0,0,1,3.225,1.006,3.061,3.061,0,0,1,1.11.86,3,3,0,0,1,.361,1.23,59.258,59.258,0,0,1,.327,7.819,30.81,30.81,0,0,1-.37,5.634c-.189.955-.464,1.892-.594,2.864a18.269,18.269,0,0,0-.12,2.58v3.6a9.461,9.461,0,0,0,.138,1.97c.172.783.542,1.514.791,2.279a14.909,14.909,0,0,1,.525,2.692l.49,3.716a4.7,4.7,0,0,1-.439,3.441c-.318.422-.74.766-1.067,1.187-1.213,1.583-.86,3.845-1.333,5.78a7.208,7.208,0,0,1-2.357,3.613,3.9,3.9,0,0,1-3.1,1.11c-1.514-.284-2.417-1.858-2.83-3.346s-.559-3.1-1.454-4.361a11.569,11.569,0,0,0-2.873-2.4,4.963,4.963,0,0,1-2.245-2.916c-.095-.542,0-1.1-.095-1.651a3.9,3.9,0,0,0-2.4-3.157c-.774-.3-1.72-.413-2.168-1.118a5.221,5.221,0,0,0,2.262-3.036,15.594,15.594,0,0,0,.55-3.836l.258-4.3a14.365,14.365,0,0,1,1.024-5.582c.378-.774.86-1.505,1.247-2.271a24.65,24.65,0,0,0,1.333-3.329c.619-1.772,1.239-3.544,1.789-5.333a10.048,10.048,0,0,1,.981-2.486C500.109,593.954,500.779,592.982,501.648,592.81Z" transform="translate(-113.294 -222.81)"/><path class="n" d="M492.34,620.758h1.144l.241-1.72a3.586,3.586,0,0,1,.241-1.006,6.02,6.02,0,0,1,.662-.963c1.118-1.591,1.041-3.7,1.316-5.634a28.667,28.667,0,0,1,2.512-7.363l2.219-4.946a6.829,6.829,0,0,0,.482-1.264,7.584,7.584,0,0,0,.138-1.462c0-.766.241-3.552.267-4.3,0-.284-.628-.129-.757-.378-.275-.55-.654.938-1.178,1.264a2.89,2.89,0,0,0-1.024,1.5c-.482,1.239-.774,2.58-1.221,3.81a7.784,7.784,0,0,1-2.073,3.372c-.456.4-.981.714-1.411,1.144-1.376,1.359-1.514,3.518-1.557,5.462C492.306,609.456,492.082,620.758,492.34,620.758Z" transform="translate(-113.576 -222.683)"/><path class="n" d="M509.8,590.451a3.9,3.9,0,0,0-2.038,2.8,14.142,14.142,0,0,1-1.032,3.44c-1.393,2.426-4.946,3.131-5.935,5.754a10.581,10.581,0,0,0-.4,2.709c-.172,1.884-.791,3.7-.981,5.574a24.831,24.831,0,0,0,.1,4.378l1.247,14.811a19.783,19.783,0,0,1-.37,6.52,6.279,6.279,0,0,0,3.733-.619c1.161-.533,2.228-1.264,3.354-1.884,1.927-1.067,4.06-1.815,5.754-3.234a3.519,3.519,0,0,0,.774-.86,7.44,7.44,0,0,0,.516-1.944,10.492,10.492,0,0,1,.559-1.531,45.092,45.092,0,0,0,1.617-4.576,26.272,26.272,0,0,0,.74-3.131c.138-.86.215-1.72.284-2.58a15.138,15.138,0,0,1,.791-3.914,31.524,31.524,0,0,0,1.815-9.393,4.909,4.909,0,0,0-.095-1.376,7.362,7.362,0,0,0-.757-1.574c-.516-.972-.86-2.038-1.307-3.028a14.889,14.889,0,0,0-5.083-5.341C512.1,590.769,510.93,590.047,509.8,590.451Z" transform="translate(-114.577 -222.506)"/><path class="o" d="M479.1,617.758a8.969,8.969,0,0,1-2.365-1.8c-.31-.361-.568-.766-.86-1.127a5.858,5.858,0,0,0-2.976-1.72,14.537,14.537,0,0,0-3.44-.336,6.242,6.242,0,0,0-2.3.275,2.34,2.34,0,0,0-1.522,1.634A2.709,2.709,0,0,0,466.8,617.1a5.47,5.47,0,0,0,2.314,1.118,18.511,18.511,0,0,0,2.09.249c4.111.43,7.784,2.666,11.388,4.7q4.748,2.7,9.685,5.023a20.129,20.129,0,0,0,.163-2.967c0-.74-.06-1.875-.757-2.314a15.189,15.189,0,0,0-3.079-.92,48.447,48.447,0,0,1-6.2-2.512A30.858,30.858,0,0,1,479.1,617.758Z" transform="translate(-109.858 -225.644)"/><ellipse class="o" cx="7.328" cy="7.371" rx="7.328" ry="7.371" transform="translate(379.899 354.131)"/><path class="n" d="M510.992,600.028a11.747,11.747,0,0,0-1.419,2.658c-.86,1.858-2.322,3.44-3.036,5.41s-.722,4.5-2.193,6.107a2.141,2.141,0,0,0-.645.929,4.436,4.436,0,0,1-.069.671c-.215.585-1.17.611-1.35,1.213-.052.172,0,.361-.086.533-.146.387-.662.447-1,.68-.714.482-.568,1.6-1.075,2.3a1.935,1.935,0,0,1-1.832.645,6.451,6.451,0,0,1-1.9-.714,1.834,1.834,0,0,0-.688-.215,1.419,1.419,0,0,0-.791.275,4.877,4.877,0,0,0-1.978,4.172,13.625,13.625,0,0,0,1.135,4.67,1.875,1.875,0,0,0,.37.7,1.643,1.643,0,0,0,1.823.138,8.6,8.6,0,0,1,1.78-.8c1.135-.206,2.245.576,3.4.508a4.722,4.722,0,0,0,2.288-1.006,12.643,12.643,0,0,0,3.079-2.58c.5-.662.86-1.411,1.307-2.116a27.145,27.145,0,0,1,1.849-2.469l4.232-5.161A11.884,11.884,0,0,0,515.327,615a11.031,11.031,0,0,0,.86-2.365,18.122,18.122,0,0,0,.86-4.206,16.162,16.162,0,0,0-.31-3.526,12.465,12.465,0,0,0-.86-3.363C514.957,599.6,512.72,598.015,510.992,600.028Z" transform="translate(-113.675 -223.731)"/><path class="q" d="M525.05,585.111a8.257,8.257,0,0,0-3.389-6.709,9.814,9.814,0,0,0-8.335-9.556,9.522,9.522,0,0,0-18.759.507c-3.045-.688-5.832.206-6.339,2.081s1.643,4.3,4.851,5.161a9.038,9.038,0,0,0,3.114.31,9.53,9.53,0,0,0,6.554,4.086,9.779,9.779,0,0,0,7.156,7.38,8.214,8.214,0,0,0,2.21,3.053v.714a6.2,6.2,0,0,0,12.4,0,6.621,6.621,0,0,0-.593-2.744A8.291,8.291,0,0,0,525.05,585.111Z" transform="translate(-113.008 -218.43)"/><path class="d" d="M490.291,571.83c.507-1.875,3.294-2.77,6.339-2.081a9.685,9.685,0,0,1,9.461-8.154h.628a9.321,9.321,0,0,0-2.7-.4,9.685,9.685,0,0,0-9.461,8.154c-3.045-.688-5.832.206-6.339,2.081s1.643,4.3,4.851,5.161a9.46,9.46,0,0,0,1.841.318C491.839,575.984,489.783,573.748,490.291,571.83Z" transform="translate(-113.007 -218.43)"/><path class="d" d="M515.482,595.106a6.457,6.457,0,0,1,0-.705,8.033,8.033,0,0,1-2.211-3.053,9.754,9.754,0,0,1-7.156-7.388,9.5,9.5,0,0,1-6.563-4.077,8.256,8.256,0,0,1-1.832-.052,9.556,9.556,0,0,0,6.322,3.759,9.78,9.78,0,0,0,7.156,7.38,8.214,8.214,0,0,0,2.211,3.053v.714a6.313,6.313,0,0,0,6.167,6.417A6.416,6.416,0,0,1,515.482,595.106Z" transform="translate(-114.346 -221.037)"/><ellipse class="o" cx="1.127" cy="1.505" rx="1.127" ry="1.505" transform="translate(387.872 362.492) rotate(-37.22)"/></g></svg>