<svg xmlns="http://www.w3.org/2000/svg" width="774.962" height="222.274" viewBox="0 0 774.962 222.274"><defs><style>.a{fill:#ecf8f9;}.b,.c,.s{opacity:0.5;}.c{fill:#aec3ff;}.d{fill:#ffb27d;}.e{fill:#2b478b;}.f{fill:#1aa6b7;}.g{fill:#2c3a64;}.h{fill:#739af0;}.i{fill:#6385db;}.j{fill:#ed985f;}.k{fill:#304b77;}.l{fill:#f8fcff;}.m{fill:#24406d;}.n,.s{fill:#233862;}.o{fill:#ed975d;}.p{fill:#fff;}.q{fill:#ef9f6a;}.r{fill:#1a2d4c;}.t{fill:#ebf3fa;}.u{fill:#6bb7bf;}.v{fill:#86d1cd;}.w{fill:#5685d8;}.x{fill:#f99746;}.y{fill:#2e3552;}</style></defs><g transform="translate(0 -0.039)"><g transform="translate(0 0.039)"><path class="a" d="M65.17,220.56s-40.883-76.79,0-149.274S188.69,14.393,232.184,35.5,333.959-6.706,429.643.634,522.73,52.02,615.794,40.092s161.8-4.808,185.282,58.144-13.918,122.321-13.918,122.321Z" transform="translate(-33.862 -0.039)"/><g class="b" transform="translate(216.392 76.125)"><path class="c" d="M862.5,316.909s-3.248-27.236-17.206-43.488a3.046,3.046,0,0,0-5.345,2.06v.145C840.133,280.485,855.759,300.978,862.5,316.909Z" transform="translate(-821.541 -272.362)"/><path class="c" d="M816.756,331.764s-13.907-34.045-37.651-49.093a3.232,3.232,0,0,0-4.38.839c-.632.92-.917,2.359-.207,4.6C776.4,294.085,802.893,314.24,816.756,331.764Z" transform="translate(-774.101 -279.418)"/></g><g class="b" transform="translate(46.317 181.848)"><path class="c" d="M254.637,673.488s-19.713-19.073-40.8-22.872A3.047,3.047,0,0,0,211,655.589l.1.109C214.3,659.352,239.357,665.384,254.637,673.488Z" transform="translate(-197.803 -650.564)"/><path class="c" d="M228.764,712.412s-32.273-17.628-60.193-14.313a3.232,3.232,0,0,0-2.876,3.408c.089,1.118.777,2.407,2.745,3.7C173.681,708.658,206.949,707.571,228.764,712.412Z" transform="translate(-165.689 -684.513)"/></g><path class="c" d="M221.321,309.8s-1.16,27.51-6.264,26.978,3.5-30.562,3.5-30.562-21.759-17.471-31.588-18.774c0,0,9.225,29.265,4.4,27.493s-15.83-31.778-15.83-31.778-24.04-10.486-31.524,3.464-2.7,22.9.8,24.7,27.454,7.03,26.115,9.985-18.617,4.174-26.962-.7c0,0,4.235,26.8,17.547,28.586s19.216-5.342,27.423-4.09,13.594,4.789,9.06,6.018-17.84-3.394-25.637.629-13.862,6.211-2.343,11.5,33.584,8.78,40.086.484l.813-1.037a5.033,5.033,0,0,1-.813,1.037c1.929,1.82,3.833,8.8,5.049,14.1.143.886.405,2.13.839,3.833h0c.157.76.28,1.384.361,1.817,1.786,11.657-4.752,29.55-4.752,29.55l2.424,1.294c10.035-17.234,3.536-34.817,3.536-34.817-3.7-13.605-.945-24.077-.945-24.077s26.277-7.623,19.531-27.82C236.139,327.628,229.975,314.747,221.321,309.8Z" transform="translate(-100.903 -201.287)"/><path class="c" d="M1831.275,279.052c-4.5-16.473-32.307-11.266-32.307-11.266s-18.827,28.885-24.32,29.584,11.277-27.851,11.277-27.851c-10.648-1.009-37.738,12.1-37.738,12.1s1.786,33.651-3.709,32.986-.062-29.877-.062-29.877c-10.3,3.111-19.886,15.151-19.886,15.151-11.978,19.6,13.806,33.97,13.806,33.97s.366,11.674-6.818,25.083h0a39.738,39.738,0,0,0-3.273,6.681h2.8q.341-1.118.758-2.18V363.4c.193-.433.467-1.051.811-1.806h0c.855-1.677,1.431-2.924,1.8-3.821h0c2.561-5.278,6.25-12.157,8.716-13.6a5.455,5.455,0,0,1-.6-1.286l.6,1.286c4.828,10.293,28.871,11.961,42.258,9.186s7.548-6.541.319-12.658-22.33-4.473-26.8-6.863,2.052-4.811,10.98-4.143,13.418,9.588,27.839,10.933,25.36-25.807,25.36-25.807c-9.952,3.111-27.82-2.348-28.513-5.778s25.748-3.145,29.869-4.193S1835.773,295.516,1831.275,279.052Z" transform="translate(-1240.168 -192.377)"/><path class="d" d="M567.833,423.751c3.355-.333,7.346-.922,8.945-1.9,2.418-1.476,6.606-7.676,9.188-12.2.073-.112.24-2.4.3-2.516,1.347-2.4,1.957-.922,2.032-2.823a9.541,9.541,0,0,0-.313-3.027,7.721,7.721,0,0,0-1.367-2.731,1.4,1.4,0,0,0-.257-.313,6.373,6.373,0,0,0-1.753-1.5c-.442-.184-.922.036-1.42.559v.025a8.459,8.459,0,0,0-1.275,1.881c-.02.02-.036.036-.036.056-.092.165-.185.349-.3.559a.466.466,0,0,0-.073.129q-.3.637-.609,1.328c-2.27,4.948-3.981,13.138-5.991,15.361-.867.959-5.546,2.158-8.7,3.561C563.92,421.2,565.6,423.988,567.833,423.751Z" transform="translate(-407.142 -285.803)"/><path class="e" d="M623.6,398.211c-.872.755-1.862,3.248-2.141,4.087,0,0,2.415-.092,3.391,1.764C624.851,404.061,624.859,397.12,623.6,398.211Z" transform="translate(-447.737 -286.822)"/><path class="f" d="M249.32,501.936,221.12,398.56l24.641-1.714,9.13,50.6q1.535,8.308,2.474,13.918t1.585,10.013q.02-6.566.246-12.672t.721-11.741l4.291-51.393,24.641-1.714,11.089,50.256q.688,3.03,2.686,14.041,1.2,6.429,1.937,10.125.089-9.5.226-14.927t.3-9.065l2.01-51.715L331.8,390.85,318.338,497.134l-26.481,1.842-8.736-42.951q-1.146-5.666-2.164-11.922T279,431.14q0,7.8-.162,13.9t-.467,11.461l-2.438,43.608Z" transform="translate(-159.308 -281.603)"/><path class="g" d="M632.277,293.311c0-.333.28-3.914,5.725-4.1,0,0-2.684.319-3.145,1.5,0,0,1.825-1.456,3.315-.99s2.362,3.075,2.371,3.933-.819,3.634-1.761,3.855a2.882,2.882,0,0,1-1.143,0,12.882,12.882,0,0,1,.732,1.308c2.178,4.473-.067,8.836-1.912,8.353-1.182-.31-1.515,1.708-1.515,1.708l-11.484-9.3S627.684,290.854,632.277,293.311Z" transform="translate(-449.178 -208.375)"/><path class="h" d="M640.73,579.464l2.44.909s10.595-14.693,11.9-27.621a19.638,19.638,0,0,0-.349-6.608s.1-.593.28-1.638c.084-.489.187-1.076.3-1.747.344-1.974.819-4.674,1.361-7.749,1.247-7.075,2.862-16.118,4.115-22.769l-.657-.21-7.112-2.3-1.47-4.668-5.294-1.4s-1.182,2.315-2.236,13.245c-.2,1.434-.372,3.014-.506,4.73a93.606,93.606,0,0,0,.5,19.146q.363,2.848.931,5.87a26.159,26.159,0,0,1,.2,5.8C644.61,563.042,640.73,579.464,640.73,579.464Z" transform="translate(-461.62 -362.885)"/><path class="i" d="M650.66,520.356l11.5,22.858c.084-.489.187-1.076.3-1.747.344-1.974.819-4.674,1.361-7.749,1.247-7.075,2.862-16.118,4.115-22.768l-.657-.21-7.111-2.295-1.47-4.668-7.243-1.906S650.66,515.992,650.66,520.356Z" transform="translate(-468.775 -361.588)"/><path class="h" d="M668.76,499.764l.28-2.284c4.473,1.185,16.373-3.31,16.373-3.31s4.319,3.8,3.751,12.9c-.279,4.442-.783,23.322-1.311,28.91-.19,2.024-.358,3.466-.428,4.042a.8.8,0,0,0,.131.5,26.21,26.21,0,0,1,1.957,4.1c5.183,13.815-.8,30.825-.8,30.825l-1.551-.626s-3.424-18.925-6.192-27.311a16.583,16.583,0,0,0-1.333-3.2,36.2,36.2,0,0,1-3.332-8.884,216.387,216.387,0,0,1-4.473-23.571C671.684,511.876,668.76,499.764,668.76,499.764Z" transform="translate(-481.815 -356.041)"/><path class="d" d="M638.28,372.359a13.887,13.887,0,0,0,5.135,1.2c7.668.419,9.406-6.3,9.722-10.762a6.43,6.43,0,0,0-2.63-.333c-.207,0-.419.025-.626.045a2.259,2.259,0,0,1-1.974-.861,16.015,16.015,0,0,1-2.575-5.89l-.33.154-5.532,2.6s.587,1.8,1.02,3.522a18.088,18.088,0,0,1,.414,2.041,1.216,1.216,0,0,1-.732,1.261h0A37.986,37.986,0,0,0,638.28,372.359Z" transform="translate(-459.855 -256.322)"/><path class="e" d="M629.8,394.289c.059.154.12.3.19.456,1.943,4.193,5.535,21.505,5.535,21.505,1.1,3.354,23.406-.612,23.481-3.447.839-3.008-2.988-7.827-5.149-10.262a6.875,6.875,0,0,1-.724-.976,6.8,6.8,0,0,1-.978-2.86,98.886,98.886,0,0,1-.3-10.077h0c-.422-.313-.839-.6-1.21-.875a10.8,10.8,0,0,1-1.473-1.222,2.237,2.237,0,0,1-.707-1.4,7.4,7.4,0,0,1,.031-1.166c.017-.185.042-.372.07-.559a15.814,15.814,0,0,1,1.118-3.709c-2.057-.839-5.714-.335-5.714-.335v.537c0,1.336-1.09,3.914-2.365,5.823-1.37,2.055-6.228,3.732-7.8.651-.542-1.062-.226-3.939-.173-4.129h0a15.469,15.469,0,0,0-4.456,2.371C631.132,385.891,628.284,390.233,629.8,394.289Z" transform="translate(-453.292 -273.22)"/><path class="j" d="M642.54,358.92s.587,1.8,1.02,3.522c3.234-.9,4.215-4.3,4.512-6.122Z" transform="translate(-462.924 -256.725)"/><path class="d" d="M627.42,336.178s7.735-1.789,6.547-6.592-.992-8.263-5.982-7.324-5.493,3.008-5.485,4.707S625.379,336.519,627.42,336.178Z" transform="translate(-448.486 -232.077)"/><path class="g" d="M620.1,322c.839-1.739,1.811-1.646,2.424-1.339a5.562,5.562,0,0,1,7.2-.615,9.449,9.449,0,0,0,4.347,4.671s-1.188,1.216-4.632,1.191a5.624,5.624,0,0,1-3.075-1.157,18.519,18.519,0,0,0,4.034,3.008c-4.311-.839-7.2-5.817-7.5-6.348a6.083,6.083,0,0,0-1.118,2.658c-.081,1.317.375,3.877-.38,3.972C621.376,328.039,618.835,324.606,620.1,322Z" transform="translate(-446.501 -229.83)"/><path class="k" d="M707.78,771.607h12.286a6.762,6.762,0,0,0-.347-3.293c-.615-1.364-1.577-1.982-1.347-3.634a4.423,4.423,0,0,1-3.83,1.465,13.384,13.384,0,0,1-2.13,2.762C711.607,769.488,708.029,769.281,707.78,771.607Z" transform="translate(-509.927 -550.932)"/><path class="k" d="M613.43,773.062h12.286a5.116,5.116,0,0,0-.347-3.293,2.368,2.368,0,0,1,.089-2.829,4.774,4.774,0,0,1-2.085.4,4.323,4.323,0,0,1-1.828-.643,44.055,44.055,0,0,1-3.5,3.676C617.257,770.943,613.676,770.737,613.43,773.062Z" transform="translate(-441.952 -552.388)"/><path class="d" d="M636.822,397.653a19.974,19.974,0,0,1-.5,3.354,50.742,50.742,0,0,1-2.105,7.014c-.257.663-.517,1.347-.794,2.029-1.993,4.948-4.559,9.56-6.709,11.131a2.294,2.294,0,0,1-.257.187,19.366,19.366,0,0,1-3.765,1.677c-2.18.738-4.752,1.4-7.07,1.957h-.02c-1.347.3-7.483,1.579-7.483,1.579l-.492-1.906s11.341-6.625,13.3-8.04a9.2,9.2,0,0,0,2.273-2.049,25.685,25.685,0,0,0,1.549-3.6c.3-.813.607-1.7.922-2.639.559-1.549,1.118-3.232,1.677-4.909,1.034-3.075,2.141-6.15,3.2-8.529h0a.911.911,0,0,1,1.018-.512l5.211,1.093c.036.38.059.791.062,1.236A8.493,8.493,0,0,1,636.822,397.653Z" transform="translate(-437.773 -284.145)"/><path class="e" d="M682.12,387.574a12.314,12.314,0,0,1,8.386-.8c-.034-5.345-2.7-6.066-2.7-6.066C686.738,380.255,682.086,380.9,682.12,387.574Z" transform="translate(-491.44 -274.214)"/><path class="d" d="M597.123,500.24a30.552,30.552,0,0,0-3.729,1.691,7.676,7.676,0,0,0-1.974,2.84.325.325,0,0,0,.321.336c.321,0,1.012-1.2,1.523-1.006a8.012,8.012,0,0,1,.464,2.074c0,.545-.313,2.583-.235,3.022s2.049-1.37,2.446-2.77a21.034,21.034,0,0,0,.33-3.2c.159-1.216,3.514-1.918,3.514-1.918Z" transform="translate(-426.095 -360.414)"/><path class="f" d="M782.92,517.585V412.5H840.1v20.406H807.349v19.311h30.227V473.3H807.349v22.922H840.1v21.357Z" transform="translate(-564.063 -297.201)"/><path class="f" d="M1086.223,517.585H1032.11V412.5h24.569v83.862h29.547Z" transform="translate(-743.594 -297.201)"/><path class="f" d="M1297.187,461.371h24.147q.067.956.1,2.046t.034,3.276q0,19.244-8.428,28.558t-25.813,9.314q-10.237,0-17.536-3.413a28.06,28.06,0,0,1-11.816-10.3q-3.139-4.914-4.5-13.647t-1.364-27.7q0-18.97,1.364-27.705t4.5-13.647a28.1,28.1,0,0,1,11.668-10.27,39.806,39.806,0,0,1,17.264-3.447q17.262,0,25.9,9.588t8.627,28.695v1.012l-23.884-.067q-.137-10.712-2.457-15.045t-7.763-4.324q-5.937,0-8.107,5.289t-2.183,27.954v1.979q0,24.359,2.183,29.852a8.045,8.045,0,0,0,8.107,5.493q5.526,0,7.743-3.992t2.217-14.841Z" transform="translate(-902.023 -284.182)"/><path class="f" d="M1543.43,449.492q0-18.97,1.364-27.705t4.5-13.647a27.692,27.692,0,0,1,11.8-10.343,41.522,41.522,0,0,1,17.536-3.377q10.3,0,17.5,3.377a27.791,27.791,0,0,1,11.7,10.343q3.276,4.981,4.64,13.717t1.364,27.635q0,18.833-1.364,27.6t-4.64,13.751a27.674,27.674,0,0,1-11.7,10.3q-7.269,3.41-17.5,3.413t-17.535-3.413a28.062,28.062,0,0,1-11.8-10.3q-3.139-4.914-4.5-13.647T1543.43,449.492Zm45.308,9.485v-18.97q0-17.466-2.217-21.6t-8.017-4.129q-5.663,0-7.847,4.229t-2.189,21.5v18.97q0,17.052,2.183,21.39t7.984,4.333q5.73,0,7.914-4.229T1588.738,458.977Z" transform="translate(-1111.98 -284.175)"/><path class="f" d="M1846.33,517.585V412.5h34.383l9.348,44.693q.067.344,1.118,8.428t2.217,16.213q.886-6.072,2.217-15.045t1.535-9.929l9.281-44.355h34.051V517.585h-23.2l2.116-81.2-16.633,81.2h-18.7l-16.65-81.2,2.116,81.2Z" transform="translate(-1330.207 -297.201)"/><path class="l" d="M256.4,153.693s4.892-11.668,16.588-10.371c0,0,16.982-19.448,35.093-2.594,0,0,19.252-4.176,33.508,3.617,9.5,5.2,12.644,10.645,12.644,10.645Z" transform="translate(-184.726 -96.448)"/><path class="l" d="M928.48,185.423s6.469-11.212,21.933-9.966c0,0,22.453-18.687,46.4-2.491,0,0,25.438-4.014,44.3,3.475,12.579,4.993,16.719,10.228,16.719,10.228Z" transform="translate(-668.933 -119.868)"/><path class="l" d="M1322.12,104.309a16.15,16.15,0,0,1,15.553-7.548s15.934-14.156,32.9-1.887c0,0,18.05-3.039,31.415,2.633,8.912,3.782,11.855,7.749,11.855,7.749Z" transform="translate(-952.535 -64.76)"/><path class="l" d="M2183.19,257.572a11.655,11.655,0,0,1,11.226-5.448s11.5-10.217,23.761-1.361c0,0,13.03-2.194,22.677,1.9,6.429,2.731,8.557,5.591,8.557,5.591Z" transform="translate(-1572.901 -178.073)"/><path class="h" d="M2460.3,405.009a51.5,51.5,0,0,1-5.625,8.386h0c-2.136,2.549-4.322,4.473-6.164,5.144h-.014c-.1.034-.19.064-.279.089h-.02a3.353,3.353,0,0,1-1.071.137c-6.052-.28-12.431-13.256-12.431-13.256a4.615,4.615,0,0,1,1.342-2.628,5.432,5.432,0,0,1,1.817-1.2s6.519,6.7,8.107,7.176c1,.3,2.317-4.372,4.193-10.242s8.518-7.318,8.518-7.318S2465.4,395.557,2460.3,405.009Z" transform="translate(-1754.104 -281.927)"/><path class="i" d="M2489.484,458.523h0c-2.136,2.549-4.322,4.473-6.164,5.143h-.014l-.28.089h-.017a4.685,4.685,0,0,0,2.351-2.969c.31-1.9-1.739-3.531,3.425-6.533C2491.788,452.512,2489.484,458.523,2489.484,458.523Z" transform="translate(-1788.909 -327.055)"/><path class="m" d="M2489.27,768.838h14.181c1.018-.69-.28-7.427-.28-7.427s-3.872-1.468-4.54,1.518-4.931,3.936-7.187,4.3A2.4,2.4,0,0,0,2489.27,768.838Z" transform="translate(-1793.42 -548.317)"/><path class="e" d="M2520.723,526.478s-.447,8.277-1.006,17.865c-.4,6.877-.861,14.427-1.255,20.085q-.079,1.128-.154,2.147c-.014.21-.031.419-.044.626A126.1,126.1,0,0,1,2513.852,591c-3.989.839-5.789-.7-5.789-.7s-2.748-32.209-3.765-45.2c-.749-9.563-1.4-23.481-1.4-23.481Z" transform="translate(-1803.239 -375.817)"/><path class="n" d="M2539.379,577.068c-.4,6.877-.861,14.427-1.255,20.085-2.608-6.15-7.933-30.123-7.933-30.123Z" transform="translate(-1822.901 -408.533)"/><path class="m" d="M2564.53,768.838h14.187c1.017-.69-.28-7.427-.28-7.427s-3.872-1.468-4.54,1.518-4.931,3.936-7.187,4.3A2.409,2.409,0,0,0,2564.53,768.838Z" transform="translate(-1847.642 -548.317)"/><path class="e" d="M2516.71,520.58s10.131,25.217,13.37,34.775c2.306,6.81,8.814,30.694,8.814,30.694a6.543,6.543,0,0,0,5.208-.8s2.421-24.4-2.469-31.283c-2.594-3.651-.643-37.95-11.162-38.244S2516.71,520.58,2516.71,520.58Z" transform="translate(-1813.189 -371.557)"/><path class="h" d="M2523.624,419.42c-.042,3.586-.081,6.22-.073,6.885.028,2.169-1.358,2.658-2.8,2.991,0,0-1.322.28-2.988.559a32.848,32.848,0,0,1-4.993.534,45.044,45.044,0,0,1-13.066-2.15c-1.339,0-1.957-2.071-2.169-4.962-.148-1.957.456-21.466.531-26.338a12.58,12.58,0,0,1,2.516-7.2c4.968-4.392,19.624-3.838,22.263-.808.651.749.839,7.972.864,15.886C2523.728,409.921,2523.674,415.3,2523.624,419.42Z" transform="translate(-1799.361 -278.509)"/><path class="d" d="M2538.879,371.466c-1.87,2.027-8.157,1.728-7.969-.042.025-.218.067-1.515.087-1.714s.031-.319.044-.467q.065-.654.106-1.155c.084-.97.112-1.5.112-1.5h0c.179-.05,4.221-1.2,6.23-1.677a3.219,3.219,0,0,1,1.118-.185C2537.993,369.246,2539.495,370.8,2538.879,371.466Z" transform="translate(-1823.417 -262.772)"/><path class="o" d="M2538.331,366.756s-1.677,1.714-6.561,1.837c.084-.97.112-1.5.112-1.5h0c.179-.05,4.221-1.2,6.231-1.677C2538.474,365.582,2538,366.513,2538.331,366.756Z" transform="translate(-1824.039 -263.281)"/><path class="d" d="M2525.6,338.817a15.255,15.255,0,0,0,2.8.654c2.3.31,5.325.129,6.276-2.656,1.6-4.685,3.634-7.494-1.065-9.407-2.516-1.023-4.135-1.079-5.23-.688a3.792,3.792,0,0,0-1.937,1.677C2525.537,329.833,2523.7,338,2525.6,338.817Z" transform="translate(-1818.996 -235.239)"/><path class="n" d="M2529.539,316.545a2.236,2.236,0,0,0,.839,4.042,16.629,16.629,0,0,1,2.762.506c1.171.52,2.177,1.073,1.9,2.89-.1.618-.394,1.37,1.2,1a.774.774,0,0,1,.579.034c.66.391-.185,2.289-.439,2.7,0,0-.367,1.359.447,2.021.1.078,1.694.777,5.54-5.11a5.465,5.465,0,0,0,.249-5.009c-.931-2-3.533-4.537-8.431-4.537A9.342,9.342,0,0,0,2529.539,316.545Z" transform="translate(-1821.729 -227.013)"/><path class="p" d="M2527.616,359.749s-.1.607,1.311,1.09c0,0,1.185.405,1.4-.215A3.951,3.951,0,0,0,2527.616,359.749Z" transform="translate(-1821.045 -259.195)"/><path class="i" d="M2578.735,461.274c-.716,3.327-1.878,4.473-2.533,3.237-2.292-4.347-2.264-6.167-1.272-9.25s-2.5-7.9,0-9.957c2.441-2.007,3.83,1.23,3.892,1.373C2578.839,451.775,2578.786,457.153,2578.735,461.274Z" transform="translate(-1854.472 -320.363)"/><path class="d" d="M2569.442,502.59s-1.677,2.756-2.8,2.661-2.6-.509-3.458.313-2.236,2.944-1.862,3.505,1.957.064,3.075-.559,2.885.3,3.827-.4a32.551,32.551,0,0,0,3.192-3.491Z" transform="translate(-1845.288 -362.107)"/><path class="h" d="M2580.333,395.09s13.994,13.169,12.177,21.927c-.839,3.992-3.4,7.36-10.245,12.811,0,0-3.24-2.236-3.95-4.056,0,0,6.217-8.755,5.977-10.245-.293-1.825-4.537-6.4-6.06-7.111S2576.85,396.619,2580.333,395.09Z" transform="translate(-1856.847 -284.657)"/><path class="d" d="M2574.589,509.507s-1.476-.646-1.957-.922-.369.17-.224.394a1.636,1.636,0,0,0,1.118.777,1.851,1.851,0,0,0,1.063-.249Z" transform="translate(-1853.227 -366.362)"/><g transform="translate(465.937 145.45)"><path class="n" d="M1683.664,520.578a10.363,10.363,0,0,1,9.3,2.656,27.59,27.59,0,0,1,3.388,3.875c2.726,3.8-2.493,7.57-1.8,8.859s2.3,2.306,1.6,5-5.342,6.183-6.854,6.34c-15.33,1.574-21.983-6.877-16.859-11.433s3.033-11.165,7.2-13.734A12.768,12.768,0,0,1,1683.664,520.578Z" transform="translate(-1669.631 -520.357)"/><path class="q" d="M1737.474,606.39s14.329,6.027,16.951,5.912,18.768-4.92,18.768-4.92l-.411,2.779s-12.47,7.17-16.82,7.581c-4.288.4-18.956-3.849-20.373-4.752S1733.359,607.3,1737.474,606.39Z" transform="translate(-1715.53 -582.34)"/><path class="d" d="M1709.238,590.944a13.891,13.891,0,0,1-4.853,2.066c-7.48,1.728-10.343-4.6-11.425-8.945a6.43,6.43,0,0,1,2.536-.78c.539-.064,1.118-.106,1.579-.129.839-.643,2.091-3.276,2.368-7.366l.352.1,5.9,1.613s-.28,1.876-.4,3.634a6.97,6.97,0,0,0,.146,3.036c.461.1.735.165.735.165h0A37.954,37.954,0,0,1,1709.238,590.944Z" transform="translate(-1685.647 -560.294)"/><path class="j" d="M1723.308,577.814s-.28,1.873-.4,3.634c-3.355-.335-4.892-3.514-5.5-5.258Z" transform="translate(-1703.263 -560.582)"/><path class="d" d="M1722.536,553.142s-7.928-.436-7.567-5.384-.439-8.314,4.638-8.241,5.926,2.024,6.211,3.7S1724.611,553.128,1722.536,553.142Z" transform="translate(-1701.495 -534.16)"/><path class="n" d="M1719.341,537.883c-1.118-1.571-2.066-1.314-2.616-.9a5.553,5.553,0,0,0-7.2.629,9.448,9.448,0,0,1-3.483,5.348s1.4,1.118,4.769.377a8.419,8.419,0,0,0,5.982-5.258,5.037,5.037,0,0,1,1.484,1.783,7.82,7.82,0,0,1,.875,3.894C1719.167,543.751,1721.018,540.24,1719.341,537.883Z" transform="translate(-1695.071 -531.576)"/><path class="h" d="M1673.588,623.974c-.716-3.659-3.05-18.285-.716-22.989.839-1.677,4.129-1.842,7.738-1.694,1.118.724,5.4,3.466,7.162,3.122l.1-.022c.839-.207,1.141-.788.45-1.291a15.754,15.754,0,0,1,4.009.246,29.475,29.475,0,0,1,4.638,1.988s-1.7,3.075-4.216,4.14c.428,3.821-.207,5.507-4.171,14.329a16.755,16.755,0,0,0,.453,14.176s-19.716,15.853-19.825,7.78C1669.121,637.679,1674.5,628.65,1673.588,623.974Z" transform="translate(-1668.534 -577.194)"/><path class="n" d="M1712.442,680.548a3.665,3.665,0,0,0,2.636-1.6l.3-.458c2.236-3.4,3.117-13.8,8.165-24.879,1.23-2.7,5.644-3.184,6.846-6.234,0,0,2.963-9.887-5.669-10.178s-23.115,27.5-23.358,30.414C1701.157,670.434,1695.672,682.44,1712.442,680.548Z" transform="translate(-1690.968 -604.532)"/><path class="r" d="M1834.351,775.046h-12.286a5.115,5.115,0,0,1,.347-3.293,2.368,2.368,0,0,0-.089-2.829,4.77,4.77,0,0,0,2.068.389,4.33,4.33,0,0,0,1.828-.643,44.061,44.061,0,0,0,3.5,3.676C1830.521,772.925,1834.1,772.721,1834.351,775.046Z" transform="translate(-1778.569 -699.257)"/><path class="i" d="M1686.61,628.307s1.6,6.51,14.131,9.158,2.86-6.3,2.86-6.3l-13.138-3.517Z" transform="translate(-1681.073 -597.657)"/><path class="n" d="M1781.414,639c.741,5.546,3.634,23.051,8.724,31.588,1.644,2.753-4.14,4.3-4.171,4.288a9.839,9.839,0,0,1-2.664-1.976c-4.137-3.729-12.535-14.287-12.535-22.752,0-4.126-.073-12.02,2.93-14.013C1775.547,634.909,1781.121,636.8,1781.414,639Z" transform="translate(-1741.706 -603.494)"/><path class="e" d="M1698.106,645.77c-1.2,3.053-4.587,2.678-5.814,5.378-.688,1.515-1.336,3.027-1.957,4.526-.064.151-.12.3-.176.436-.746,1.851-1.437,3.67-2.077,5.423-.987,2.692-1.853,5.219-2.636,7.444a43.183,43.183,0,0,1-3.26,7.855c-.794,1.2-1.25,1.837-1.25,1.837-18.822,2.9-13.787-9.678-12.753-12.711.942-2.767,17.332-31.348,25.975-31.054S1698.106,645.77,1698.106,645.77Z" transform="translate(-1666.8 -602.882)"/><path class="n" d="M1802.081,775.046H1789.8a5.115,5.115,0,0,1,.347-3.293,2.368,2.368,0,0,0-.089-2.829,4.771,4.771,0,0,0,2.069.389,4.327,4.327,0,0,0,1.828-.643,44.041,44.041,0,0,0,3.5,3.676C1798.254,772.925,1801.835,772.721,1802.081,775.046Z" transform="translate(-1755.319 -699.257)"/><path class="s" d="M1741.069,688.108c-.064.151-.12.3-.176.436-.746,1.851-1.437,3.67-2.077,5.423a29.212,29.212,0,0,1-1.25-14.047C1739.448,681.214,1740.561,684.432,1741.069,688.108Z" transform="translate(-1717.532 -635.316)"/><path class="e" d="M1750.993,639.216c.741,5.546,1.781,23.445,6.877,31.985,1.644,2.753-4.14,4.3-4.171,4.288a9.879,9.879,0,0,1-2.664-1.976c-4.137-3.729-12.535-14.287-12.535-22.752,0-4.126,4.844-11.679,7.844-13.684a3.019,3.019,0,0,1,4.649,2.138Z" transform="translate(-1718.457 -604.094)"/><path class="n" d="M1832.012,580.926l-12.579-1.336a.813.813,0,0,0-.839.52l-4.5,11.827a.813.813,0,0,0,.727,1.1l12.484.5a.813.813,0,0,0,.783-.5l4.6-11a.81.81,0,0,0-.674-1.121Z" transform="translate(-1772.881 -563.029)"/><path class="e" d="M1835.919,581.336,1823.34,580a.811.811,0,0,0-.839.52l-4.5,11.827a.811.811,0,0,0,.727,1.1l12.484.5a.811.811,0,0,0,.783-.5l4.6-11a.814.814,0,0,0-.674-1.121Z" transform="translate(-1775.695 -563.324)"/><path class="t" d="M1853.222,602.583a.516.516,0,0,0-.486-.763,1.208,1.208,0,0,0-1.043.763.518.518,0,0,0,.486.766,1.21,1.21,0,0,0,1.043-.766Z" transform="translate(-1799.973 -579.048)"/><path class="t" d="M1878.874,587.823a.254.254,0,0,0-.241-.375.6.6,0,0,0-.511.375.254.254,0,0,0,.237.375A.6.6,0,0,0,1878.874,587.823Z" transform="translate(-1819.027 -568.693)"/><path class="d" d="M1685.327,605.45s17.438,6.429,20.057,6.29c1.694-.084,15.769-5.032,15.769-5.032l1.263,2.39s-13.7,8.805-17.466,8.761c-7.436-.087-19.984-4.652-21.4-5.549S1681.2,606.359,1685.327,605.45Z" transform="translate(-1678.003 -581.663)"/><path class="d" d="M1821.12,604.787s1.263-1.957,2.516-2,3.433.858,4.177,1,2.86.839,2.236,1.859-3.547,1.258-4.805,1.029a5.825,5.825,0,0,0-2.86.5Z" transform="translate(-1777.982 -579.743)"/><path class="d" d="M1828.92,600.024s2-.917,2.572-1.09.458,0,.28.545-1.2,1.059-1.2,1.23S1828.92,600.024,1828.92,600.024Z" transform="translate(-1783.601 -576.922)"/><path class="d" d="M1870.357,600.852s-1.261-2-1.677-2.077c-1.258-.249-1.258,1.4-.992,2.477.28,1.146,1.255,2.236,1.523,2.136A2.956,2.956,0,0,0,1870.357,600.852Z" transform="translate(-1811.43 -576.836)"/><path class="d" d="M1873.332,607.7a3.355,3.355,0,0,1-1.722,3.408l.629-1.54Z" transform="translate(-1814.358 -583.284)"/><path class="p" d="M1740.02,577.649a7.326,7.326,0,0,0-2.86-.126s.112.822,1.677.9A1.241,1.241,0,0,0,1740.02,577.649Z" transform="translate(-1717.492 -561.505)"/><path class="h" d="M1692.661,607.575a9.582,9.582,0,0,1-6.916,6.06s-8.845-2.726-4.442-8.75C1681.3,604.886,1685.645,601.649,1692.661,607.575Z" transform="translate(-1676.364 -580.621)"/></g><path class="u" d="M1690.647,311.25a10,10,0,0,1-4.473,4.109,9.181,9.181,0,0,1-5.272-.081l-.162,3.665s4.881.327,7.746-1.937a9.087,9.087,0,0,0,2.3-3.581,3.109,3.109,0,0,0-.134-2.175Z" transform="translate(-1210.906 -224.254)"/><path class="v" d="M1705,280.525l3.206-3.8s3.835,8.775-1.834,15C1706.4,291.717,1707.8,283.616,1705,280.525Z" transform="translate(-1228.384 -199.377)"/><path class="u" d="M480.867,261.657a11.364,11.364,0,0,1-3.844-5.756c-.584-2.558.883-5.77,1-5.915l-4.1-.816s-1.213,5.434.839,9.046a10.23,10.23,0,0,0,3.634,3.2A3.538,3.538,0,0,0,480.867,261.657Z" transform="translate(-341.193 -179.528)"/><path class="v" d="M492.063,283.921l3.726,4.263s-10.53,2.8-16.549-4.654C479.24,283.53,488.118,286.53,492.063,283.921Z" transform="translate(-345.273 -204.283)"/><path class="w" d="M2174.77,325.728s-6.58-.626-6.063-7.548l-4.66-1.42s-.559,4.092,7.059,8.509C2176.095,328.16,2174.77,325.728,2174.77,325.728Z" transform="translate(-1559.103 -228.224)"/><path class="h" d="M2190.579,342.133s-5.068,3.7-13.569-3.483c0,0,3.441,2.39,9.426.361Z" transform="translate(-1568.449 -243.995)"/><path class="w" d="M1012.09,325.728s-6.58-.626-6.063-7.548l-4.66-1.42s-.559,4.092,7.058,8.509C1013.412,328.16,1012.09,325.728,1012.09,325.728Z" transform="translate(-721.438 -228.224)"/><path class="h" d="M1027.9,342.133s-5.068,3.7-13.569-3.483c0,0,3.441,2.39,9.426.361Z" transform="translate(-730.784 -243.995)"/><path class="x" d="M1561.163,231.773s-3.7-2.337-4.09-5.163c0,0-3.6.2-4.383,1.364,0,0,1.655,4.674,3.6,5.552C1556.3,233.526,1560.685,233.819,1561.163,231.773Z" transform="translate(-1118.651 -163.274)"/><path class="x" d="M1230.31,97.753s3.7-2.337,4.09-5.163c0,0,3.6.2,4.383,1.364,0,0-1.655,4.674-3.6,5.552C1235.18,99.506,1230.8,99.8,1230.31,97.753Z" transform="translate(-886.389 -66.718)"/><path class="v" d="M1338.69,310.379s3.232-2.041,3.573-4.509c0,0,3.148.171,3.827,1.191,0,0-1.445,4.084-3.148,4.85C1342.945,311.919,1339.118,312.174,1338.69,310.379Z" transform="translate(-964.473 -220.378)"/><path class="d" d="M1173.141,417.337c-6.337-1.613-13.3-11.442-13.3-11.442l1.783-1.549c1.848,2.178,9.527,5.929,9.527,5.929a53.088,53.088,0,0,1,.137-5.465c.839-11.243,5.09-14.989,6.248-15.811a2.74,2.74,0,0,1,.294-.19v.238c.017.335.047,1.006.078,1.932C1178.153,397.859,1178.435,418.684,1173.141,417.337Z" transform="translate(-835.618 -280.133)"/><path class="h" d="M1197.868,399.725q-.022.922-.062,1.853c-.2,5-.749,9.974-1.976,12.884a6.273,6.273,0,0,1-1.034,1.739,2.209,2.209,0,0,1-2.01.839c-4.28-.623-5.4-4.621-5.622-7.59a16.982,16.982,0,0,1,.062-3.3,7.282,7.282,0,0,0,2.446-.324c.7-.646,1.006-3.757,1.2-7.2.249-4.517.313-9.6.743-10.472,1.233-2.5,6-2.5,6-2.5S1198.053,392.437,1197.868,399.725Z" transform="translate(-855.267 -277.856)"/><path class="n" d="M1220.919,321.607a4.371,4.371,0,0,0-1.364,6.105s-3.089-.559-3.757-1.487a2.415,2.415,0,0,0,.193.579s-2.84-.643-3.768-1.828,3.634-15.375,11.011-11.7c0,0,6.751,1.252,4.106,8.747s-.145,8.157-.145,8.157a3.682,3.682,0,0,1-1.118.07s-.442-.316-.467-.615a1.808,1.808,0,0,0,.073.621s-2.765-.458-3.844-1.834S1220.117,323.086,1220.919,321.607Z" transform="translate(-873.272 -225.275)"/><path class="d" d="M1225.351,387.82Z" transform="translate(-882.8 -279.42)"/><path class="d" d="M1233.979,363c.1.928.226,1.764.28,2.161.123.889-8.322.31-8.859.31.375-.162,1.521-3.8,1.884-5.183.439-1.677.785-3.5.785-3.5l5.962.377.355.022a20.731,20.731,0,0,0-.486,2.292c-.014.1-.028.193-.042.28A15.935,15.935,0,0,0,1233.979,363Z" transform="translate(-882.852 -257.064)"/><path class="n" d="M1229.944,326.321a17.293,17.293,0,0,1-.771-5.417c.14-1.677,2.516-7.4,8.274-4.967a8.384,8.384,0,0,1,3.027,2.164c1.065,1.219,2.435,3.6-1.029,8.235l-1.006,1.607Z" transform="translate(-885.551 -227.201)"/><path class="i" d="M1198.578,429.344l-.316,10.122s-1.118,1.918-2.432,4.134c-.338.559-.688,1.157-1.034,1.739a2.209,2.209,0,0,1-2.01.839c-4.28-.623-5.4-4.621-5.622-7.59a16.982,16.982,0,0,1,.062-3.3,7.282,7.282,0,0,0,2.446-.324c.7-.646,1.006-3.757,1.2-7.2l2.921-1.649,4.078,2.762Z" transform="translate(-855.267 -307.006)"/><path class="o" d="M1240.78,363.431c-4.171-1.222-5.94-6.041-5.94-6.041,1.764.053,4.062,1.277,5.87,2.516-.014.1-.028.193-.042.28A15.351,15.351,0,0,0,1240.78,363.431Z" transform="translate(-889.653 -257.496)"/><path class="d" d="M1240.547,337.4s-7.548-1.862-6.3-6.538,1.09-8.065,5.954-7.072,5.311,3.022,5.292,4.682S1242.54,337.767,1240.547,337.4Z" transform="translate(-889.123 -233.166)"/><path class="n" d="M1241.2,320.6c-2.236-3.547-4.917-3.914-4.928-3.914-1.915-1.283-4.448,1.867-4.448,1.867a9.225,9.225,0,0,1-4.316,4.5s1.143,1.208,4.512,1.23a5.593,5.593,0,0,0,3.019-1.087,18.107,18.107,0,0,1-3.986,2.882c4.039-.71,6.868-5.163,7.369-6a6.889,6.889,0,0,1,1.118,2.516c.059,1.289-.422,3.785.316,3.888C1239.849,326.489,1242.714,322.983,1241.2,320.6Z" transform="translate(-884.372 -227.951)"/><path class="p" d="M1252.94,362.194s.1.713.559.881a6.684,6.684,0,0,0,1.781.4,6.022,6.022,0,0,0,.573-.632A9.49,9.49,0,0,0,1252.94,362.194Z" transform="translate(-902.693 -260.952)"/><path class="d" d="M1206.814,557.059l-.28,1.188c-.559,2.362-1.1,4.551-1.431,6.382-.433,2.384-.534,4.157.033,4.9,2.34,3.075,0,27.42,0,27.42l-2.664,2.745s-4.629-24.04-5.887-27.809c-.559-1.714-1.4-9.026-2.138-16.493q-.056-.559-.109-1.118c-.126-1.305-.249-2.608-.366-3.877-.66-7.064-1.152-13.113-1.152-13.113s4.912-3.452,9.373-3.838c2.63-.229,5.1.607,6.323,3.838C1210.289,541.991,1208.485,550.106,1206.814,557.059Z" transform="translate(-859.379 -384.314)"/><path class="o" d="M1214.615,558.7c-3.438-3.749-5.7-9.116-9.9-16.63-.355-3.821,2.658-7.455,6.021-8.6,2.63-.229,5.1.607,6.323,3.838C1218.839,542.006,1216.287,551.739,1214.615,558.7Z" transform="translate(-867.93 -384.328)"/><path class="d" d="M1286.853,451.93l17.935,4.632v2.1s-17.849-.21-19.009-2.2S1286.853,451.93,1286.853,451.93Z" transform="translate(-926.112 -325.608)"/><path class="d" d="M1259.208,568.6l-.839,3.461s-24.261-12.532-27.4-14.936c-1.261-.967-2.927-6.217-4.473-12.157-2.3-8.853-4.322-19.235-4.322-19.235s3.4-13.08,12.506-5.074c5.448,4.791,4.6,14.022,4,21.2-.4,4.816-.682,8.71,1.118,9.72,3.525,1.957,13.865,11.028,17.139,17.259Z" transform="translate(-880.532 -373.259)"/><path class="h" d="M1232.584,404.29c-1.512,1.6-3.559,2.541-6.888,2.052a8.5,8.5,0,0,1-5.348-4.523c-.2-.4-.71-1.577-.71-1.577a15.816,15.816,0,0,0-1.915,2.2v.02c-.031.173-.129,1-.182,1.454a1.358,1.358,0,0,1-.022.182v.092a6.552,6.552,0,0,0,.137,1.079s-7.973,3.486-15.022.056l-.042-.02c-.355-.173-.707-.361-1.054-.559,0,0-.134-.872-.3-2.343a84.569,84.569,0,0,1-.28-18.45c.218-1.837,4.906-4.341,6.357-5.61a2.312,2.312,0,0,0,.559-1.7c-.073-.467.464-1.258.914-1.118.872.28,3.34,1.5,5.076,1.034.864-.229,1.957-1.23,2.8-1,1.023.28-.059,2.745.523,2.779.8.039,4.394.1,5.484,1.6.895,1.233,1.37,3.531,2.924,7.883,2.921,8.165,7.207,6.631,8.909,9.049C1235.656,398.52,1235.019,401.715,1232.584,404.29Z" transform="translate(-864.953 -270.552)"/><path class="i" d="M1249.078,449.5a28.943,28.943,0,0,1-1.537-5.54c-.182-.978-7.7,6.536-5.82,9.588S1249.078,449.5,1249.078,449.5Z" transform="translate(-894.392 -319.8)"/><path class="e" d="M1223.2,505.438h0c-.14.039-2.466.7-5.9,1.423-.839.179-1.75.358-2.709.537-7.405,1.37-17.846,2.5-24.136-.3,0,0,.456-10.449,1.677-18.346a88.849,88.849,0,0,1,2.111-10.144,37.8,37.8,0,0,0,13.1.036l.193-.039a21.946,21.946,0,0,0,2.692-.54,134.775,134.775,0,0,1,7.606,12.157C1219.64,493.717,1223.2,505.438,1223.2,505.438Z" transform="translate(-857.672 -344.434)"/><path class="n" d="M1264.84,505.474h0c-.14.039-2.465.7-5.9,1.423-.839.179-1.75.358-2.709.537-11.5-15.036-7.184-28.709-7.184-28.709l.143-.076a21.933,21.933,0,0,0,2.692-.539,134.77,134.77,0,0,1,7.606,12.157C1261.281,493.753,1264.84,505.474,1264.84,505.474Z" transform="translate(-899.313 -344.47)"/><path class="d" d="M1354.611,463.562a24,24,0,0,1,4.6-1.778c1.308-.157,3.505-.21,3.505,0a9.643,9.643,0,0,1-2.983,1.778c-.629.1-1.831,1-1.465,1.1s2.3-.341,2.329,0-1.177.559-1.4.811a2.548,2.548,0,0,1-2.119.419c-1.177-.157-2.479-.235-2.479-.235Z" transform="translate(-975.935 -332.608)"/><path class="e" d="M1353.62,691.389h-.022a1.524,1.524,0,0,1-.939-.987c-.218-.523-.28-.951-.484-1.468l-.819-1.414c-.858-1.118-1.157-.864-1.157-.864s-.224.28-.559.665a7.279,7.279,0,0,1-1.979,1.722,1.721,1.721,0,0,0-.839.662,1.633,1.633,0,0,0-.252.581s1.758.307,1.6,1.174c-.3,1.677-.229,1.982-.2,2.038h0s3,1.571,3.961,1.879a7.609,7.609,0,0,1,3.153,2.236.987.987,0,0,0,.839.266c.45-.07,1.034-.215,1.163-.492Z" transform="translate(-970.15 -494.701)"/><path class="e" d="M1217.677,762.387l-1.437.777c-.523.184-.953.238-1.481.442a3.075,3.075,0,0,0-1.4,1.02c-.405,1.649-1,1.6-1,1.6h-5.756c-.28-.137.19-1.3.411-1.518.559-.537,2.181-.279,2.776-1.957.335-.951,1.993-3.914,1.993-3.914h0c.056-.028.364-.089,2.032.257.861.179,1.219-1.571,1.219-1.571a1.633,1.633,0,0,1,.573.28,1.725,1.725,0,0,1,.637.867,6.923,6.923,0,0,0,1.663,2.027c.369.341.649.573.649.573S1218.832,761.568,1217.677,762.387Z" transform="translate(-869.25 -545.774)"/><path class="d" d="M1155.228,428.461a7.008,7.008,0,0,0-.2-3.025c-.5-1.266-.607-2.644-1-2.1s-.061,2.091-.411,2.041a1.288,1.288,0,0,1-.808-1.031c-.235-.942.335-2.18-.447-2.06s-1.753,3.592-1.255,4.537a31.125,31.125,0,0,0,2.345,3.178Z" transform="translate(-829.223 -304.247)"/><path class="n" d="M1219.5,471.739v.02l-.182,1.454a1.356,1.356,0,0,1-.022.182v.092c-3.913,1.451-6.639,2.155-9.18,2.155a14.171,14.171,0,0,1-5.705-1.02l-.042-.02a6.492,6.492,0,0,1-1.054-.559s-.134-.872-.3-2.343C1204.327,472.376,1210.5,475.08,1219.5,471.739Z" transform="translate(-866.721 -339.852)"/><path class="f" d="M2243.31,517.585V412.5h57.183v20.406h-32.754v19.311h30.229V473.3h-30.229v22.922h32.753v21.357Z" transform="translate(-1616.215 -297.201)"/><path class="d" d="M2416.788,409.554a3.074,3.074,0,0,0-2.516-1.141c-1.6.092-2.466,1.1-1.781,1.733a3.059,3.059,0,0,0,3.24,0Z" transform="translate(-1737.934 -294.255)"/><rect class="y" width="763.835" height="1.94" rx="0.97" transform="translate(0 220.334)"/></g></g></svg>