<svg xmlns="http://www.w3.org/2000/svg" xmlns:xlink="http://www.w3.org/1999/xlink" width="120" height="120" viewBox="0 0 120 120"><defs><style>.a{fill:#1aa6b7;}.b{fill:#ecf8f9;}.c{filter:url(#a);}</style><filter id="a" x="0" y="0" width="120" height="120" filterUnits="userSpaceOnUse"><feOffset dy="3" input="SourceAlpha"/><feGaussianBlur stdDeviation="3" result="b"/><feFlood flood-opacity="0.161"/><feComposite operator="in" in2="b"/><feComposite in="SourceGraphic"/></filter></defs><g transform="translate(9 5.975)"><g class="c" transform="matrix(1, 0, 0, 1, -9, -5.97)"><circle class="a" cx="51" cy="51" r="51" transform="translate(9 6)"/></g><path class="b" d="M64.6,78.048c.528.288,13.089,7.052,27.044,7.052a57.286,57.286,0,0,0,27.085-7.075,1.152,1.152,0,0,0,.559-.988c0-9.3-2.852-17.81-8.03-23.964a26.1,26.1,0,0,0-13.18-8.59,14.974,14.974,0,1,0-12.869,0,26.107,26.107,0,0,0-13.18,8.59C66.852,59.226,64,67.737,64,77.037a1.152,1.152,0,0,0,.6,1.011ZM78.974,30.963a12.67,12.67,0,1,1,12.67,12.67A12.67,12.67,0,0,1,78.974,30.963ZM73.793,54.556a22.8,22.8,0,0,1,35.7,0c4.705,5.592,7.351,13.315,7.484,21.809A56.373,56.373,0,0,1,91.644,82.8c-11.678,0-22.677-5.127-25.335-6.458C66.448,67.854,69.092,60.142,73.793,54.556Z" transform="translate(-40.661 0.013)"/></g></svg>