<svg xmlns="http://www.w3.org/2000/svg" width="48.655" height="59.332" viewBox="0 0 48.655 59.332"><defs><style>.a{fill:#f7c92b;}.b{fill:#f2b51d;}.c{fill:#f7e249;}</style></defs><path class="a" d="M152.028,399.664a7.418,7.418,0,1,0-7.418,7.406A7.412,7.412,0,0,0,152.028,399.664Zm0,0" transform="translate(-120.282 -347.739)"/><path class="b" d="M181.886,392.258a7.423,7.423,0,0,0-2.156.319,7.4,7.4,0,0,1,0,14.174,7.409,7.409,0,1,0,2.156-14.493Zm0,0" transform="translate(-157.559 -347.739)"/><path class="a" d="M166.852,41.068A4.393,4.393,0,1,1,170.3,35.9,4.4,4.4,0,0,1,166.852,41.068Zm0,0" transform="translate(-141.658 -32.367)"/><path class="b" d="M190.783,35.9a4.4,4.4,0,0,0-5.181-3.441,4.5,4.5,0,0,0-.642.18,4.391,4.391,0,0,1,0,8.254,4.4,4.4,0,0,0,5.822-4.992Zm0,0" transform="translate(-162.142 -32.368)"/><path class="c" d="M43.2,133.807H6.453A5.963,5.963,0,0,1,2.74,123.185l1.18-.951a11.575,11.575,0,0,0,4.318-9.015v-6.246a16.714,16.714,0,0,1,33.429,0v6.362a11.575,11.575,0,0,0,4.172,8.9l1.15.957a6.006,6.006,0,0,1,2.165,4.616v.06a5.949,5.949,0,0,1-5.954,5.943Zm0,0" transform="translate(-0.499 -83.121)"/><path class="a" d="M186.858,123.184l-1.15-.957a11.576,11.576,0,0,1-4.172-8.9v-6.362a16.726,16.726,0,0,0-21.424-16.014,16.7,16.7,0,0,1,12,16.014v6.362a11.576,11.576,0,0,0,4.172,8.9l1.15.957A6.008,6.008,0,0,1,179.6,127.8v.06a5.949,5.949,0,0,1-5.954,5.944h9.419a5.948,5.948,0,0,0,5.953-5.944v-.06a6.006,6.006,0,0,0-2.165-4.616Zm0,0" transform="translate(-140.369 -83.118)"/></svg>