<svg xmlns="http://www.w3.org/2000/svg" xmlns:xlink="http://www.w3.org/1999/xlink" width="120" height="120" viewBox="0 0 120 120"><defs><style>.a{fill:#1aa6b7;}.b{fill:#ecf8f9;}.c{filter:url(#a);}</style><filter id="a" x="0" y="0" width="120" height="120" filterUnits="userSpaceOnUse"><feOffset dy="3" input="SourceAlpha"/><feGaussianBlur stdDeviation="3" result="b"/><feFlood flood-opacity="0.161"/><feComposite operator="in" in2="b"/><feComposite in="SourceGraphic"/></filter></defs><g transform="translate(9 5.744)"><g class="c" transform="matrix(1, 0, 0, 1, -9, -5.74)"><circle class="a" cx="51" cy="51" r="51" transform="translate(9 6)"/></g><g transform="translate(19.882 15.358)"><path class="b" d="M70.891,0H16.93a1,1,0,0,0-1,1v8.6H13.053A3.3,3.3,0,0,0,9.76,12.9v1.587a3.3,3.3,0,0,0,3.293,3.293h2.875v7.135H13.053A3.3,3.3,0,0,0,9.76,28.209v1.586a3.3,3.3,0,0,0,3.293,3.293h2.875v7.139H13.053A3.3,3.3,0,0,0,9.76,43.52v1.587A3.3,3.3,0,0,0,13.053,48.4h2.875v7.137H13.053A3.3,3.3,0,0,0,9.76,58.831v1.586a3.3,3.3,0,0,0,3.293,3.293h2.875v8.6a1,1,0,0,0,1,1H70.891a1,1,0,0,0,1-1V1a1,1,0,0,0-1-1ZM13.053,15.775a1.29,1.29,0,0,1-1.289-1.289V12.9a1.29,1.29,0,0,1,1.289-1.289h2.875v4.164Zm0,15.31A1.29,1.29,0,0,1,11.765,29.8V28.21a1.29,1.29,0,0,1,1.289-1.29h2.875v4.163Zm0,15.309a1.29,1.29,0,0,1-1.289-1.289V43.519a1.29,1.29,0,0,1,1.289-1.289h2.875v4.164Zm0,15.31a1.29,1.29,0,0,1-1.289-1.289V58.829a1.29,1.29,0,0,1,1.289-1.289h2.875V61.7Zm56.835,9.605H17.933V2H69.889Z" transform="translate(-9.76)"/><path class="b" d="M31.531,54.084H74.037a1,1,0,0,0,1-1v-4.4a1,1,0,0,0-1-1H71.452v-.768A18.7,18.7,0,0,0,58.332,29.079c.006-.108.019-.216.019-.322a5.567,5.567,0,1,0-11.133,0c0,.107.013.215.019.322A18.7,18.7,0,0,0,34.116,46.908v.768H31.531a1,1,0,0,0-1,1v4.4a1,1,0,0,0,1,1ZM52.784,25.195a3.564,3.564,0,0,1,3.551,3.386,18.567,18.567,0,0,0-7.106,0,3.563,3.563,0,0,1,3.555-3.386ZM36.12,46.908a16.664,16.664,0,0,1,33.328,0v.768H36.12ZM32.534,49.68h40.5v2.4h-40.5Z" transform="translate(-18.633 -9.908)"/><path class="b" d="M31.531,85.32H74.037a1,1,0,0,0,0-2H31.531a1,1,0,1,0,0,2Z" transform="translate(-18.633 -35.595)"/><path class="b" d="M31.531,94.32H74.037a1,1,0,0,0,0-2H31.531a1,1,0,1,0,0,2Z" transform="translate(-18.633 -39.44)"/><path class="b" d="M72.692,101.315H40.772a1,1,0,0,0,0,2h31.92a1,1,0,0,0,0-2Z" transform="translate(-22.581 -43.285)"/></g></g></svg>