<svg xmlns="http://www.w3.org/2000/svg" xmlns:xlink="http://www.w3.org/1999/xlink" width="120" height="120" viewBox="0 0 120 120"><defs><style>.a{fill:#1aa6b7;}.b{fill:#ecf8f9;}.c{filter:url(#a);}</style><filter id="a" x="0" y="0" width="120" height="120" filterUnits="userSpaceOnUse"><feOffset dy="3" input="SourceAlpha"/><feGaussianBlur stdDeviation="3" result="b"/><feFlood flood-opacity="0.161"/><feComposite operator="in" in2="b"/><feComposite in="SourceGraphic"/></filter></defs><g transform="translate(9 5.581)"><g class="c" transform="matrix(1, 0, 0, 1, -9, -5.58)"><circle class="a" cx="51" cy="51" r="51" transform="translate(9 6)"/></g><g transform="translate(20.746 14.599)"><g transform="translate(14.535 52.085)"><path class="b" d="M139.634,344h-2.423a1.211,1.211,0,0,0,0,2.423h2.423a1.211,1.211,0,1,0,0-2.423Z" transform="translate(-136 -344)"/></g><g transform="translate(21.803 52.085)"><path class="b" d="M214.282,344H185.211a1.211,1.211,0,1,0,0,2.423h29.071a1.211,1.211,0,1,0,0-2.423Z" transform="translate(-184 -344)"/></g><g transform="translate(14.535 44.818)"><path class="b" d="M139.634,296h-2.423a1.211,1.211,0,0,0,0,2.423h2.423a1.211,1.211,0,1,0,0-2.423Z" transform="translate(-136 -296)"/></g><g transform="translate(21.803 44.818)"><path class="b" d="M214.282,296H185.211a1.211,1.211,0,1,0,0,2.423h29.071a1.211,1.211,0,1,0,0-2.423Z" transform="translate(-184 -296)"/></g><g transform="translate(14.535 37.55)"><path class="b" d="M139.634,248h-2.423a1.211,1.211,0,0,0,0,2.423h2.423a1.211,1.211,0,1,0,0-2.423Z" transform="translate(-136 -248)"/></g><g transform="translate(21.803 37.55)"><path class="b" d="M214.282,248H185.211a1.211,1.211,0,1,0,0,2.423h29.071a1.211,1.211,0,1,0,0-2.423Z" transform="translate(-184 -248)"/></g><g transform="translate(14.535 30.282)"><path class="b" d="M139.634,200h-2.423a1.211,1.211,0,0,0,0,2.423h2.423a1.211,1.211,0,1,0,0-2.423Z" transform="translate(-136 -200)"/></g><g transform="translate(21.803 30.282)"><path class="b" d="M214.282,200H185.211a1.211,1.211,0,1,0,0,2.423h29.071a1.211,1.211,0,1,0,0-2.423Z" transform="translate(-184 -200)"/></g><g transform="translate(14.535 23.014)"><path class="b" d="M139.634,152h-2.423a1.211,1.211,0,0,0,0,2.423h2.423a1.211,1.211,0,1,0,0-2.423Z" transform="translate(-136 -152)"/></g><g transform="translate(21.803 23.014)"><path class="b" d="M214.282,152H185.211a1.211,1.211,0,1,0,0,2.423h29.071a1.211,1.211,0,1,0,0-2.423Z" transform="translate(-184 -152)"/></g><path class="b" d="M100.549,18.093a1.144,1.144,0,0,0-.062-.311c-.013-.039-.023-.076-.04-.114a1.211,1.211,0,0,0-.242-.355L83.247.355a1.211,1.211,0,0,0-.355-.242c-.038-.017-.075-.027-.113-.04A1.206,1.206,0,0,0,82.465.01c-.021,0-.044-.01-.07-.01H48.479a1.211,1.211,0,0,0-1.211,1.211V4.845H41.211A1.211,1.211,0,0,0,40,6.056V71.466a1.211,1.211,0,0,0,1.211,1.211H92.085A1.211,1.211,0,0,0,93.3,71.466V65.409h6.056a1.211,1.211,0,0,0,1.211-1.211V18.169C100.564,18.143,100.551,18.12,100.549,18.093ZM83.606,4.135,96.429,16.958H83.606Zm7.268,66.119H42.423V7.268h4.845V64.2a1.211,1.211,0,0,0,1.211,1.211h42.4Zm7.268-7.268H49.69V2.423H81.184V18.169A1.211,1.211,0,0,0,82.4,19.381H98.142Z" transform="translate(-40)"/><g transform="translate(14.535 8.475)"><path class="b" d="M144.479,72h-7.268A1.211,1.211,0,0,0,136,73.211v7.268a1.211,1.211,0,0,0,1.211,1.211h7.268a1.211,1.211,0,0,0,1.211-1.211V73.211A1.211,1.211,0,0,0,144.479,72Zm-1.211,7.268h-4.845V74.423h4.845Z" transform="translate(-136 -72)"/></g></g></g></svg>