<svg xmlns="http://www.w3.org/2000/svg" xmlns:xlink="http://www.w3.org/1999/xlink" width="120" height="120" viewBox="0 0 120 120"><defs><style>.a{fill:#1aa6b7;}.b{fill:#ecf8f9;}.c{filter:url(#a);}</style><filter id="a" x="0" y="0" width="120" height="120" filterUnits="userSpaceOnUse"><feOffset dy="3" input="SourceAlpha"/><feGaussianBlur stdDeviation="3" result="b"/><feFlood flood-opacity="0.161"/><feComposite operator="in" in2="b"/><feComposite in="SourceGraphic"/></filter></defs><g transform="translate(9 6)"><g class="c" transform="matrix(1, 0, 0, 1, -9, -6)"><circle class="a" cx="51" cy="51" r="51" transform="translate(9 6)"/></g><g transform="translate(20.746 20.929)"><path class="b" d="M52.385,8.988A30.689,30.689,0,0,0,4.11,46.035L0,61.373l15.338-4.11A30.688,30.688,0,0,0,52.385,8.988Zm-21.7,48.789a27.03,27.03,0,0,1-14.14-3.98l-.659-.4-10.8,2.894,2.894-10.8-.4-.659a27.093,27.093,0,1,1,23.11,12.95Z"/><rect class="b" width="3.596" height="3.596" transform="translate(28.888 42.374)"/><path class="b" d="M189.99,128.5a9,9,0,0,0-8.99,8.99h3.6a5.394,5.394,0,1,1,9.414,3.6l-5.818,6.506v4.283h3.6v-2.909l4.9-5.482a8.989,8.989,0,0,0-6.7-14.983Z" transform="translate(-159.304 -113.097)"/></g></g></svg>