<svg xmlns="http://www.w3.org/2000/svg" xmlns:xlink="http://www.w3.org/1999/xlink" width="120" height="120" viewBox="0 0 120 120"><defs><style>.a{fill:#1aa6b7;}.b{fill:#ecf8f9;}.c{filter:url(#a);}</style><filter id="a" x="0" y="0" width="120" height="120" filterUnits="userSpaceOnUse"><feOffset dy="3" input="SourceAlpha"/><feGaussianBlur stdDeviation="3" result="b"/><feFlood flood-opacity="0.161"/><feComposite operator="in" in2="b"/><feComposite in="SourceGraphic"/></filter></defs><g transform="translate(9 6.393)"><g class="c" transform="matrix(1, 0, 0, 1, -9, -6.39)"><circle class="a" cx="51" cy="51" r="51" transform="translate(9 6)"/></g><g transform="translate(15.559 14.178)"><g transform="translate(0 24.78)"><path class="b" d="M45.842,178.585H44.479a1.219,1.219,0,0,1-1.147-.8c-.151-.4-.313-.784-.488-1.168a1.222,1.222,0,0,1,.248-1.383l.971-.973a3.726,3.726,0,0,0-.006-5.252l-3.5-3.5a3.726,3.726,0,0,0-5.253,0l-.971.97a1.227,1.227,0,0,1-1.383.248c-.384-.175-.772-.337-1.17-.5a1.218,1.218,0,0,1-.8-1.15v-1.363A3.717,3.717,0,0,0,27.258,160H22.3a3.717,3.717,0,0,0-3.717,3.717v1.363a1.219,1.219,0,0,1-.8,1.147c-.4.151-.784.313-1.168.488a1.225,1.225,0,0,1-1.383-.248l-.973-.971a3.726,3.726,0,0,0-5.252,0l-3.5,3.513a3.726,3.726,0,0,0,0,5.253l.97.971a1.222,1.222,0,0,1,.248,1.383c-.175.384-.337.772-.489,1.17a1.218,1.218,0,0,1-1.156.8H3.717A3.717,3.717,0,0,0,0,182.3v4.956a3.717,3.717,0,0,0,3.717,3.717H5.08a1.219,1.219,0,0,1,1.147.8c.151.4.313.784.488,1.168a1.222,1.222,0,0,1-.248,1.383L5.5,195.3a3.726,3.726,0,0,0,0,5.252l3.5,3.5a3.726,3.726,0,0,0,5.253,0l.971-.97a1.227,1.227,0,0,1,1.383-.248c.384.175.772.337,1.17.5a1.218,1.218,0,0,1,.81,1.15v1.363a3.717,3.717,0,0,0,3.717,3.717h4.956a3.717,3.717,0,0,0,3.717-3.717v-1.363a1.219,1.219,0,0,1,.8-1.147c.4-.151.784-.313,1.168-.488a1.225,1.225,0,0,1,1.383.248l.973.971a3.727,3.727,0,0,0,5.252-.006l3.5-3.5a3.726,3.726,0,0,0,0-5.253l-.97-.971a1.222,1.222,0,0,1-.248-1.383c.175-.384.337-.772.5-1.17a1.218,1.218,0,0,1,1.15-.8h1.363a3.717,3.717,0,0,0,3.717-3.717V182.3A3.717,3.717,0,0,0,45.842,178.585Zm1.239,8.673a1.239,1.239,0,0,1-1.239,1.239H44.479a3.729,3.729,0,0,0-3.469,2.4q-.2.52-.426,1.025a3.728,3.728,0,0,0,.743,4.158l.969.97a1.239,1.239,0,0,1,0,1.752h0l-3.5,3.5a1.239,1.239,0,0,1-1.752,0l-.971-.97a3.724,3.724,0,0,0-4.158-.743c-.336.152-.678.295-1.022.426a3.728,3.728,0,0,0-2.395,3.467v1.363a1.239,1.239,0,0,1-1.239,1.239H22.3a1.239,1.239,0,0,1-1.239-1.239v-1.363a3.729,3.729,0,0,0-2.4-3.469q-.52-.2-1.025-.426a3.729,3.729,0,0,0-4.158.743l-.97.969a1.239,1.239,0,0,1-1.752,0h0l-3.5-3.5a1.239,1.239,0,0,1,0-1.752l.97-.971a3.728,3.728,0,0,0,.743-4.158c-.152-.336-.295-.678-.426-1.022a3.728,3.728,0,0,0-3.467-2.4H3.717a1.239,1.239,0,0,1-1.239-1.239V182.3a1.239,1.239,0,0,1,1.239-1.239H5.08a3.729,3.729,0,0,0,3.469-2.4q.2-.52.426-1.025a3.728,3.728,0,0,0-.743-4.158l-.974-.97a1.239,1.239,0,0,1,0-1.752h0l3.5-3.5a1.239,1.239,0,0,1,1.752,0l.971.97a3.724,3.724,0,0,0,4.158.743c.336-.152.678-.295,1.022-.426a3.728,3.728,0,0,0,2.4-3.467v-1.363a1.239,1.239,0,0,1,1.239-1.239h4.956a1.239,1.239,0,0,1,1.239,1.239v1.363a3.729,3.729,0,0,0,2.4,3.469q.52.2,1.025.426a3.724,3.724,0,0,0,4.158-.743l.97-.969a1.246,1.246,0,0,1,1.753,0l3.5,3.5a1.239,1.239,0,0,1,0,1.752l-.97.971a3.728,3.728,0,0,0-.743,4.158c.152.336.295.678.426,1.022a3.728,3.728,0,0,0,3.467,2.395h1.363a1.239,1.239,0,0,1,1.239,1.239v4.956Z" transform="translate(0 -160)"/></g><g transform="translate(13.622 38.408)"><path class="b" d="M110.242,258.655c-.012-.3-.033-.593-.069-.888-.04-.317-.087-.632-.152-.94-.043-.2-.1-.4-.155-.6q-.1-.383-.234-.755c-.061-.172-.124-.343-.188-.513a11.04,11.04,0,0,0-.546-1.16c-.016-.028-.026-.059-.042-.088a10.993,10.993,0,0,0-1.115-1.624c-.036-.045-.077-.087-.114-.13-.171-.2-.347-.4-.532-.585-.1-.1-.2-.195-.3-.291-.124-.115-.248-.229-.372-.338q-.226-.2-.46-.379l-.2-.151A11.072,11.072,0,0,0,99.116,248c-.124,0-.248.019-.372.024-.264.007-.529.022-.8.049-.14.015-.281.031-.421.051a11.366,11.366,0,0,0-1.2.224,11.157,11.157,0,0,0,.009,21.607.287.287,0,0,1,.062.011,11.8,11.8,0,0,0,1.3.248c.289.036.577.043.867.057.193.01.372.038.574.038.353,0,.72-.024,1.094-.061a1.211,1.211,0,0,0,.124-.016c.3-.033.606-.078.917-.14.124-.024.239-.055.358-.082.218-.051.435-.1.658-.17.173-.052.342-.113.512-.172s.346-.124.522-.191.323-.144.483-.218c.208-.1.415-.19.619-.3h.007a14.665,14.665,0,0,0,3.176-2.293,3.9,3.9,0,0,0,.664-.813,13.227,13.227,0,0,0,1.866-5.092c.035-.239.066-.478.084-.722.017-.224.03-.447.035-.67,0-.071.01-.138.01-.208C110.267,258.985,110.249,258.824,110.242,258.655Zm-2.469.812c0,.1-.009.206-.015.307-.022.3-.061.6-.111.9a8.691,8.691,0,0,1-4.354,6.071c-.154.081-.3.156-.456.225l-.1.05a8.947,8.947,0,0,1-2.26.684c-.055.009-.11.019-.166.026-.155.022-.307.041-.458.055-.2.017-.4.027-.6.031h-.259a8.7,8.7,0,0,1-.877-.055l-.149-.017a9.178,9.178,0,0,1-1.012-.191,8.673,8.673,0,0,1-.009-16.8h0a8.972,8.972,0,0,1,2.177-.273,8.564,8.564,0,0,1,1.059.072c.094.011.187.028.28.042.268.042.533.1.794.162.086.022.171.042.255.066a8.751,8.751,0,0,1,1.889.8c.1.056.188.114.283.172.2.124.385.248.572.389.1.073.2.145.3.223a8.944,8.944,0,0,1,.7.619c.088.089.169.187.254.28.142.155.281.313.414.481.092.115.18.234.266.354.124.178.248.364.359.553.062.1.124.2.187.308a8.514,8.514,0,0,1,.426.908c.05.124.092.248.136.372.081.228.15.458.211.691.031.124.066.234.092.354a8.735,8.735,0,0,1,.157,1.015c.007.09.007.182.014.273C107.779,258.893,107.784,259.179,107.773,259.467Z" transform="translate(-87.959 -248)"/></g><g transform="translate(13.514)"><path class="b" d="M144.369,26.019h-3.9a1.209,1.209,0,0,1-1.155-.813,25.8,25.8,0,0,0-1.391-3.359,1.213,1.213,0,0,1,.238-1.4l2.763-2.767a3.717,3.717,0,0,0,0-5.255l-5.268-5.259a3.717,3.717,0,0,0-5.255,0l-2.762,2.76a1.213,1.213,0,0,1-1.4.239,25.741,25.741,0,0,0-3.36-1.4,1.209,1.209,0,0,1-.818-1.155v-3.9A3.717,3.717,0,0,0,118.35,0h-7.434A3.717,3.717,0,0,0,107.2,3.717v3.9a1.209,1.209,0,0,1-.813,1.155,25.82,25.82,0,0,0-3.359,1.4,1.21,1.21,0,0,1-1.4-.238L98.862,7.165a3.725,3.725,0,0,0-5.255,0L88.35,12.423a3.717,3.717,0,0,0,0,5.256l4.063,4.07A1.239,1.239,0,0,0,94.167,20L90.1,15.931a1.239,1.239,0,0,1,0-1.752L95.36,8.921a1.239,1.239,0,0,1,1.752,0l2.768,2.763a3.683,3.683,0,0,0,4.257.7,23.441,23.441,0,0,1,3.037-1.263,3.686,3.686,0,0,0,2.5-3.506v-3.9a1.239,1.239,0,0,1,1.239-1.239h7.434a1.239,1.239,0,0,1,1.239,1.239v3.9a3.685,3.685,0,0,0,2.5,3.505,23.367,23.367,0,0,1,3.038,1.264,3.692,3.692,0,0,0,4.256-.7l2.768-2.762a1.239,1.239,0,0,1,1.752,0l5.258,5.259a1.239,1.239,0,0,1,0,1.751L136.4,18.7a3.687,3.687,0,0,0-.7,4.257,23.444,23.444,0,0,1,1.263,3.037,3.685,3.685,0,0,0,3.506,2.5h3.9a1.239,1.239,0,0,1,1.239,1.239v7.434a1.239,1.239,0,0,1-1.239,1.239h-3.9a3.685,3.685,0,0,0-3.505,2.5A23.343,23.343,0,0,1,135.7,43.95a3.689,3.689,0,0,0,.7,4.256l2.763,2.768a1.239,1.239,0,0,1,0,1.752l-5.261,5.258a1.239,1.239,0,0,1-1.751,0l-4.071-4.063a1.239,1.239,0,1,0-1.78,1.724l.03.03,4.07,4.063a3.717,3.717,0,0,0,5.255,0l5.258-5.257a3.717,3.717,0,0,0,0-5.256l-2.759-2.764a1.214,1.214,0,0,1-.239-1.4,25.741,25.741,0,0,0,1.4-3.36,1.209,1.209,0,0,1,1.155-.818h3.9a3.717,3.717,0,0,0,3.717-3.717V29.736A3.717,3.717,0,0,0,144.369,26.019Z" transform="translate(-87.261)"/></g><g transform="translate(29.15 17.353)"><path class="b" d="M211.344,116.76a16.123,16.123,0,0,0-22.777,0,1.239,1.239,0,0,0,1.752,1.752,13.629,13.629,0,1,1,19.4,19.144l-.129.129a1.239,1.239,0,0,0,1.722,1.782l.03-.03A16.123,16.123,0,0,0,211.344,116.76Z" transform="translate(-188.219 -112.049)"/></g></g></g></svg>