<svg xmlns="http://www.w3.org/2000/svg" xmlns:xlink="http://www.w3.org/1999/xlink" width="120" height="120" viewBox="0 0 120 120"><defs><style>.a{fill:#1aa6b7;}.b{fill:#ecf8f9;}.c{filter:url(#a);}</style><filter id="a" x="0" y="0" width="120" height="120" filterUnits="userSpaceOnUse"><feOffset dy="3" input="SourceAlpha"/><feGaussianBlur stdDeviation="3" result="b"/><feFlood flood-opacity="0.161"/><feComposite operator="in" in2="b"/><feComposite in="SourceGraphic"/></filter></defs><g transform="translate(9 6.162)"><g class="c" transform="matrix(1, 0, 0, 1, -9, -6.16)"><circle class="a" cx="51" cy="51" r="51" transform="translate(9 6)"/></g><g transform="translate(15.559 18.147)"><path class="b" d="M350.518,43.929c.031,0,.061,0,.093,0a1.144,1.144,0,0,0,.158-.012,2.555,2.555,0,0,1,2.5,2.551,1.143,1.143,0,1,0,2.286,0,4.847,4.847,0,0,0-3.8-4.727v-1.1a1.143,1.143,0,0,0-2.286,0V41.8a4.84,4.84,0,0,0,1.25,9.516,2.554,2.554,0,1,1-2.554,2.554,1.143,1.143,0,1,0-2.286,0,4.848,4.848,0,0,0,3.59,4.675V59.8a1.143,1.143,0,0,0,2.286,0V58.6a4.84,4.84,0,0,0-1.036-9.568,2.553,2.553,0,0,1-.2-5.1Zm0,0" transform="translate(-296.452 -33.915)"/><path class="b" d="M54.331.39A16.4,16.4,0,0,0,39.048,11.124H10.674a1.2,1.2,0,0,0-1.143,1.195l-.27,40.1H1.173A1.124,1.124,0,0,0,0,53.511V58.6a8.98,8.98,0,0,0,8.574,8.943v.025h35.3v-.033c.286.011.4.033.584.033h.025a8.979,8.979,0,0,0,8.965-8.979V32.859c.286.016.588.024.884.024a16.246,16.246,0,0,0,0-32.493ZM9.009,65.283H9a6.724,6.724,0,0,1-6.715-6.694V54.708H35.439v3.864a8.968,8.968,0,0,0,2.647,6.355c.12.12.269.213.395.356Zm42.149-6.694a6.693,6.693,0,0,1-6.68,6.694h-.022a6.743,6.743,0,0,1-6.731-6.709V53.511a1.055,1.055,0,0,0-1.091-1.09H11.547L11.81,13.41h26.6a17.177,17.177,0,0,0-.313,3.175,16.121,16.121,0,0,0,1.38,6.542h-10.8a1.143,1.143,0,0,0,0,2.286H40.72a16.133,16.133,0,0,0,10.437,7.159ZM54.331,30.6A13.944,13.944,0,1,1,68.275,16.653,13.944,13.944,0,0,1,54.331,30.6Zm0,0" transform="translate(0 -0.39)"/><path class="b" d="M127.421,212.746a3.545,3.545,0,1,0,3.66,3.543A3.606,3.606,0,0,0,127.421,212.746Zm0,4.8a1.261,1.261,0,1,1,1.373-1.257A1.32,1.32,0,0,1,127.421,217.545Zm0,0" transform="translate(-106.076 -182.401)"/><path class="b" d="M192.719,230.647a1.143,1.143,0,0,0,1.143,1.143H209.1a1.143,1.143,0,1,0,0-2.286H193.862A1.143,1.143,0,0,0,192.719,230.647Zm0,0" transform="translate(-165.18 -196.764)"/><path class="b" d="M127.421,143.2a3.545,3.545,0,1,0,3.66,3.543A3.607,3.607,0,0,0,127.421,143.2Zm0,4.8a1.262,1.262,0,1,1,1.373-1.257A1.32,1.32,0,0,1,127.421,148Zm0,0" transform="translate(-106.076 -122.795)"/><path class="b" d="M127.421,282.281a3.545,3.545,0,1,0,3.66,3.543A3.606,3.606,0,0,0,127.421,282.281Zm0,4.8a1.261,1.261,0,1,1,1.373-1.257A1.319,1.319,0,0,1,127.421,287.08Zm0,0" transform="translate(-106.076 -241.999)"/><path class="b" d="M209.1,299.5H193.862a1.143,1.143,0,0,0,0,2.286H209.1a1.143,1.143,0,0,0,0-2.286Zm0,0" transform="translate(-165.18 -256.761)"/></g></g></svg>