<svg xmlns="http://www.w3.org/2000/svg" width="69.949" height="83.939" viewBox="0 0 69.949 83.939"><defs><style>.a{fill:#2c4250;}</style></defs><g transform="translate(16.788 60.156)"><path class="a" d="M140.2,344h-2.8a1.4,1.4,0,0,0,0,2.8h2.8a1.4,1.4,0,1,0,0-2.8Z" transform="translate(-136 -344)"/></g><g transform="translate(25.182 60.156)"><path class="a" d="M218.975,344H185.4a1.4,1.4,0,1,0,0,2.8h33.576a1.4,1.4,0,0,0,0-2.8Z" transform="translate(-184 -344)"/></g><g transform="translate(16.788 51.762)"><path class="a" d="M140.2,296h-2.8a1.4,1.4,0,1,0,0,2.8h2.8a1.4,1.4,0,1,0,0-2.8Z" transform="translate(-136 -296)"/></g><g transform="translate(25.182 51.762)"><path class="a" d="M218.975,296H185.4a1.4,1.4,0,1,0,0,2.8h33.576a1.4,1.4,0,1,0,0-2.8Z" transform="translate(-184 -296)"/></g><g transform="translate(16.788 43.368)"><path class="a" d="M140.2,248h-2.8a1.4,1.4,0,0,0,0,2.8h2.8a1.4,1.4,0,1,0,0-2.8Z" transform="translate(-136 -248)"/></g><g transform="translate(25.182 43.368)"><path class="a" d="M218.975,248H185.4a1.4,1.4,0,1,0,0,2.8h33.576a1.4,1.4,0,0,0,0-2.8Z" transform="translate(-184 -248)"/></g><g transform="translate(16.788 34.975)"><path class="a" d="M140.2,200h-2.8a1.4,1.4,0,0,0,0,2.8h2.8a1.4,1.4,0,1,0,0-2.8Z" transform="translate(-136 -200)"/></g><g transform="translate(25.182 34.975)"><path class="a" d="M218.975,200H185.4a1.4,1.4,0,1,0,0,2.8h33.576a1.4,1.4,0,1,0,0-2.8Z" transform="translate(-184 -200)"/></g><g transform="translate(16.788 26.581)"><path class="a" d="M140.2,152h-2.8a1.4,1.4,0,0,0,0,2.8h2.8a1.4,1.4,0,1,0,0-2.8Z" transform="translate(-136 -152)"/></g><g transform="translate(25.182 26.581)"><path class="a" d="M218.975,152H185.4a1.4,1.4,0,1,0,0,2.8h33.576a1.4,1.4,0,0,0,0-2.8Z" transform="translate(-184 -152)"/></g><path class="a" d="M109.931,20.9a1.321,1.321,0,0,0-.071-.36c-.015-.045-.027-.088-.046-.132a1.4,1.4,0,0,0-.28-.41L89.948.41a1.4,1.4,0,0,0-.41-.28c-.043-.02-.087-.031-.13-.046a1.393,1.393,0,0,0-.362-.073C89.022.015,89,0,88.964,0H49.793a1.4,1.4,0,0,0-1.4,1.4V5.6H41.4a1.4,1.4,0,0,0-1.4,1.4V82.54a1.4,1.4,0,0,0,1.4,1.4h58.757a1.4,1.4,0,0,0,1.4-1.4V75.545h6.995a1.4,1.4,0,0,0,1.4-1.4V20.985C109.949,20.954,109.934,20.927,109.931,20.9ZM90.363,4.776l14.81,14.81H90.363Zm8.394,76.365H42.8V8.394h5.6V74.146a1.4,1.4,0,0,0,1.4,1.4H98.757Zm8.394-8.394H51.192V2.8H87.565V20.985a1.4,1.4,0,0,0,1.4,1.4h18.187Z" transform="translate(-40)"/><g transform="translate(16.788 9.788)"><path class="a" d="M145.793,72H137.4a1.4,1.4,0,0,0-1.4,1.4v8.394a1.4,1.4,0,0,0,1.4,1.4h8.394a1.4,1.4,0,0,0,1.4-1.4V73.4A1.4,1.4,0,0,0,145.793,72Zm-1.4,8.394h-5.6V74.8h5.6Z" transform="translate(-136 -72)"/></g></svg>