<svg xmlns="http://www.w3.org/2000/svg" width="74.989" height="88.483" viewBox="0 0 74.989 88.483"><defs><style>.a{fill:#2c4250;}</style></defs><path class="a" d="M83.54,0H18.414A1.21,1.21,0,0,0,17.2,1.21V11.594h-3.47A3.98,3.98,0,0,0,9.76,15.569v1.915a3.979,3.979,0,0,0,3.975,3.975H17.2V30.07h-3.47A3.979,3.979,0,0,0,9.76,34.045v1.914a3.979,3.979,0,0,0,3.975,3.975H17.2V48.55h-3.47A3.98,3.98,0,0,0,9.76,52.525V54.44a3.979,3.979,0,0,0,3.975,3.975H17.2v8.614h-3.47A3.979,3.979,0,0,0,9.76,71v1.914a3.979,3.979,0,0,0,3.975,3.975H17.2V87.273a1.21,1.21,0,0,0,1.21,1.21H83.54a1.21,1.21,0,0,0,1.21-1.21V1.21A1.21,1.21,0,0,0,83.54,0Zm-69.8,19.039a1.557,1.557,0,0,1-1.555-1.555V15.569a1.557,1.557,0,0,1,1.555-1.555H17.2v5.026Zm0,18.478a1.557,1.557,0,0,1-1.555-1.555V34.047a1.557,1.557,0,0,1,1.555-1.557H17.2v5.025Zm0,18.476a1.557,1.557,0,0,1-1.555-1.555V52.523a1.557,1.557,0,0,1,1.555-1.555H17.2v5.026Zm0,18.478a1.557,1.557,0,0,1-1.555-1.555V71a1.557,1.557,0,0,1,1.555-1.555H17.2v5.025Zm68.6,11.593H19.624V2.419H82.33Z" transform="translate(-9.76)"/><path class="a" d="M31.739,60.476h51.3a1.21,1.21,0,0,0,1.21-1.21V53.952a1.21,1.21,0,0,0-1.21-1.21H79.92v-.926A22.571,22.571,0,0,0,64.084,30.3c.008-.13.023-.261.023-.389a6.718,6.718,0,1,0-13.437,0c0,.129.015.259.024.389A22.571,22.571,0,0,0,34.858,51.816v.926H31.739a1.21,1.21,0,0,0-1.21,1.21v5.315a1.21,1.21,0,0,0,1.21,1.21Zm25.65-34.866A4.3,4.3,0,0,1,61.675,29.7a22.409,22.409,0,0,0-8.576,0,4.3,4.3,0,0,1,4.29-4.087ZM37.277,51.816a20.112,20.112,0,0,1,40.224,0v.926H37.277Zm-4.329,3.346H81.829v2.9H32.948Z" transform="translate(-16.172 -7.159)"/><path class="a" d="M31.739,85.734h51.3a1.21,1.21,0,0,0,0-2.419h-51.3a1.21,1.21,0,1,0,0,2.419Z" transform="translate(-16.172 -25.722)"/><path class="a" d="M31.739,94.734h51.3a1.21,1.21,0,0,0,0-2.419h-51.3a1.21,1.21,0,1,0,0,2.419Z" transform="translate(-16.172 -28.5)"/><path class="a" d="M79.5,101.315H40.98a1.21,1.21,0,0,0,0,2.419H79.5a1.21,1.21,0,0,0,0-2.419Z" transform="translate(-19.025 -31.279)"/></svg>