<svg xmlns="http://www.w3.org/2000/svg" width="124.629" height="120.491" viewBox="0 0 124.629 120.491"><defs><style>.a{fill:#35b8c8;}.b{fill:#1ca7b8;}.c{fill:#f3f5f9;}.d{fill:#e2dff4;}.e{fill:#ff6680;}.f{fill:#e62e6b;}</style></defs><g transform="translate(0)"><g transform="translate(0 47.466)"><path class="a" d="M3.651,276.525A3.649,3.649,0,0,1,0,272.874V207.151A3.649,3.649,0,0,1,3.651,203.5H47.71a3.649,3.649,0,0,1,3.651,3.651V218.1h25.8a3.649,3.649,0,0,1,3.651,3.651v43.815a3.649,3.649,0,0,1-3.651,3.651H10.954A3.656,3.656,0,0,0,7.3,272.874,3.649,3.649,0,0,1,3.651,276.525Z" transform="translate(0 -203.5)"/></g><path class="b" d="M202.756,218.1h-25.8V207.151A3.649,3.649,0,0,0,173.3,203.5H166v65.722h36.756a3.649,3.649,0,0,0,3.651-3.651V221.756A3.649,3.649,0,0,0,202.756,218.1Z" transform="translate(-125.593 -156.034)"/><g transform="translate(14.605 62.071)"><path class="c" d="M93.1,270.8H63.651a3.651,3.651,0,0,1,0-7.3H93.1a3.651,3.651,0,0,1,0,7.3Z" transform="translate(-60 -263.5)"/></g><path class="d" d="M173.3,263.5H166v7.3h7.3a3.651,3.651,0,1,0,0-7.3Z" transform="translate(-125.593 -201.429)"/><g transform="translate(44.058 0)"><path class="e" d="M257.92,85.176a3.649,3.649,0,0,1-3.651-3.651,3.656,3.656,0,0,0-3.651-3.651H184.651A3.649,3.649,0,0,1,181,74.222V12.151A3.649,3.649,0,0,1,184.651,8.5H257.92a3.649,3.649,0,0,1,3.651,3.651V81.525A3.649,3.649,0,0,1,257.92,85.176Z" transform="translate(-181 -8.5)"/></g><path class="f" d="M383.512,8.5H347V77.874h29.21a3.656,3.656,0,0,1,3.651,3.651,3.651,3.651,0,1,0,7.3,0V12.151A3.649,3.649,0,0,0,383.512,8.5Z" transform="translate(-262.534 -8.5)"/><g transform="translate(14.605 14.605)"><g transform="translate(58.907)"><path class="c" d="M323.907,79.454a11.1,11.1,0,0,1-5.477,9.493,3.682,3.682,0,0,0-1.826,3.14,3.651,3.651,0,0,1-7.3,0,11.072,11.072,0,0,1,3.651-8.106,6.658,6.658,0,0,1,1.826-1.387,3.682,3.682,0,0,0,1.826-3.14,3.651,3.651,0,0,0-7.3,0,3.651,3.651,0,1,1-7.3,0,10.954,10.954,0,1,1,21.907,0Z" transform="translate(-302 -68.5)"/></g><g transform="translate(65.801 33.521)"><ellipse class="c" cx="4.02" cy="3.35" rx="4.02" ry="3.35" transform="translate(0 0)"/></g><g transform="translate(0 76.676)"><path class="c" d="M107.953,390.8h-44.3a3.651,3.651,0,0,1,0-7.3h44.3a3.651,3.651,0,0,1,0,7.3Z" transform="translate(-60 -383.5)"/></g><g transform="translate(0 62.071)"><path class="c" d="M107.953,330.8h-44.3a3.651,3.651,0,0,1,0-7.3h44.3a3.651,3.651,0,1,1,0,7.3Z" transform="translate(-60 -323.5)"/></g></g><g transform="translate(40.407 14.605)"><path class="d" d="M350.651,207.151A3.651,3.651,0,0,0,347,203.5v7.3A3.651,3.651,0,0,0,350.651,207.151Z" transform="translate(-302.942 -170.639)"/><path class="d" d="M357.954,79.454a11.1,11.1,0,0,1-5.477,9.493,3.682,3.682,0,0,0-1.826,3.14A3.615,3.615,0,0,1,347,95.738V83.981a6.659,6.659,0,0,1,1.826-1.387,3.682,3.682,0,0,0,1.826-3.14A3.615,3.615,0,0,0,347,75.8V68.5A10.939,10.939,0,0,1,357.954,79.454Z" transform="translate(-302.942 -68.5)"/><path class="d" d="M188.151,383.5H166v7.3h22.151a3.651,3.651,0,1,0,0-7.3Z" transform="translate(-166 -306.824)"/><path class="d" d="M188.151,323.5H166v7.3h22.151a3.651,3.651,0,1,0,0-7.3Z" transform="translate(-166 -261.429)"/></g></g></svg>