<svg xmlns="http://www.w3.org/2000/svg" width="80.929" height="80.929" viewBox="0 0 80.929 80.929"><defs><style>.a{fill:#2c4250;}</style></defs><g transform="translate(0 26.976)"><path class="a" d="M49.906,180.232H48.423a1.327,1.327,0,0,1-1.249-.871c-.165-.432-.341-.854-.531-1.272a1.33,1.33,0,0,1,.27-1.505l1.057-1.059a4.056,4.056,0,0,0-.007-5.718L44.151,166a4.056,4.056,0,0,0-5.719,0l-1.057,1.056a1.335,1.335,0,0,1-1.505.27c-.418-.19-.84-.367-1.273-.54a1.326,1.326,0,0,1-.875-1.252v-1.484A4.046,4.046,0,0,0,29.674,160h-5.4a4.046,4.046,0,0,0-4.046,4.046v1.484a1.327,1.327,0,0,1-.871,1.249c-.432.165-.854.341-1.272.531a1.334,1.334,0,0,1-1.505-.27l-1.059-1.057a4.056,4.056,0,0,0-5.718,0L6,169.807a4.056,4.056,0,0,0,0,5.719l1.056,1.057a1.33,1.33,0,0,1,.27,1.505c-.19.418-.367.84-.533,1.273a1.326,1.326,0,0,1-1.258.87H4.046A4.046,4.046,0,0,0,0,184.279v5.4a4.046,4.046,0,0,0,4.046,4.046H5.53a1.327,1.327,0,0,1,1.249.871c.165.432.341.854.531,1.272a1.33,1.33,0,0,1-.27,1.505l-1.057,1.059a4.056,4.056,0,0,0,0,5.718L9.8,207.957a4.056,4.056,0,0,0,5.719,0l1.057-1.056a1.336,1.336,0,0,1,1.505-.27c.418.19.84.367,1.273.54a1.326,1.326,0,0,1,.882,1.252v1.484a4.046,4.046,0,0,0,4.046,4.047h5.4a4.046,4.046,0,0,0,4.046-4.047v-1.484a1.327,1.327,0,0,1,.871-1.249c.432-.165.854-.341,1.272-.531a1.334,1.334,0,0,1,1.505.27l1.059,1.057a4.057,4.057,0,0,0,5.718-.007l3.812-3.812a4.056,4.056,0,0,0,0-5.719L46.9,197.374a1.33,1.33,0,0,1-.27-1.505c.19-.418.367-.84.54-1.273a1.326,1.326,0,0,1,1.252-.875h1.484a4.046,4.046,0,0,0,4.046-4.046v-5.4A4.046,4.046,0,0,0,49.906,180.232Zm1.349,9.442a1.349,1.349,0,0,1-1.349,1.349H48.423a4.06,4.06,0,0,0-3.777,2.609q-.214.566-.464,1.115a4.058,4.058,0,0,0,.809,4.527l1.055,1.056a1.349,1.349,0,0,1,0,1.908h0l-3.812,3.812a1.349,1.349,0,0,1-1.907,0l-1.057-1.056a4.055,4.055,0,0,0-4.527-.809c-.366.166-.738.321-1.113.464a4.059,4.059,0,0,0-2.607,3.774v1.484a1.349,1.349,0,0,1-1.349,1.349h-5.4a1.349,1.349,0,0,1-1.349-1.349v-1.484a4.06,4.06,0,0,0-2.609-3.777q-.567-.214-1.115-.464a4.06,4.06,0,0,0-4.527.809l-1.056,1.055a1.349,1.349,0,0,1-1.908,0h0L7.9,202.238a1.349,1.349,0,0,1,0-1.907l1.056-1.057a4.058,4.058,0,0,0,.809-4.527c-.166-.366-.321-.738-.464-1.113a4.059,4.059,0,0,0-3.774-2.611H4.046A1.349,1.349,0,0,1,2.7,189.674v-5.4a1.349,1.349,0,0,1,1.349-1.349H5.53a4.06,4.06,0,0,0,3.777-2.609q.214-.566.464-1.115a4.059,4.059,0,0,0-.809-4.527L7.9,173.623a1.349,1.349,0,0,1,0-1.908h0l3.812-3.812a1.349,1.349,0,0,1,1.907,0l1.057,1.056a4.055,4.055,0,0,0,4.527.809c.366-.166.738-.321,1.113-.464a4.059,4.059,0,0,0,2.613-3.774v-1.484a1.349,1.349,0,0,1,1.349-1.349h5.4a1.349,1.349,0,0,1,1.349,1.349v1.484a4.06,4.06,0,0,0,2.609,3.777q.567.214,1.115.464a4.055,4.055,0,0,0,4.527-.809l1.056-1.055a1.357,1.357,0,0,1,1.909,0l3.812,3.812a1.349,1.349,0,0,1,0,1.907l-1.056,1.057a4.059,4.059,0,0,0-.809,4.527c.166.366.321.738.464,1.113a4.059,4.059,0,0,0,3.774,2.607h1.484a1.349,1.349,0,0,1,1.349,1.349v5.4Z" transform="translate(0 -160)"/></g><g transform="translate(14.83 41.813)"><path class="a" d="M112.217,259.6c-.014-.324-.036-.646-.076-.967-.043-.345-.094-.688-.166-1.024-.047-.22-.109-.437-.169-.656q-.113-.417-.255-.821c-.066-.187-.135-.374-.205-.558a12.015,12.015,0,0,0-.595-1.263c-.018-.031-.028-.065-.046-.1a11.968,11.968,0,0,0-1.214-1.768c-.039-.049-.084-.094-.124-.142-.186-.22-.378-.433-.579-.637-.105-.109-.216-.212-.326-.317-.135-.125-.27-.25-.4-.368q-.246-.213-.5-.413l-.221-.165A12.053,12.053,0,0,0,100.1,248c-.135,0-.27.02-.4.026-.287.008-.576.024-.866.054-.152.016-.306.034-.459.055a12.373,12.373,0,0,0-1.307.244,12.146,12.146,0,0,0,.009,23.522.311.311,0,0,1,.067.012,12.852,12.852,0,0,0,1.414.27c.314.039.629.047.944.062.21.011.4.042.624.042.384,0,.784-.026,1.191-.066a1.314,1.314,0,0,0,.135-.018c.328-.036.66-.085,1-.152.135-.026.26-.059.39-.089.237-.055.473-.113.716-.185.189-.057.372-.123.557-.187s.376-.135.568-.208.352-.157.526-.237c.227-.1.452-.206.674-.328h.008a15.966,15.966,0,0,0,3.457-2.5,4.249,4.249,0,0,0,.723-.885,14.4,14.4,0,0,0,2.031-5.544c.038-.26.071-.521.092-.786.019-.244.032-.487.038-.73,0-.077.011-.15.011-.227C112.244,259.959,112.225,259.783,112.217,259.6Zm-2.688.883c0,.112-.009.224-.016.335-.024.326-.066.653-.121.981a9.462,9.462,0,0,1-4.74,6.609c-.167.088-.332.17-.5.245l-.112.054a9.74,9.74,0,0,1-2.46.745c-.059.009-.12.02-.181.028-.169.024-.334.045-.5.059-.217.019-.436.03-.658.034h-.282a9.466,9.466,0,0,1-.955-.059l-.162-.019a9.985,9.985,0,0,1-1.1-.208A9.442,9.442,0,0,1,97.735,251h0a9.767,9.767,0,0,1,2.37-.3,9.319,9.319,0,0,1,1.153.078c.1.012.2.031.3.046.291.046.58.1.865.177.093.024.186.046.278.071a9.528,9.528,0,0,1,2.057.866c.1.061.205.124.308.187.213.135.419.27.623.424.109.08.22.158.325.243a9.74,9.74,0,0,1,.759.674c.1.1.183.2.277.3.155.169.306.341.451.523.1.125.2.255.29.386.135.194.27.4.391.6.067.112.135.221.2.336a9.265,9.265,0,0,1,.464.989c.054.135.1.27.148.4.088.248.163.5.229.753.034.135.071.255.1.386a9.512,9.512,0,0,1,.171,1.1c.008.1.008.2.015.3C109.536,259.859,109.541,260.17,109.529,260.483Z" transform="translate(-87.959 -248)"/></g><g transform="translate(14.712)"><path class="a" d="M149.432,28.325h-4.242a1.317,1.317,0,0,1-1.257-.885,28.087,28.087,0,0,0-1.515-3.657,1.321,1.321,0,0,1,.259-1.523l3.008-3.012a4.046,4.046,0,0,0,0-5.72L139.949,7.8a4.046,4.046,0,0,0-5.72,0l-3.007,3.005a1.321,1.321,0,0,1-1.521.26,28.024,28.024,0,0,0-3.658-1.523,1.316,1.316,0,0,1-.89-1.257V4.046A4.046,4.046,0,0,0,121.106,0h-8.093a4.046,4.046,0,0,0-4.046,4.046V8.289a1.316,1.316,0,0,1-.885,1.257,28.109,28.109,0,0,0-3.657,1.521,1.318,1.318,0,0,1-1.523-.259L99.891,7.8a4.055,4.055,0,0,0-5.72,0l-5.724,5.724a4.047,4.047,0,0,0,0,5.722l4.423,4.431a1.349,1.349,0,0,0,1.91-1.9l-4.425-4.43a1.349,1.349,0,0,1,0-1.907l5.724-5.724a1.349,1.349,0,0,1,1.907,0L101,12.719a4.01,4.01,0,0,0,4.635.761,25.519,25.519,0,0,1,3.306-1.374,4.013,4.013,0,0,0,2.726-3.817V4.046A1.349,1.349,0,0,1,113.013,2.7h8.093a1.349,1.349,0,0,1,1.349,1.349V8.289a4.011,4.011,0,0,0,2.726,3.816,25.439,25.439,0,0,1,3.307,1.376,4.02,4.02,0,0,0,4.633-.762l3.013-3.007a1.349,1.349,0,0,1,1.907,0l5.724,5.726a1.349,1.349,0,0,1,0,1.906l-3.008,3.013A4.014,4.014,0,0,0,140,24.991a25.523,25.523,0,0,1,1.374,3.306,4.011,4.011,0,0,0,3.817,2.726h4.242a1.349,1.349,0,0,1,1.349,1.349v8.093a1.349,1.349,0,0,1-1.349,1.349h-4.242a4.011,4.011,0,0,0-3.816,2.726A25.411,25.411,0,0,1,140,47.847a4.016,4.016,0,0,0,.762,4.633l3.008,3.013a1.349,1.349,0,0,1,0,1.907l-5.727,5.724a1.349,1.349,0,0,1-1.906,0L131.7,58.7a1.349,1.349,0,1,0-1.938,1.877l.033.033,4.431,4.423a4.046,4.046,0,0,0,5.72,0l5.724-5.723a4.047,4.047,0,0,0,0-5.722l-3-3.009a1.322,1.322,0,0,1-.26-1.521,28.022,28.022,0,0,0,1.523-3.658,1.316,1.316,0,0,1,1.257-.89h4.242a4.046,4.046,0,0,0,4.046-4.046V32.372A4.046,4.046,0,0,0,149.432,28.325Z" transform="translate(-87.261)"/></g><g transform="translate(31.734 18.892)"><path class="a" d="M213.394,117.177a17.552,17.552,0,0,0-24.8,0,1.349,1.349,0,0,0,1.907,1.907,14.837,14.837,0,1,1,21.123,20.842l-.141.141a1.349,1.349,0,1,0,1.874,1.94l.033-.033A17.552,17.552,0,0,0,213.394,117.177Z" transform="translate(-188.219 -112.049)"/></g></svg>