<svg xmlns="http://www.w3.org/2000/svg" width="82.145" height="102.684" viewBox="0 0 82.145 102.684"><defs><style>.a{fill:#2c4250;}</style></defs><path class="a" d="M64.892,108.195c.784.428,19.447,10.477,40.181,10.477a85.113,85.113,0,0,0,40.242-10.512,1.711,1.711,0,0,0,.831-1.467c0-13.818-4.237-26.462-11.931-35.605a38.785,38.785,0,0,0-19.582-12.763,22.248,22.248,0,1,0-19.12,0A38.789,38.789,0,0,0,75.931,71.087C68.237,80.23,64,92.875,64,106.692a1.711,1.711,0,0,0,.892,1.5ZM86.248,38.238a18.825,18.825,0,1,1,18.825,18.825A18.825,18.825,0,0,1,86.248,38.238Zm-7.7,35.053c6.95-8.258,16.368-12.805,26.523-12.805s19.574,4.548,26.523,12.805c6.991,8.308,10.922,19.783,11.119,32.4-3.662,1.982-18.88,9.555-37.642,9.555-17.351,0-33.692-7.617-37.641-9.6C67.637,93.049,71.566,81.59,78.549,73.291Z" transform="translate(-64 -15.988)"/></svg>